<ttFont>
    <TTGlyph name="A" xMin="43" yMin="0" xMax="1317" yMax="1366">
      <contour>
        <pt x="43" y="0" on="1"/>
        <pt x="588" y="1366" on="1"/>
        <pt x="774" y="1366" on="1"/>
        <pt x="1317" y="0" on="1"/>
        <pt x="1112" y="0" on="1"/>
        <pt x="965" y="385" on="1"/>
        <pt x="395" y="385" on="1"/>
        <pt x="248" y="0" on="1"/>
      </contour>
      <contour>
        <pt x="463" y="561" on="1"/>
        <pt x="897" y="561" on="1"/>
        <pt x="680" y="1128" on="1"/>
      </contour>
    </TTGlyph>
    <TTGlyph name="AE" xMin="51" yMin="0" xMax="1892" yMax="1366">
      <contour>
        <pt x="51" y="0" on="1"/>
        <pt x="909" y="1366" on="1"/>
        <pt x="1892" y="1366" on="1"/>
        <pt x="1892" y="1188" on="1"/>
        <pt x="1192" y="1188" on="1"/>
        <pt x="1192" y="772" on="1"/>
        <pt x="1808" y="772" on="1"/>
        <pt x="1808" y="594" on="1"/>
        <pt x="1192" y="594" on="1"/>
        <pt x="1192" y="178" on="1"/>
        <pt x="1892" y="178" on="1"/>
        <pt x="1892" y="0" on="1"/>
        <pt x="1001" y="0" on="1"/>
        <pt x="1001" y="414" on="1"/>
        <pt x="520" y="414" on="1"/>
        <pt x="262" y="0" on="1"/>
      </contour>
      <contour>
        <pt x="633" y="592" on="1"/>
        <pt x="1001" y="592" on="1"/>
        <pt x="1001" y="1180" on="1"/>
      </contour>
    </TTGlyph>
    <TTGlyph name="Aacute" xMin="43" yMin="0" xMax="1317" yMax="1722">
      <contour>
        <pt x="43" y="0" on="1"/>
        <pt x="588" y="1366" on="1"/>
        <pt x="774" y="1366" on="1"/>
        <pt x="1317" y="0" on="1"/>
        <pt x="1112" y="0" on="1"/>
        <pt x="965" y="385" on="1"/>
        <pt x="395" y="385" on="1"/>
        <pt x="248" y="0" on="1"/>
      </contour>
      <contour>
        <pt x="463" y="561" on="1"/>
        <pt x="897" y="561" on="1"/>
        <pt x="680" y="1128" on="1"/>
      </contour>
      <contour>
        <pt x="625" y="1483" on="1"/>
        <pt x="754" y="1722" on="1"/>
        <pt x="936" y="1722" on="1"/>
        <pt x="741" y="1483" on="1"/>
      </contour>
    </TTGlyph>
    <TTGlyph name="Acircumflex" xMin="43" yMin="0" xMax="1317" yMax="1733">
      <contour>
        <pt x="43" y="0" on="1"/>
        <pt x="588" y="1366" on="1"/>
        <pt x="774" y="1366" on="1"/>
        <pt x="1317" y="0" on="1"/>
        <pt x="1112" y="0" on="1"/>
        <pt x="965" y="385" on="1"/>
        <pt x="395" y="385" on="1"/>
        <pt x="248" y="0" on="1"/>
      </contour>
      <contour>
        <pt x="451" y="1483" on="1"/>
        <pt x="631" y="1733" on="1"/>
        <pt x="729" y="1733" on="1"/>
        <pt x="911" y="1483" on="1"/>
        <pt x="766" y="1483" on="1"/>
        <pt x="680" y="1616" on="1"/>
        <pt x="594" y="1483" on="1"/>
      </contour>
      <contour>
        <pt x="463" y="561" on="1"/>
        <pt x="897" y="561" on="1"/>
        <pt x="680" y="1128" on="1"/>
      </contour>
    </TTGlyph>
    <TTGlyph name="Adieresis" xMin="43" yMin="0" xMax="1317" yMax="1657">
      <contour>
        <pt x="43" y="0" on="1"/>
        <pt x="588" y="1366" on="1"/>
        <pt x="774" y="1366" on="1"/>
        <pt x="1317" y="0" on="1"/>
        <pt x="1112" y="0" on="1"/>
        <pt x="965" y="385" on="1"/>
        <pt x="395" y="385" on="1"/>
        <pt x="248" y="0" on="1"/>
      </contour>
      <contour>
        <pt x="434" y="1483" on="1"/>
        <pt x="434" y="1657" on="1"/>
        <pt x="623" y="1657" on="1"/>
        <pt x="623" y="1483" on="1"/>
      </contour>
      <contour>
        <pt x="463" y="561" on="1"/>
        <pt x="897" y="561" on="1"/>
        <pt x="680" y="1128" on="1"/>
      </contour>
      <contour>
        <pt x="737" y="1483" on="1"/>
        <pt x="737" y="1657" on="1"/>
        <pt x="926" y="1657" on="1"/>
        <pt x="926" y="1483" on="1"/>
      </contour>
    </TTGlyph>
    <TTGlyph name="Agrave" xMin="43" yMin="0" xMax="1317" yMax="1722">
      <contour>
        <pt x="43" y="0" on="1"/>
        <pt x="588" y="1366" on="1"/>
        <pt x="774" y="1366" on="1"/>
        <pt x="1317" y="0" on="1"/>
        <pt x="1112" y="0" on="1"/>
        <pt x="965" y="385" on="1"/>
        <pt x="395" y="385" on="1"/>
        <pt x="248" y="0" on="1"/>
      </contour>
      <contour>
        <pt x="424" y="1722" on="1"/>
        <pt x="606" y="1722" on="1"/>
        <pt x="735" y="1483" on="1"/>
        <pt x="618" y="1483" on="1"/>
      </contour>
      <contour>
        <pt x="463" y="561" on="1"/>
        <pt x="897" y="561" on="1"/>
        <pt x="680" y="1128" on="1"/>
      </contour>
    </TTGlyph>
    <TTGlyph name="Aring" xMin="43" yMin="0" xMax="1317" yMax="1774">
      <contour>
        <pt x="43" y="0" on="1"/>
        <pt x="588" y="1366" on="1"/>
        <pt x="774" y="1366" on="1"/>
        <pt x="1317" y="0" on="1"/>
        <pt x="1112" y="0" on="1"/>
        <pt x="965" y="385" on="1"/>
        <pt x="395" y="385" on="1"/>
        <pt x="248" y="0" on="1"/>
      </contour>
      <contour>
        <pt x="463" y="561" on="1"/>
        <pt x="897" y="561" on="1"/>
        <pt x="680" y="1128" on="1"/>
      </contour>
      <contour>
        <pt x="502" y="1599" on="1"/>
        <pt x="502" y="1681" on="0"/>
        <pt x="596" y="1774" on="0"/>
        <pt x="764" y="1774" on="0"/>
        <pt x="858" y="1681" on="0"/>
        <pt x="858" y="1599" on="1"/>
        <pt x="858" y="1515" on="0"/>
        <pt x="764" y="1423" on="0"/>
        <pt x="596" y="1423" on="0"/>
        <pt x="502" y="1516" on="0"/>
      </contour>
      <contour>
        <pt x="600" y="1651" on="0"/>
        <pt x="600" y="1548" on="0"/>
        <pt x="635" y="1507" on="0"/>
        <pt x="725" y="1507" on="0"/>
        <pt x="760" y="1548" on="0"/>
        <pt x="760" y="1651" on="0"/>
        <pt x="725" y="1692" on="0"/>
        <pt x="635" y="1692" on="0"/>
      </contour>
    </TTGlyph>
    <TTGlyph name="Atilde" xMin="43" yMin="0" xMax="1317" yMax="1691">
      <contour>
        <pt x="43" y="0" on="1"/>
        <pt x="588" y="1366" on="1"/>
        <pt x="774" y="1366" on="1"/>
        <pt x="1317" y="0" on="1"/>
        <pt x="1112" y="0" on="1"/>
        <pt x="965" y="385" on="1"/>
        <pt x="395" y="385" on="1"/>
        <pt x="248" y="0" on="1"/>
      </contour>
      <contour>
        <pt x="369" y="1481" on="1"/>
        <pt x="369" y="1616" on="1"/>
        <pt x="426" y="1684" on="0"/>
        <pt x="492" y="1690" on="1"/>
        <pt x="503" y="1691" on="0"/>
        <pt x="514" y="1691" on="1"/>
        <pt x="569" y="1691" on="0"/>
        <pt x="620" y="1665" on="1"/>
        <pt x="742" y="1604" on="1"/>
        <pt x="793" y="1580" on="0"/>
        <pt x="846" y="1580" on="1"/>
        <pt x="857" y="1580" on="0"/>
        <pt x="868" y="1581" on="1"/>
        <pt x="934" y="1587" on="0"/>
        <pt x="991" y="1655" on="1"/>
        <pt x="991" y="1520" on="1"/>
        <pt x="934" y="1452" on="0"/>
        <pt x="868" y="1446" on="1"/>
        <pt x="857" y="1445" on="0"/>
        <pt x="846" y="1445" on="1"/>
        <pt x="793" y="1445" on="0"/>
        <pt x="742" y="1470" on="1"/>
        <pt x="620" y="1530" on="1"/>
        <pt x="569" y="1556" on="0"/>
        <pt x="515" y="1556" on="1"/>
        <pt x="504" y="1556" on="0"/>
        <pt x="492" y="1554" on="1"/>
        <pt x="426" y="1548" on="0"/>
      </contour>
      <contour>
        <pt x="463" y="561" on="1"/>
        <pt x="897" y="561" on="1"/>
        <pt x="680" y="1128" on="1"/>
      </contour>
    </TTGlyph>
    <TTGlyph name="B" xMin="178" yMin="0" xMax="1180" yMax="1366">
      <contour>
        <pt x="178" y="0" on="1"/>
        <pt x="178" y="1366" on="1"/>
        <pt x="651" y="1366" on="1"/>
        <pt x="790" y="1366" on="0"/>
        <pt x="981" y="1292" on="0"/>
        <pt x="1067" y="1169" on="0"/>
        <pt x="1100" y="1057" on="0"/>
        <pt x="1100" y="993" on="1"/>
        <pt x="1100" y="934" on="0"/>
        <pt x="1067" y="834" on="0"/>
        <pt x="1020" y="774" on="0"/>
        <pt x="971" y="731" on="0"/>
        <pt x="954" y="723" on="1"/>
        <pt x="938" y="715" on="1"/>
        <pt x="964" y="704" on="1"/>
        <pt x="980" y="698" on="0"/>
        <pt x="1063" y="645" on="0"/>
        <pt x="1126" y="580" on="0"/>
        <pt x="1180" y="461" on="0"/>
        <pt x="1180" y="391" on="1"/>
        <pt x="1180" y="323" on="0"/>
        <pt x="1143" y="205" on="0"/>
        <pt x="1049" y="76" on="0"/>
        <pt x="842" y="0" on="0"/>
        <pt x="690" y="0" on="1"/>
      </contour>
      <contour>
        <pt x="369" y="168" on="1"/>
        <pt x="678" y="170" on="1"/>
        <pt x="836" y="170" on="0"/>
        <pt x="989" y="276" on="0"/>
        <pt x="989" y="399" on="1"/>
        <pt x="989" y="526" on="0"/>
        <pt x="821" y="618" on="0"/>
        <pt x="664" y="618" on="1"/>
        <pt x="369" y="618" on="1"/>
      </contour>
      <contour>
        <pt x="369" y="788" on="1"/>
        <pt x="649" y="788" on="1"/>
        <pt x="776" y="788" on="0"/>
        <pt x="909" y="872" on="0"/>
        <pt x="909" y="987" on="1"/>
        <pt x="909" y="1104" on="0"/>
        <pt x="768" y="1196" on="0"/>
        <pt x="631" y="1196" on="1"/>
        <pt x="369" y="1196" on="1"/>
      </contour>
    </TTGlyph>
    <TTGlyph name="C" xMin="125" yMin="-16" xMax="1178" yMax="1384">
      <contour>
        <pt x="125" y="516" on="0"/>
        <pt x="125" y="852" on="0"/>
        <pt x="203" y="1106" on="0"/>
        <pt x="326" y="1257" on="0"/>
        <pt x="500" y="1352" on="0"/>
        <pt x="666" y="1384" on="0"/>
        <pt x="760" y="1384" on="1"/>
        <pt x="973" y="1384" on="0"/>
        <pt x="1178" y="1303" on="1"/>
        <pt x="1178" y="1126" on="1"/>
        <pt x="985" y="1212" on="0"/>
        <pt x="782" y="1212" on="1"/>
        <pt x="540" y="1212" on="0"/>
        <pt x="322" y="963" on="0"/>
        <pt x="322" y="684" on="1"/>
        <pt x="322" y="408" on="0"/>
        <pt x="540" y="156" on="0"/>
        <pt x="782" y="156" on="1"/>
        <pt x="985" y="156" on="0"/>
        <pt x="1178" y="242" on="1"/>
        <pt x="1178" y="66" on="1"/>
        <pt x="973" y="-16" on="0"/>
        <pt x="760" y="-16" on="1"/>
        <pt x="666" y="-16" on="0"/>
        <pt x="500" y="16" on="0"/>
        <pt x="326" y="111" on="0"/>
        <pt x="203" y="262" on="0"/>
      </contour>
    </TTGlyph>
    <TTGlyph name="Ccedilla" xMin="125" yMin="-262" xMax="1178" yMax="1384">
      <contour>
        <pt x="125" y="684" on="1"/>
        <pt x="125" y="852" on="0"/>
        <pt x="203" y="1106" on="0"/>
        <pt x="326" y="1257" on="0"/>
        <pt x="500" y="1352" on="0"/>
        <pt x="666" y="1384" on="0"/>
        <pt x="760" y="1384" on="1"/>
        <pt x="973" y="1384" on="0"/>
        <pt x="1178" y="1303" on="1"/>
        <pt x="1178" y="1126" on="1"/>
        <pt x="985" y="1212" on="0"/>
        <pt x="782" y="1212" on="1"/>
        <pt x="540" y="1212" on="0"/>
        <pt x="322" y="963" on="0"/>
        <pt x="322" y="684" on="1"/>
        <pt x="322" y="408" on="0"/>
        <pt x="541" y="156" on="0"/>
        <pt x="782" y="156" on="1"/>
        <pt x="985" y="156" on="0"/>
        <pt x="1178" y="242" on="1"/>
        <pt x="1178" y="66" on="1"/>
        <pt x="1002" y="-6" on="0"/>
        <pt x="817" y="-14" on="1"/>
        <pt x="680" y="-262" on="1"/>
        <pt x="492" y="-262" on="1"/>
        <pt x="676" y="-12" on="1"/>
        <pt x="565" y="-2" on="0"/>
        <pt x="385" y="72" on="0"/>
        <pt x="219" y="223" on="0"/>
        <pt x="125" y="498" on="0"/>
      </contour>
    </TTGlyph>
    <TTGlyph name="D" xMin="178" yMin="0" xMax="1255" yMax="1366">
      <contour>
        <pt x="178" y="0" on="1"/>
        <pt x="178" y="1366" on="1"/>
        <pt x="614" y="1366" on="1"/>
        <pt x="929" y="1366" on="0"/>
        <pt x="1255" y="1018" on="0"/>
        <pt x="1255" y="346" on="0"/>
        <pt x="930" y="0" on="0"/>
        <pt x="614" y="0" on="1"/>
      </contour>
      <contour>
        <pt x="369" y="168" on="1"/>
        <pt x="584" y="168" on="1"/>
        <pt x="834" y="168" on="0"/>
        <pt x="1067" y="416" on="0"/>
        <pt x="1067" y="682" on="1"/>
        <pt x="1067" y="950" on="0"/>
        <pt x="834" y="1198" on="0"/>
        <pt x="584" y="1198" on="1"/>
        <pt x="369" y="1198" on="1"/>
      </contour>
    </TTGlyph>
    <TTGlyph name="E" xMin="178" yMin="0" xMax="1069" yMax="1366">
      <contour>
        <pt x="178" y="0" on="1"/>
        <pt x="178" y="1366" on="1"/>
        <pt x="1069" y="1366" on="1"/>
        <pt x="1069" y="1188" on="1"/>
        <pt x="369" y="1188" on="1"/>
        <pt x="369" y="772" on="1"/>
        <pt x="985" y="772" on="1"/>
        <pt x="985" y="594" on="1"/>
        <pt x="369" y="594" on="1"/>
        <pt x="369" y="178" on="1"/>
        <pt x="1069" y="178" on="1"/>
        <pt x="1069" y="0" on="1"/>
      </contour>
    </TTGlyph>
    <TTGlyph name="Eacute" xMin="178" yMin="0" xMax="1069" yMax="1722">
      <contour>
        <pt x="178" y="0" on="1"/>
        <pt x="178" y="1366" on="1"/>
        <pt x="1069" y="1366" on="1"/>
        <pt x="1069" y="1188" on="1"/>
        <pt x="369" y="1188" on="1"/>
        <pt x="369" y="772" on="1"/>
        <pt x="985" y="772" on="1"/>
        <pt x="985" y="594" on="1"/>
        <pt x="369" y="594" on="1"/>
        <pt x="369" y="178" on="1"/>
        <pt x="1069" y="178" on="1"/>
        <pt x="1069" y="0" on="1"/>
      </contour>
      <contour>
        <pt x="582" y="1483" on="1"/>
        <pt x="709" y="1722" on="1"/>
        <pt x="893" y="1722" on="1"/>
        <pt x="698" y="1483" on="1"/>
      </contour>
    </TTGlyph>
    <TTGlyph name="Ecircumflex" xMin="178" yMin="0" xMax="1069" yMax="1733">
      <contour>
        <pt x="178" y="0" on="1"/>
        <pt x="178" y="1366" on="1"/>
        <pt x="1069" y="1366" on="1"/>
        <pt x="1069" y="1188" on="1"/>
        <pt x="369" y="1188" on="1"/>
        <pt x="369" y="772" on="1"/>
        <pt x="985" y="772" on="1"/>
        <pt x="985" y="594" on="1"/>
        <pt x="369" y="594" on="1"/>
        <pt x="369" y="178" on="1"/>
        <pt x="1069" y="178" on="1"/>
        <pt x="1069" y="0" on="1"/>
      </contour>
      <contour>
        <pt x="416" y="1483" on="1"/>
        <pt x="596" y="1733" on="1"/>
        <pt x="694" y="1733" on="1"/>
        <pt x="877" y="1483" on="1"/>
        <pt x="731" y="1483" on="1"/>
        <pt x="645" y="1616" on="1"/>
        <pt x="559" y="1483" on="1"/>
      </contour>
    </TTGlyph>
    <TTGlyph name="Edieresis" xMin="178" yMin="0" xMax="1069" yMax="1657">
      <contour>
        <pt x="178" y="0" on="1"/>
        <pt x="178" y="1366" on="1"/>
        <pt x="1069" y="1366" on="1"/>
        <pt x="1069" y="1188" on="1"/>
        <pt x="369" y="1188" on="1"/>
        <pt x="369" y="772" on="1"/>
        <pt x="985" y="772" on="1"/>
        <pt x="985" y="594" on="1"/>
        <pt x="369" y="594" on="1"/>
        <pt x="369" y="178" on="1"/>
        <pt x="1069" y="178" on="1"/>
        <pt x="1069" y="0" on="1"/>
      </contour>
      <contour>
        <pt x="397" y="1483" on="1"/>
        <pt x="397" y="1657" on="1"/>
        <pt x="584" y="1657" on="1"/>
        <pt x="584" y="1483" on="1"/>
      </contour>
      <contour>
        <pt x="700" y="1483" on="1"/>
        <pt x="700" y="1657" on="1"/>
        <pt x="887" y="1657" on="1"/>
        <pt x="887" y="1483" on="1"/>
      </contour>
    </TTGlyph>
    <TTGlyph name="Egrave" xMin="178" yMin="0" xMax="1069" yMax="1722">
      <contour>
        <pt x="178" y="0" on="1"/>
        <pt x="178" y="1366" on="1"/>
        <pt x="1069" y="1366" on="1"/>
        <pt x="1069" y="1188" on="1"/>
        <pt x="369" y="1188" on="1"/>
        <pt x="369" y="772" on="1"/>
        <pt x="985" y="772" on="1"/>
        <pt x="985" y="594" on="1"/>
        <pt x="369" y="594" on="1"/>
        <pt x="369" y="178" on="1"/>
        <pt x="1069" y="178" on="1"/>
        <pt x="1069" y="0" on="1"/>
      </contour>
      <contour>
        <pt x="412" y="1722" on="1"/>
        <pt x="596" y="1722" on="1"/>
        <pt x="723" y="1483" on="1"/>
        <pt x="606" y="1483" on="1"/>
      </contour>
    </TTGlyph>
    <TTGlyph name="Eth" xMin="109" yMin="0" xMax="1352" yMax="1366">
      <contour>
        <pt x="109" y="606" on="1"/>
        <pt x="109" y="760" on="1"/>
        <pt x="272" y="760" on="1"/>
        <pt x="272" y="1366" on="1"/>
        <pt x="709" y="1366" on="1"/>
        <pt x="1024" y="1366" on="0"/>
        <pt x="1352" y="1018" on="0"/>
        <pt x="1352" y="346" on="0"/>
        <pt x="1024" y="0" on="0"/>
        <pt x="709" y="0" on="1"/>
        <pt x="272" y="0" on="1"/>
        <pt x="272" y="606" on="1"/>
      </contour>
      <contour>
        <pt x="463" y="168" on="1"/>
        <pt x="678" y="168" on="1"/>
        <pt x="930" y="168" on="0"/>
        <pt x="1163" y="416" on="0"/>
        <pt x="1163" y="682" on="1"/>
        <pt x="1163" y="950" on="0"/>
        <pt x="930" y="1198" on="0"/>
        <pt x="678" y="1198" on="1"/>
        <pt x="463" y="1198" on="1"/>
        <pt x="463" y="760" on="1"/>
        <pt x="768" y="760" on="1"/>
        <pt x="768" y="606" on="1"/>
        <pt x="463" y="606" on="1"/>
      </contour>
    </TTGlyph>
    <TTGlyph name="Euro" xMin="102" yMin="-16" xMax="1294" yMax="1384">
      <contour>
        <pt x="102" y="451" on="1"/>
        <pt x="102" y="592" on="1"/>
        <pt x="244" y="592" on="1"/>
        <pt x="242" y="621" on="0"/>
        <pt x="242" y="684" on="1"/>
        <pt x="242" y="717" on="0"/>
        <pt x="246" y="778" on="1"/>
        <pt x="102" y="778" on="1"/>
        <pt x="102" y="920" on="1"/>
        <pt x="264" y="920" on="1"/>
        <pt x="293" y="1055" on="0"/>
        <pt x="424" y="1247" on="0"/>
        <pt x="600" y="1343" on="0"/>
        <pt x="776" y="1384" on="0"/>
        <pt x="877" y="1384" on="1"/>
        <pt x="1090" y="1384" on="0"/>
        <pt x="1294" y="1303" on="1"/>
        <pt x="1294" y="1126" on="1"/>
        <pt x="1102" y="1212" on="0"/>
        <pt x="899" y="1212" on="1"/>
        <pt x="715" y="1212" on="0"/>
        <pt x="502" y="1071" on="0"/>
        <pt x="463" y="920" on="1"/>
        <pt x="1077" y="920" on="1"/>
        <pt x="1077" y="778" on="1"/>
        <pt x="442" y="778" on="1"/>
        <pt x="438" y="717" on="0"/>
        <pt x="438" y="684" on="1"/>
        <pt x="438" y="621" on="0"/>
        <pt x="442" y="592" on="1"/>
        <pt x="1077" y="592" on="1"/>
        <pt x="1077" y="451" on="1"/>
        <pt x="463" y="451" on="1"/>
        <pt x="502" y="297" on="0"/>
        <pt x="715" y="156" on="0"/>
        <pt x="899" y="156" on="1"/>
        <pt x="1102" y="156" on="0"/>
        <pt x="1294" y="242" on="1"/>
        <pt x="1294" y="66" on="1"/>
        <pt x="1089" y="-16" on="0"/>
        <pt x="877" y="-16" on="1"/>
        <pt x="365" y="-16" on="0"/>
        <pt x="264" y="451" on="1"/>
      </contour>
    </TTGlyph>
    <TTGlyph name="F" xMin="178" yMin="0" xMax="1038" yMax="1366">
      <contour>
        <pt x="178" y="0" on="1"/>
        <pt x="178" y="1366" on="1"/>
        <pt x="1038" y="1366" on="1"/>
        <pt x="1038" y="1188" on="1"/>
        <pt x="369" y="1188" on="1"/>
        <pt x="369" y="772" on="1"/>
        <pt x="958" y="772" on="1"/>
        <pt x="958" y="594" on="1"/>
        <pt x="369" y="594" on="1"/>
        <pt x="369" y="0" on="1"/>
      </contour>
    </TTGlyph>
    <TTGlyph name="G" xMin="125" yMin="-16" xMax="1241" yMax="1382">
      <contour>
        <pt x="125" y="684" on="1"/>
        <pt x="125" y="850" on="0"/>
        <pt x="203" y="1106" on="0"/>
        <pt x="326" y="1255" on="0"/>
        <pt x="498" y="1350" on="0"/>
        <pt x="664" y="1382" on="0"/>
        <pt x="760" y="1382" on="1"/>
        <pt x="987" y="1382" on="0"/>
        <pt x="1190" y="1303" on="1"/>
        <pt x="1190" y="1128" on="1"/>
        <pt x="991" y="1210" on="0"/>
        <pt x="778" y="1210" on="1"/>
        <pt x="704" y="1210" on="0"/>
        <pt x="588" y="1192" on="0"/>
        <pt x="459" y="1126" on="0"/>
        <pt x="373" y="1016" on="0"/>
        <pt x="315" y="819" on="0"/>
        <pt x="315" y="549" on="0"/>
        <pt x="373" y="350" on="0"/>
        <pt x="459" y="240" on="0"/>
        <pt x="590" y="174" on="0"/>
        <pt x="709" y="156" on="0"/>
        <pt x="782" y="156" on="1"/>
        <pt x="917" y="156" on="0"/>
        <pt x="1057" y="195" on="1"/>
        <pt x="1057" y="580" on="1"/>
        <pt x="778" y="580" on="1"/>
        <pt x="778" y="758" on="1"/>
        <pt x="1241" y="758" on="1"/>
        <pt x="1241" y="92" on="1"/>
        <pt x="1014" y="-16" on="0"/>
        <pt x="765" y="-16" on="1"/>
        <pt x="762" y="-16" on="0"/>
        <pt x="760" y="-16" on="1"/>
        <pt x="664" y="-16" on="0"/>
        <pt x="498" y="16" on="0"/>
        <pt x="326" y="111" on="0"/>
        <pt x="203" y="262" on="0"/>
        <pt x="125" y="516" on="0"/>
      </contour>
    </TTGlyph>
    <TTGlyph name="H" xMin="178" yMin="0" xMax="1210" yMax="1366">
      <contour>
        <pt x="178" y="0" on="1"/>
        <pt x="178" y="1366" on="1"/>
        <pt x="367" y="1366" on="1"/>
        <pt x="367" y="772" on="1"/>
        <pt x="1022" y="772" on="1"/>
        <pt x="1022" y="1366" on="1"/>
        <pt x="1210" y="1366" on="1"/>
        <pt x="1210" y="0" on="1"/>
        <pt x="1022" y="0" on="1"/>
        <pt x="1022" y="594" on="1"/>
        <pt x="367" y="594" on="1"/>
        <pt x="367" y="0" on="1"/>
      </contour>
    </TTGlyph>
    <TTGlyph name="I" xMin="178" yMin="0" xMax="367" yMax="1366">
      <contour>
        <pt x="178" y="0" on="1"/>
        <pt x="178" y="1366" on="1"/>
        <pt x="367" y="1366" on="1"/>
        <pt x="367" y="0" on="1"/>
      </contour>
    </TTGlyph>
    <TTGlyph name="Iacute" xMin="178" yMin="0" xMax="528" yMax="1722">
      <contour>
        <pt x="178" y="0" on="1"/>
        <pt x="178" y="1366" on="1"/>
        <pt x="367" y="1366" on="1"/>
        <pt x="367" y="0" on="1"/>
      </contour>
      <contour>
        <pt x="217" y="1483" on="1"/>
        <pt x="344" y="1722" on="1"/>
        <pt x="528" y="1722" on="1"/>
        <pt x="334" y="1483" on="1"/>
      </contour>
    </TTGlyph>
    <TTGlyph name="Icircumflex" xMin="41" yMin="0" xMax="502" yMax="1733">
      <contour>
        <pt x="41" y="1483" on="1"/>
        <pt x="221" y="1733" on="1"/>
        <pt x="319" y="1733" on="1"/>
        <pt x="502" y="1483" on="1"/>
        <pt x="356" y="1483" on="1"/>
        <pt x="270" y="1616" on="1"/>
        <pt x="184" y="1483" on="1"/>
      </contour>
      <contour>
        <pt x="178" y="0" on="1"/>
        <pt x="367" y="0" on="1"/>
        <pt x="367" y="1366" on="1"/>
        <pt x="178" y="1366" on="1"/>
      </contour>
    </TTGlyph>
    <TTGlyph name="Idieresis" xMin="27" yMin="0" xMax="516" yMax="1657">
      <contour>
        <pt x="27" y="1483" on="1"/>
        <pt x="27" y="1657" on="1"/>
        <pt x="213" y="1657" on="1"/>
        <pt x="213" y="1483" on="1"/>
      </contour>
      <contour>
        <pt x="178" y="0" on="1"/>
        <pt x="367" y="0" on="1"/>
        <pt x="367" y="1366" on="1"/>
        <pt x="178" y="1366" on="1"/>
      </contour>
      <contour>
        <pt x="330" y="1483" on="1"/>
        <pt x="330" y="1657" on="1"/>
        <pt x="516" y="1657" on="1"/>
        <pt x="516" y="1483" on="1"/>
      </contour>
    </TTGlyph>
    <TTGlyph name="Igrave" xMin="14" yMin="0" xMax="367" yMax="1722">
      <contour>
        <pt x="14" y="1722" on="1"/>
        <pt x="199" y="1722" on="1"/>
        <pt x="326" y="1483" on="1"/>
        <pt x="209" y="1483" on="1"/>
      </contour>
      <contour>
        <pt x="178" y="0" on="1"/>
        <pt x="367" y="0" on="1"/>
        <pt x="367" y="1366" on="1"/>
        <pt x="178" y="1366" on="1"/>
      </contour>
    </TTGlyph>
    <TTGlyph name="J" xMin="61" yMin="-18" xMax="750" yMax="1366">
      <contour>
        <pt x="61" y="66" on="1"/>
        <pt x="61" y="264" on="1"/>
        <pt x="180" y="168" on="0"/>
        <pt x="330" y="168" on="1"/>
        <pt x="447" y="168" on="0"/>
        <pt x="561" y="266" on="0"/>
        <pt x="561" y="403" on="1"/>
        <pt x="561" y="1366" on="1"/>
        <pt x="750" y="1366" on="1"/>
        <pt x="750" y="416" on="1"/>
        <pt x="750" y="283" on="0"/>
        <pt x="670" y="98" on="0"/>
        <pt x="537" y="14" on="0"/>
        <pt x="416" y="-18" on="0"/>
        <pt x="348" y="-18" on="1"/>
        <pt x="190" y="-18" on="0"/>
      </contour>
    </TTGlyph>
    <TTGlyph name="K" xMin="178" yMin="0" xMax="1284" yMax="1366">
      <contour>
        <pt x="178" y="0" on="1"/>
        <pt x="178" y="1366" on="1"/>
        <pt x="367" y="1366" on="1"/>
        <pt x="367" y="705" on="1"/>
        <pt x="993" y="1366" on="1"/>
        <pt x="1233" y="1366" on="1"/>
        <pt x="653" y="748" on="1"/>
        <pt x="1284" y="0" on="1"/>
        <pt x="1049" y="0" on="1"/>
        <pt x="528" y="614" on="1"/>
        <pt x="367" y="442" on="1"/>
        <pt x="367" y="0" on="1"/>
      </contour>
    </TTGlyph>
    <TTGlyph name="L" xMin="178" yMin="0" xMax="1047" yMax="1366">
      <contour>
        <pt x="178" y="0" on="1"/>
        <pt x="178" y="1366" on="1"/>
        <pt x="367" y="1366" on="1"/>
        <pt x="367" y="178" on="1"/>
        <pt x="1047" y="178" on="1"/>
        <pt x="1047" y="0" on="1"/>
      </contour>
    </TTGlyph>
    <TTGlyph name="M" xMin="178" yMin="0" xMax="1487" yMax="1366">
      <contour>
        <pt x="178" y="0" on="1"/>
        <pt x="178" y="1366" on="1"/>
        <pt x="383" y="1366" on="1"/>
        <pt x="831" y="776" on="1"/>
        <pt x="1282" y="1366" on="1"/>
        <pt x="1487" y="1366" on="1"/>
        <pt x="1487" y="0" on="1"/>
        <pt x="1298" y="0" on="1"/>
        <pt x="1298" y="1077" on="1"/>
        <pt x="831" y="465" on="1"/>
        <pt x="367" y="1077" on="1"/>
        <pt x="367" y="0" on="1"/>
      </contour>
    </TTGlyph>
    <TTGlyph name="N" xMin="178" yMin="0" xMax="1350" yMax="1366">
      <contour>
        <pt x="178" y="0" on="1"/>
        <pt x="178" y="1366" on="1"/>
        <pt x="395" y="1366" on="1"/>
        <pt x="1159" y="279" on="1"/>
        <pt x="1159" y="1366" on="1"/>
        <pt x="1350" y="1366" on="1"/>
        <pt x="1350" y="0" on="1"/>
        <pt x="1139" y="0" on="1"/>
        <pt x="369" y="1094" on="1"/>
        <pt x="369" y="0" on="1"/>
      </contour>
    </TTGlyph>
    <TTGlyph name="Ntilde" xMin="178" yMin="0" xMax="1350" yMax="1691">
      <contour>
        <pt x="178" y="0" on="1"/>
        <pt x="178" y="1366" on="1"/>
        <pt x="395" y="1366" on="1"/>
        <pt x="1159" y="279" on="1"/>
        <pt x="1159" y="1366" on="1"/>
        <pt x="1350" y="1366" on="1"/>
        <pt x="1350" y="0" on="1"/>
        <pt x="1139" y="0" on="1"/>
        <pt x="369" y="1094" on="1"/>
        <pt x="369" y="0" on="1"/>
      </contour>
      <contour>
        <pt x="453" y="1481" on="1"/>
        <pt x="453" y="1616" on="1"/>
        <pt x="510" y="1684" on="0"/>
        <pt x="576" y="1690" on="1"/>
        <pt x="587" y="1691" on="0"/>
        <pt x="598" y="1691" on="1"/>
        <pt x="653" y="1691" on="0"/>
        <pt x="704" y="1665" on="1"/>
        <pt x="826" y="1604" on="1"/>
        <pt x="877" y="1580" on="0"/>
        <pt x="930" y="1580" on="1"/>
        <pt x="941" y="1580" on="0"/>
        <pt x="952" y="1581" on="1"/>
        <pt x="1018" y="1587" on="0"/>
        <pt x="1075" y="1655" on="1"/>
        <pt x="1075" y="1520" on="1"/>
        <pt x="1018" y="1452" on="0"/>
        <pt x="952" y="1446" on="1"/>
        <pt x="941" y="1445" on="0"/>
        <pt x="930" y="1445" on="1"/>
        <pt x="877" y="1445" on="0"/>
        <pt x="826" y="1470" on="1"/>
        <pt x="704" y="1530" on="1"/>
        <pt x="653" y="1556" on="0"/>
        <pt x="599" y="1556" on="1"/>
        <pt x="588" y="1556" on="0"/>
        <pt x="576" y="1554" on="1"/>
        <pt x="510" y="1548" on="0"/>
      </contour>
    </TTGlyph>
    <TTGlyph name="O" xMin="125" yMin="-16" xMax="1395" yMax="1384">
      <contour>
        <pt x="125" y="516" on="0"/>
        <pt x="125" y="852" on="0"/>
        <pt x="203" y="1106" on="0"/>
        <pt x="326" y="1257" on="0"/>
        <pt x="500" y="1352" on="0"/>
        <pt x="666" y="1384" on="0"/>
        <pt x="854" y="1384" on="0"/>
        <pt x="1020" y="1352" on="0"/>
        <pt x="1194" y="1257" on="0"/>
        <pt x="1317" y="1106" on="0"/>
        <pt x="1395" y="852" on="0"/>
        <pt x="1395" y="516" on="0"/>
        <pt x="1317" y="262" on="0"/>
        <pt x="1194" y="111" on="0"/>
        <pt x="1020" y="16" on="0"/>
        <pt x="854" y="-16" on="0"/>
        <pt x="666" y="-16" on="0"/>
        <pt x="500" y="16" on="0"/>
        <pt x="326" y="111" on="0"/>
        <pt x="203" y="262" on="0"/>
      </contour>
      <contour>
        <pt x="315" y="819" on="0"/>
        <pt x="315" y="549" on="0"/>
        <pt x="371" y="350" on="0"/>
        <pt x="453" y="240" on="0"/>
        <pt x="578" y="174" on="0"/>
        <pt x="688" y="156" on="0"/>
        <pt x="831" y="156" on="0"/>
        <pt x="942" y="174" on="0"/>
        <pt x="1067" y="240" on="0"/>
        <pt x="1149" y="350" on="0"/>
        <pt x="1204" y="549" on="0"/>
        <pt x="1204" y="819" on="0"/>
        <pt x="1149" y="1018" on="0"/>
        <pt x="1067" y="1128" on="0"/>
        <pt x="942" y="1194" on="0"/>
        <pt x="831" y="1212" on="0"/>
        <pt x="688" y="1212" on="0"/>
        <pt x="578" y="1194" on="0"/>
        <pt x="453" y="1128" on="0"/>
        <pt x="371" y="1018" on="0"/>
      </contour>
    </TTGlyph>
    <TTGlyph name="OE" xMin="125" yMin="-16" xMax="1923" yMax="1384">
      <contour>
        <pt x="125" y="516" on="0"/>
        <pt x="125" y="852" on="0"/>
        <pt x="203" y="1106" on="0"/>
        <pt x="326" y="1257" on="0"/>
        <pt x="500" y="1352" on="0"/>
        <pt x="666" y="1384" on="0"/>
        <pt x="760" y="1384" on="1"/>
        <pt x="912" y="1384" on="0"/>
        <pt x="1032" y="1339" on="1"/>
        <pt x="1032" y="1366" on="1"/>
        <pt x="1923" y="1366" on="1"/>
        <pt x="1923" y="1188" on="1"/>
        <pt x="1223" y="1188" on="1"/>
        <pt x="1223" y="772" on="1"/>
        <pt x="1839" y="772" on="1"/>
        <pt x="1839" y="594" on="1"/>
        <pt x="1223" y="594" on="1"/>
        <pt x="1223" y="178" on="1"/>
        <pt x="1923" y="178" on="1"/>
        <pt x="1923" y="0" on="1"/>
        <pt x="1032" y="0" on="1"/>
        <pt x="1032" y="29" on="1"/>
        <pt x="911" y="-16" on="0"/>
        <pt x="760" y="-16" on="1"/>
        <pt x="666" y="-16" on="0"/>
        <pt x="500" y="16" on="0"/>
        <pt x="326" y="111" on="0"/>
        <pt x="203" y="262" on="0"/>
      </contour>
      <contour>
        <pt x="315" y="819" on="0"/>
        <pt x="315" y="549" on="0"/>
        <pt x="371" y="350" on="0"/>
        <pt x="453" y="240" on="0"/>
        <pt x="578" y="174" on="0"/>
        <pt x="688" y="156" on="0"/>
        <pt x="760" y="156" on="1"/>
        <pt x="934" y="156" on="0"/>
        <pt x="1032" y="223" on="1"/>
        <pt x="1032" y="1145" on="1"/>
        <pt x="935" y="1212" on="0"/>
        <pt x="765" y="1212" on="1"/>
        <pt x="763" y="1212" on="0"/>
        <pt x="760" y="1212" on="1"/>
        <pt x="688" y="1212" on="0"/>
        <pt x="578" y="1194" on="0"/>
        <pt x="453" y="1128" on="0"/>
        <pt x="371" y="1018" on="0"/>
      </contour>
    </TTGlyph>
    <TTGlyph name="Oacute" xMin="125" yMin="-16" xMax="1395" yMax="1722">
      <contour>
        <pt x="125" y="516" on="0"/>
        <pt x="125" y="852" on="0"/>
        <pt x="203" y="1106" on="0"/>
        <pt x="326" y="1257" on="0"/>
        <pt x="500" y="1352" on="0"/>
        <pt x="666" y="1384" on="0"/>
        <pt x="854" y="1384" on="0"/>
        <pt x="1020" y="1352" on="0"/>
        <pt x="1194" y="1257" on="0"/>
        <pt x="1317" y="1106" on="0"/>
        <pt x="1395" y="852" on="0"/>
        <pt x="1395" y="516" on="0"/>
        <pt x="1317" y="262" on="0"/>
        <pt x="1194" y="111" on="0"/>
        <pt x="1020" y="16" on="0"/>
        <pt x="854" y="-16" on="0"/>
        <pt x="666" y="-16" on="0"/>
        <pt x="500" y="16" on="0"/>
        <pt x="326" y="111" on="0"/>
        <pt x="203" y="262" on="0"/>
      </contour>
      <contour>
        <pt x="315" y="819" on="0"/>
        <pt x="315" y="549" on="0"/>
        <pt x="371" y="350" on="0"/>
        <pt x="453" y="240" on="0"/>
        <pt x="578" y="174" on="0"/>
        <pt x="688" y="156" on="0"/>
        <pt x="831" y="156" on="0"/>
        <pt x="942" y="174" on="0"/>
        <pt x="1067" y="240" on="0"/>
        <pt x="1149" y="350" on="0"/>
        <pt x="1204" y="549" on="0"/>
        <pt x="1204" y="819" on="0"/>
        <pt x="1149" y="1018" on="0"/>
        <pt x="1067" y="1128" on="0"/>
        <pt x="942" y="1194" on="0"/>
        <pt x="831" y="1212" on="0"/>
        <pt x="688" y="1212" on="0"/>
        <pt x="578" y="1194" on="0"/>
        <pt x="453" y="1128" on="0"/>
        <pt x="371" y="1018" on="0"/>
      </contour>
      <contour>
        <pt x="684" y="1483" on="1"/>
        <pt x="811" y="1722" on="1"/>
        <pt x="995" y="1722" on="1"/>
        <pt x="801" y="1483" on="1"/>
      </contour>
    </TTGlyph>
    <TTGlyph name="Ocircumflex" xMin="125" yMin="-16" xMax="1395" yMax="1733">
      <contour>
        <pt x="125" y="516" on="0"/>
        <pt x="125" y="852" on="0"/>
        <pt x="203" y="1106" on="0"/>
        <pt x="326" y="1257" on="0"/>
        <pt x="500" y="1352" on="0"/>
        <pt x="666" y="1384" on="0"/>
        <pt x="854" y="1384" on="0"/>
        <pt x="1020" y="1352" on="0"/>
        <pt x="1194" y="1257" on="0"/>
        <pt x="1317" y="1106" on="0"/>
        <pt x="1395" y="852" on="0"/>
        <pt x="1395" y="516" on="0"/>
        <pt x="1317" y="262" on="0"/>
        <pt x="1194" y="111" on="0"/>
        <pt x="1020" y="16" on="0"/>
        <pt x="854" y="-16" on="0"/>
        <pt x="666" y="-16" on="0"/>
        <pt x="500" y="16" on="0"/>
        <pt x="326" y="111" on="0"/>
        <pt x="203" y="262" on="0"/>
      </contour>
      <contour>
        <pt x="315" y="819" on="0"/>
        <pt x="315" y="549" on="0"/>
        <pt x="371" y="350" on="0"/>
        <pt x="453" y="240" on="0"/>
        <pt x="578" y="174" on="0"/>
        <pt x="688" y="156" on="0"/>
        <pt x="831" y="156" on="0"/>
        <pt x="942" y="174" on="0"/>
        <pt x="1067" y="240" on="0"/>
        <pt x="1149" y="350" on="0"/>
        <pt x="1204" y="549" on="0"/>
        <pt x="1204" y="819" on="0"/>
        <pt x="1149" y="1018" on="0"/>
        <pt x="1067" y="1128" on="0"/>
        <pt x="942" y="1194" on="0"/>
        <pt x="831" y="1212" on="0"/>
        <pt x="688" y="1212" on="0"/>
        <pt x="578" y="1194" on="0"/>
        <pt x="453" y="1128" on="0"/>
        <pt x="371" y="1018" on="0"/>
      </contour>
      <contour>
        <pt x="528" y="1483" on="1"/>
        <pt x="709" y="1733" on="1"/>
        <pt x="807" y="1733" on="1"/>
        <pt x="989" y="1483" on="1"/>
        <pt x="844" y="1483" on="1"/>
        <pt x="758" y="1616" on="1"/>
        <pt x="672" y="1483" on="1"/>
      </contour>
    </TTGlyph>
    <TTGlyph name="Odieresis" xMin="125" yMin="-16" xMax="1395" yMax="1657">
      <contour>
        <pt x="125" y="516" on="0"/>
        <pt x="125" y="852" on="0"/>
        <pt x="203" y="1106" on="0"/>
        <pt x="326" y="1257" on="0"/>
        <pt x="500" y="1352" on="0"/>
        <pt x="666" y="1384" on="0"/>
        <pt x="854" y="1384" on="0"/>
        <pt x="1020" y="1352" on="0"/>
        <pt x="1194" y="1257" on="0"/>
        <pt x="1317" y="1106" on="0"/>
        <pt x="1395" y="852" on="0"/>
        <pt x="1395" y="516" on="0"/>
        <pt x="1317" y="262" on="0"/>
        <pt x="1194" y="111" on="0"/>
        <pt x="1020" y="16" on="0"/>
        <pt x="854" y="-16" on="0"/>
        <pt x="666" y="-16" on="0"/>
        <pt x="500" y="16" on="0"/>
        <pt x="326" y="111" on="0"/>
        <pt x="203" y="262" on="0"/>
      </contour>
      <contour>
        <pt x="315" y="819" on="0"/>
        <pt x="315" y="549" on="0"/>
        <pt x="371" y="350" on="0"/>
        <pt x="453" y="240" on="0"/>
        <pt x="578" y="174" on="0"/>
        <pt x="688" y="156" on="0"/>
        <pt x="831" y="156" on="0"/>
        <pt x="942" y="174" on="0"/>
        <pt x="1067" y="240" on="0"/>
        <pt x="1149" y="350" on="0"/>
        <pt x="1204" y="549" on="0"/>
        <pt x="1204" y="819" on="0"/>
        <pt x="1149" y="1018" on="0"/>
        <pt x="1067" y="1128" on="0"/>
        <pt x="942" y="1194" on="0"/>
        <pt x="831" y="1212" on="0"/>
        <pt x="688" y="1212" on="0"/>
        <pt x="578" y="1194" on="0"/>
        <pt x="453" y="1128" on="0"/>
        <pt x="371" y="1018" on="0"/>
      </contour>
      <contour>
        <pt x="514" y="1483" on="1"/>
        <pt x="514" y="1657" on="1"/>
        <pt x="700" y="1657" on="1"/>
        <pt x="700" y="1483" on="1"/>
      </contour>
      <contour>
        <pt x="817" y="1483" on="1"/>
        <pt x="817" y="1657" on="1"/>
        <pt x="1004" y="1657" on="1"/>
        <pt x="1004" y="1483" on="1"/>
      </contour>
    </TTGlyph>
    <TTGlyph name="Ograve" xMin="125" yMin="-16" xMax="1395" yMax="1722">
      <contour>
        <pt x="125" y="516" on="0"/>
        <pt x="125" y="852" on="0"/>
        <pt x="203" y="1106" on="0"/>
        <pt x="326" y="1257" on="0"/>
        <pt x="500" y="1352" on="0"/>
        <pt x="666" y="1384" on="0"/>
        <pt x="854" y="1384" on="0"/>
        <pt x="1020" y="1352" on="0"/>
        <pt x="1194" y="1257" on="0"/>
        <pt x="1317" y="1106" on="0"/>
        <pt x="1395" y="852" on="0"/>
        <pt x="1395" y="516" on="0"/>
        <pt x="1317" y="262" on="0"/>
        <pt x="1194" y="111" on="0"/>
        <pt x="1020" y="16" on="0"/>
        <pt x="854" y="-16" on="0"/>
        <pt x="666" y="-16" on="0"/>
        <pt x="500" y="16" on="0"/>
        <pt x="326" y="111" on="0"/>
        <pt x="203" y="262" on="0"/>
      </contour>
      <contour>
        <pt x="315" y="819" on="0"/>
        <pt x="315" y="549" on="0"/>
        <pt x="371" y="350" on="0"/>
        <pt x="453" y="240" on="0"/>
        <pt x="578" y="174" on="0"/>
        <pt x="688" y="156" on="0"/>
        <pt x="831" y="156" on="0"/>
        <pt x="942" y="174" on="0"/>
        <pt x="1067" y="240" on="0"/>
        <pt x="1149" y="350" on="0"/>
        <pt x="1204" y="549" on="0"/>
        <pt x="1204" y="819" on="0"/>
        <pt x="1149" y="1018" on="0"/>
        <pt x="1067" y="1128" on="0"/>
        <pt x="942" y="1194" on="0"/>
        <pt x="831" y="1212" on="0"/>
        <pt x="688" y="1212" on="0"/>
        <pt x="578" y="1194" on="0"/>
        <pt x="453" y="1128" on="0"/>
        <pt x="371" y="1018" on="0"/>
      </contour>
      <contour>
        <pt x="524" y="1722" on="1"/>
        <pt x="709" y="1722" on="1"/>
        <pt x="836" y="1483" on="1"/>
        <pt x="719" y="1483" on="1"/>
      </contour>
    </TTGlyph>
    <TTGlyph name="Oslash" xMin="88" yMin="-16" xMax="1432" yMax="1384">
      <contour>
        <pt x="88" y="0" on="1"/>
        <pt x="256" y="201" on="1"/>
        <pt x="125" y="375" on="0"/>
        <pt x="125" y="684" on="1"/>
        <pt x="125" y="852" on="0"/>
        <pt x="203" y="1106" on="0"/>
        <pt x="326" y="1257" on="0"/>
        <pt x="500" y="1352" on="0"/>
        <pt x="666" y="1384" on="0"/>
        <pt x="760" y="1384" on="1"/>
        <pt x="1004" y="1384" on="0"/>
        <pt x="1159" y="1272" on="1"/>
        <pt x="1241" y="1366" on="1"/>
        <pt x="1432" y="1366" on="1"/>
        <pt x="1264" y="1167" on="1"/>
        <pt x="1395" y="993" on="0"/>
        <pt x="1395" y="684" on="1"/>
        <pt x="1395" y="516" on="0"/>
        <pt x="1317" y="262" on="0"/>
        <pt x="1194" y="111" on="0"/>
        <pt x="1020" y="16" on="0"/>
        <pt x="854" y="-16" on="0"/>
        <pt x="760" y="-16" on="1"/>
        <pt x="516" y="-16" on="0"/>
        <pt x="360" y="96" on="1"/>
        <pt x="279" y="0" on="1"/>
      </contour>
      <contour>
        <pt x="315" y="684" on="1"/>
        <pt x="315" y="475" on="0"/>
        <pt x="379" y="348" on="1"/>
        <pt x="1044" y="1137" on="1"/>
        <pt x="945" y="1212" on="0"/>
        <pt x="765" y="1212" on="1"/>
        <pt x="762" y="1212" on="0"/>
        <pt x="760" y="1212" on="1"/>
        <pt x="688" y="1212" on="0"/>
        <pt x="578" y="1194" on="0"/>
        <pt x="453" y="1128" on="0"/>
        <pt x="371" y="1018" on="0"/>
        <pt x="315" y="819" on="0"/>
      </contour>
      <contour>
        <pt x="475" y="231" on="1"/>
        <pt x="572" y="156" on="0"/>
        <pt x="755" y="156" on="1"/>
        <pt x="758" y="156" on="0"/>
        <pt x="760" y="156" on="1"/>
        <pt x="832" y="156" on="0"/>
        <pt x="942" y="174" on="0"/>
        <pt x="1067" y="240" on="0"/>
        <pt x="1149" y="350" on="0"/>
        <pt x="1204" y="549" on="0"/>
        <pt x="1204" y="684" on="1"/>
        <pt x="1204" y="893" on="0"/>
        <pt x="1141" y="1020" on="1"/>
      </contour>
    </TTGlyph>
    <TTGlyph name="Otilde" xMin="125" yMin="-16" xMax="1395" yMax="1691">
      <contour>
        <pt x="125" y="516" on="0"/>
        <pt x="125" y="852" on="0"/>
        <pt x="203" y="1106" on="0"/>
        <pt x="326" y="1257" on="0"/>
        <pt x="500" y="1352" on="0"/>
        <pt x="666" y="1384" on="0"/>
        <pt x="854" y="1384" on="0"/>
        <pt x="1020" y="1352" on="0"/>
        <pt x="1194" y="1257" on="0"/>
        <pt x="1317" y="1106" on="0"/>
        <pt x="1395" y="852" on="0"/>
        <pt x="1395" y="516" on="0"/>
        <pt x="1317" y="262" on="0"/>
        <pt x="1194" y="111" on="0"/>
        <pt x="1020" y="16" on="0"/>
        <pt x="854" y="-16" on="0"/>
        <pt x="666" y="-16" on="0"/>
        <pt x="500" y="16" on="0"/>
        <pt x="326" y="111" on="0"/>
        <pt x="203" y="262" on="0"/>
      </contour>
      <contour>
        <pt x="315" y="819" on="0"/>
        <pt x="315" y="549" on="0"/>
        <pt x="371" y="350" on="0"/>
        <pt x="453" y="240" on="0"/>
        <pt x="578" y="174" on="0"/>
        <pt x="688" y="156" on="0"/>
        <pt x="831" y="156" on="0"/>
        <pt x="942" y="174" on="0"/>
        <pt x="1067" y="240" on="0"/>
        <pt x="1149" y="350" on="0"/>
        <pt x="1204" y="549" on="0"/>
        <pt x="1204" y="819" on="0"/>
        <pt x="1149" y="1018" on="0"/>
        <pt x="1067" y="1128" on="0"/>
        <pt x="942" y="1194" on="0"/>
        <pt x="831" y="1212" on="0"/>
        <pt x="688" y="1212" on="0"/>
        <pt x="578" y="1194" on="0"/>
        <pt x="453" y="1128" on="0"/>
        <pt x="371" y="1018" on="0"/>
      </contour>
      <contour>
        <pt x="449" y="1481" on="1"/>
        <pt x="449" y="1616" on="1"/>
        <pt x="506" y="1684" on="0"/>
        <pt x="572" y="1690" on="1"/>
        <pt x="583" y="1691" on="0"/>
        <pt x="594" y="1691" on="1"/>
        <pt x="649" y="1691" on="0"/>
        <pt x="700" y="1665" on="1"/>
        <pt x="822" y="1604" on="1"/>
        <pt x="873" y="1580" on="0"/>
        <pt x="926" y="1580" on="1"/>
        <pt x="937" y="1580" on="0"/>
        <pt x="948" y="1581" on="1"/>
        <pt x="1014" y="1587" on="0"/>
        <pt x="1071" y="1655" on="1"/>
        <pt x="1071" y="1520" on="1"/>
        <pt x="1014" y="1452" on="0"/>
        <pt x="948" y="1446" on="1"/>
        <pt x="937" y="1445" on="0"/>
        <pt x="926" y="1445" on="1"/>
        <pt x="873" y="1445" on="0"/>
        <pt x="822" y="1470" on="1"/>
        <pt x="700" y="1530" on="1"/>
        <pt x="649" y="1556" on="0"/>
        <pt x="595" y="1556" on="1"/>
        <pt x="584" y="1556" on="0"/>
        <pt x="572" y="1554" on="1"/>
        <pt x="506" y="1548" on="0"/>
      </contour>
    </TTGlyph>
    <TTGlyph name="P" xMin="176" yMin="0" xMax="1145" yMax="1366">
      <contour>
        <pt x="176" y="0" on="1"/>
        <pt x="176" y="1366" on="1"/>
        <pt x="668" y="1366" on="1"/>
        <pt x="895" y="1366" on="0"/>
        <pt x="1145" y="1141" on="0"/>
        <pt x="1145" y="731" on="0"/>
        <pt x="895" y="506" on="0"/>
        <pt x="668" y="506" on="1"/>
        <pt x="367" y="506" on="1"/>
        <pt x="367" y="0" on="1"/>
      </contour>
      <contour>
        <pt x="367" y="674" on="1"/>
        <pt x="651" y="674" on="1"/>
        <pt x="833" y="674" on="0"/>
        <pt x="956" y="815" on="0"/>
        <pt x="956" y="1053" on="0"/>
        <pt x="834" y="1194" on="0"/>
        <pt x="651" y="1194" on="1"/>
        <pt x="367" y="1194" on="1"/>
      </contour>
    </TTGlyph>
    <TTGlyph name="Q" xMin="125" yMin="-360" xMax="1395" yMax="1382">
      <contour>
        <pt x="125" y="684" on="1"/>
        <pt x="125" y="850" on="0"/>
        <pt x="203" y="1106" on="0"/>
        <pt x="326" y="1255" on="0"/>
        <pt x="500" y="1350" on="0"/>
        <pt x="666" y="1382" on="0"/>
        <pt x="760" y="1382" on="1"/>
        <pt x="856" y="1382" on="0"/>
        <pt x="1022" y="1350" on="0"/>
        <pt x="1194" y="1255" on="0"/>
        <pt x="1317" y="1106" on="0"/>
        <pt x="1395" y="850" on="0"/>
        <pt x="1395" y="684" on="1"/>
        <pt x="1395" y="502" on="0"/>
        <pt x="1305" y="231" on="0"/>
        <pt x="1147" y="78" on="0"/>
        <pt x="971" y="2" on="0"/>
        <pt x="864" y="-10" on="1"/>
        <pt x="864" y="-92" on="0"/>
        <pt x="973" y="-215" on="0"/>
        <pt x="1069" y="-215" on="1"/>
        <pt x="1069" y="-360" on="1"/>
        <pt x="899" y="-360" on="0"/>
        <pt x="678" y="-158" on="0"/>
        <pt x="678" y="-12" on="1"/>
        <pt x="567" y="-2" on="0"/>
        <pt x="385" y="70" on="0"/>
        <pt x="219" y="221" on="0"/>
        <pt x="125" y="496" on="0"/>
      </contour>
      <contour>
        <pt x="315" y="819" on="0"/>
        <pt x="315" y="549" on="0"/>
        <pt x="371" y="350" on="0"/>
        <pt x="453" y="240" on="0"/>
        <pt x="578" y="174" on="0"/>
        <pt x="690" y="156" on="0"/>
        <pt x="829" y="156" on="0"/>
        <pt x="942" y="174" on="0"/>
        <pt x="1067" y="240" on="0"/>
        <pt x="1151" y="350" on="0"/>
        <pt x="1206" y="549" on="0"/>
        <pt x="1206" y="819" on="0"/>
        <pt x="1151" y="1016" on="0"/>
        <pt x="1069" y="1126" on="0"/>
        <pt x="942" y="1192" on="0"/>
        <pt x="831" y="1210" on="0"/>
        <pt x="688" y="1210" on="0"/>
        <pt x="578" y="1192" on="0"/>
        <pt x="453" y="1126" on="0"/>
        <pt x="371" y="1016" on="0"/>
      </contour>
    </TTGlyph>
    <TTGlyph name="R" xMin="178" yMin="0" xMax="1231" yMax="1366">
      <contour>
        <pt x="178" y="0" on="1"/>
        <pt x="178" y="1366" on="1"/>
        <pt x="682" y="1366" on="1"/>
        <pt x="911" y="1366" on="0"/>
        <pt x="1174" y="1151" on="0"/>
        <pt x="1174" y="952" on="1"/>
        <pt x="1174" y="784" on="0"/>
        <pt x="999" y="586" on="0"/>
        <pt x="868" y="549" on="1"/>
        <pt x="1231" y="0" on="1"/>
        <pt x="1006" y="0" on="1"/>
        <pt x="676" y="518" on="1"/>
        <pt x="369" y="518" on="1"/>
        <pt x="369" y="0" on="1"/>
      </contour>
      <contour>
        <pt x="369" y="698" on="1"/>
        <pt x="674" y="698" on="1"/>
        <pt x="852" y="698" on="0"/>
        <pt x="983" y="836" on="0"/>
        <pt x="983" y="946" on="1"/>
        <pt x="983" y="1196" on="0"/>
        <pt x="666" y="1196" on="1"/>
        <pt x="369" y="1196" on="1"/>
      </contour>
    </TTGlyph>
    <TTGlyph name="S" xMin="125" yMin="-16" xMax="1042" yMax="1382">
      <contour>
        <pt x="125" y="993" on="1"/>
        <pt x="125" y="1155" on="0"/>
        <pt x="358" y="1382" on="0"/>
        <pt x="602" y="1382" on="1"/>
        <pt x="786" y="1382" on="0"/>
        <pt x="954" y="1296" on="1"/>
        <pt x="954" y="1108" on="1"/>
        <pt x="804" y="1198" on="0"/>
        <pt x="625" y="1198" on="1"/>
        <pt x="315" y="1198" on="0"/>
        <pt x="315" y="993" on="1"/>
        <pt x="315" y="938" on="0"/>
        <pt x="424" y="856" on="0"/>
        <pt x="584" y="807" on="0"/>
        <pt x="774" y="729" on="0"/>
        <pt x="934" y="641" on="0"/>
        <pt x="1042" y="471" on="0"/>
        <pt x="1042" y="358" on="1"/>
        <pt x="1042" y="182" on="0"/>
        <pt x="780" y="-16" on="0"/>
        <pt x="549" y="-16" on="1"/>
        <pt x="344" y="-16" on="0"/>
        <pt x="143" y="84" on="1"/>
        <pt x="143" y="281" on="1"/>
        <pt x="333" y="166" on="0"/>
        <pt x="532" y="166" on="1"/>
        <pt x="851" y="166" on="0"/>
        <pt x="852" y="358" on="1"/>
        <pt x="852" y="440" on="0"/>
        <pt x="798" y="498" on="1"/>
        <pt x="744" y="556" on="0"/>
        <pt x="664" y="582" on="1"/>
        <pt x="488" y="641" on="1"/>
        <pt x="392" y="674" on="0"/>
        <pt x="233" y="743" on="0"/>
        <pt x="125" y="889" on="0"/>
      </contour>
    </TTGlyph>
    <TTGlyph name="T" xMin="25" yMin="0" xMax="1137" yMax="1366">
      <contour>
        <pt x="25" y="1188" on="1"/>
        <pt x="25" y="1366" on="1"/>
        <pt x="1137" y="1366" on="1"/>
        <pt x="1137" y="1188" on="1"/>
        <pt x="674" y="1188" on="1"/>
        <pt x="674" y="0" on="1"/>
        <pt x="485" y="0" on="1"/>
        <pt x="485" y="1188" on="1"/>
      </contour>
    </TTGlyph>
    <TTGlyph name="Thorn" xMin="176" yMin="0" xMax="1075" yMax="1366">
      <contour>
        <pt x="176" y="0" on="1"/>
        <pt x="176" y="1366" on="1"/>
        <pt x="367" y="1366" on="1"/>
        <pt x="367" y="1161" on="1"/>
        <pt x="598" y="1161" on="1"/>
        <pt x="825" y="1161" on="0"/>
        <pt x="1075" y="936" on="0"/>
        <pt x="1075" y="526" on="0"/>
        <pt x="825" y="301" on="0"/>
        <pt x="598" y="301" on="1"/>
        <pt x="367" y="301" on="1"/>
        <pt x="367" y="0" on="1"/>
      </contour>
      <contour>
        <pt x="367" y="469" on="1"/>
        <pt x="582" y="469" on="1"/>
        <pt x="764" y="469" on="0"/>
        <pt x="887" y="610" on="0"/>
        <pt x="887" y="729" on="1"/>
        <pt x="887" y="731" on="1"/>
        <pt x="887" y="733" on="1"/>
        <pt x="887" y="852" on="0"/>
        <pt x="764" y="993" on="0"/>
        <pt x="582" y="993" on="1"/>
        <pt x="367" y="993" on="1"/>
      </contour>
    </TTGlyph>
    <TTGlyph name="U" xMin="178" yMin="-18" xMax="1296" yMax="1366">
      <contour>
        <pt x="178" y="563" on="1"/>
        <pt x="178" y="1366" on="1"/>
        <pt x="369" y="1366" on="1"/>
        <pt x="369" y="547" on="1"/>
        <pt x="369" y="346" on="0"/>
        <pt x="549" y="154" on="0"/>
        <pt x="926" y="154" on="0"/>
        <pt x="1106" y="346" on="0"/>
        <pt x="1106" y="547" on="1"/>
        <pt x="1106" y="1366" on="1"/>
        <pt x="1296" y="1366" on="1"/>
        <pt x="1296" y="563" on="1"/>
        <pt x="1296" y="287" on="0"/>
        <pt x="1004" y="-18" on="0"/>
        <pt x="471" y="-18" on="0"/>
        <pt x="178" y="287" on="0"/>
      </contour>
    </TTGlyph>
    <TTGlyph name="Uacute" xMin="178" yMin="-18" xMax="1296" yMax="1722">
      <contour>
        <pt x="178" y="563" on="1"/>
        <pt x="178" y="1366" on="1"/>
        <pt x="369" y="1366" on="1"/>
        <pt x="369" y="547" on="1"/>
        <pt x="369" y="346" on="0"/>
        <pt x="549" y="154" on="0"/>
        <pt x="926" y="154" on="0"/>
        <pt x="1106" y="346" on="0"/>
        <pt x="1106" y="547" on="1"/>
        <pt x="1106" y="1366" on="1"/>
        <pt x="1296" y="1366" on="1"/>
        <pt x="1296" y="563" on="1"/>
        <pt x="1296" y="287" on="0"/>
        <pt x="1004" y="-18" on="0"/>
        <pt x="471" y="-18" on="0"/>
        <pt x="178" y="287" on="0"/>
      </contour>
      <contour>
        <pt x="666" y="1483" on="1"/>
        <pt x="793" y="1722" on="1"/>
        <pt x="977" y="1722" on="1"/>
        <pt x="782" y="1483" on="1"/>
      </contour>
    </TTGlyph>
    <TTGlyph name="Ucircumflex" xMin="178" yMin="-18" xMax="1296" yMax="1733">
      <contour>
        <pt x="178" y="563" on="1"/>
        <pt x="178" y="1366" on="1"/>
        <pt x="369" y="1366" on="1"/>
        <pt x="369" y="547" on="1"/>
        <pt x="369" y="346" on="0"/>
        <pt x="549" y="154" on="0"/>
        <pt x="926" y="154" on="0"/>
        <pt x="1106" y="346" on="0"/>
        <pt x="1106" y="547" on="1"/>
        <pt x="1106" y="1366" on="1"/>
        <pt x="1296" y="1366" on="1"/>
        <pt x="1296" y="563" on="1"/>
        <pt x="1296" y="287" on="0"/>
        <pt x="1004" y="-18" on="0"/>
        <pt x="471" y="-18" on="0"/>
        <pt x="178" y="287" on="0"/>
      </contour>
      <contour>
        <pt x="506" y="1483" on="1"/>
        <pt x="686" y="1733" on="1"/>
        <pt x="784" y="1733" on="1"/>
        <pt x="967" y="1483" on="1"/>
        <pt x="821" y="1483" on="1"/>
        <pt x="735" y="1616" on="1"/>
        <pt x="649" y="1483" on="1"/>
      </contour>
    </TTGlyph>
    <TTGlyph name="Udieresis" xMin="178" yMin="-18" xMax="1296" yMax="1657">
      <contour>
        <pt x="178" y="563" on="1"/>
        <pt x="178" y="1366" on="1"/>
        <pt x="369" y="1366" on="1"/>
        <pt x="369" y="547" on="1"/>
        <pt x="369" y="346" on="0"/>
        <pt x="549" y="154" on="0"/>
        <pt x="926" y="154" on="0"/>
        <pt x="1106" y="346" on="0"/>
        <pt x="1106" y="547" on="1"/>
        <pt x="1106" y="1366" on="1"/>
        <pt x="1296" y="1366" on="1"/>
        <pt x="1296" y="563" on="1"/>
        <pt x="1296" y="287" on="0"/>
        <pt x="1004" y="-18" on="0"/>
        <pt x="471" y="-18" on="0"/>
        <pt x="178" y="287" on="0"/>
      </contour>
      <contour>
        <pt x="492" y="1483" on="1"/>
        <pt x="492" y="1657" on="1"/>
        <pt x="678" y="1657" on="1"/>
        <pt x="678" y="1483" on="1"/>
      </contour>
      <contour>
        <pt x="795" y="1483" on="1"/>
        <pt x="795" y="1657" on="1"/>
        <pt x="981" y="1657" on="1"/>
        <pt x="981" y="1483" on="1"/>
      </contour>
    </TTGlyph>
    <TTGlyph name="Ugrave" xMin="178" yMin="-18" xMax="1296" yMax="1722">
      <contour>
        <pt x="178" y="563" on="1"/>
        <pt x="178" y="1366" on="1"/>
        <pt x="369" y="1366" on="1"/>
        <pt x="369" y="547" on="1"/>
        <pt x="369" y="346" on="0"/>
        <pt x="549" y="154" on="0"/>
        <pt x="926" y="154" on="0"/>
        <pt x="1106" y="346" on="0"/>
        <pt x="1106" y="547" on="1"/>
        <pt x="1106" y="1366" on="1"/>
        <pt x="1296" y="1366" on="1"/>
        <pt x="1296" y="563" on="1"/>
        <pt x="1296" y="287" on="0"/>
        <pt x="1004" y="-18" on="0"/>
        <pt x="471" y="-18" on="0"/>
        <pt x="178" y="287" on="0"/>
      </contour>
      <contour>
        <pt x="498" y="1722" on="1"/>
        <pt x="682" y="1722" on="1"/>
        <pt x="809" y="1483" on="1"/>
        <pt x="692" y="1483" on="1"/>
      </contour>
    </TTGlyph>
    <TTGlyph name="V" xMin="25" yMin="0" xMax="1264" yMax="1366">
      <contour>
        <pt x="25" y="1366" on="1"/>
        <pt x="227" y="1366" on="1"/>
        <pt x="643" y="240" on="1"/>
        <pt x="1061" y="1366" on="1"/>
        <pt x="1264" y="1366" on="1"/>
        <pt x="739" y="0" on="1"/>
        <pt x="549" y="0" on="1"/>
      </contour>
    </TTGlyph>
    <TTGlyph name="W" xMin="25" yMin="0" xMax="1931" yMax="1366">
      <contour>
        <pt x="25" y="1366" on="1"/>
        <pt x="223" y="1366" on="1"/>
        <pt x="561" y="276" on="1"/>
        <pt x="897" y="1366" on="1"/>
        <pt x="1059" y="1366" on="1"/>
        <pt x="1397" y="276" on="1"/>
        <pt x="1733" y="1366" on="1"/>
        <pt x="1931" y="1366" on="1"/>
        <pt x="1493" y="0" on="1"/>
        <pt x="1298" y="0" on="1"/>
        <pt x="979" y="1026" on="1"/>
        <pt x="657" y="0" on="1"/>
        <pt x="463" y="0" on="1"/>
      </contour>
    </TTGlyph>
    <TTGlyph name="X" xMin="25" yMin="0" xMax="1229" yMax="1366">
      <contour>
        <pt x="25" y="0" on="1"/>
        <pt x="514" y="684" on="1"/>
        <pt x="37" y="1366" on="1"/>
        <pt x="268" y="1366" on="1"/>
        <pt x="627" y="856" on="1"/>
        <pt x="985" y="1366" on="1"/>
        <pt x="1217" y="1366" on="1"/>
        <pt x="733" y="702" on="1"/>
        <pt x="1229" y="0" on="1"/>
        <pt x="995" y="0" on="1"/>
        <pt x="627" y="526" on="1"/>
        <pt x="256" y="0" on="1"/>
      </contour>
    </TTGlyph>
    <TTGlyph name="Y" xMin="25" yMin="0" xMax="1251" yMax="1366">
      <contour>
        <pt x="25" y="1366" on="1"/>
        <pt x="254" y="1366" on="1"/>
        <pt x="637" y="807" on="1"/>
        <pt x="1020" y="1366" on="1"/>
        <pt x="1251" y="1366" on="1"/>
        <pt x="731" y="612" on="1"/>
        <pt x="731" y="0" on="1"/>
        <pt x="543" y="0" on="1"/>
        <pt x="543" y="610" on="1"/>
      </contour>
    </TTGlyph>
    <TTGlyph name="Yacute" xMin="25" yMin="0" xMax="1251" yMax="1722">
      <contour>
        <pt x="25" y="1366" on="1"/>
        <pt x="254" y="1366" on="1"/>
        <pt x="637" y="807" on="1"/>
        <pt x="1020" y="1366" on="1"/>
        <pt x="1251" y="1366" on="1"/>
        <pt x="731" y="612" on="1"/>
        <pt x="731" y="0" on="1"/>
        <pt x="543" y="0" on="1"/>
        <pt x="543" y="610" on="1"/>
      </contour>
      <contour>
        <pt x="561" y="1483" on="1"/>
        <pt x="688" y="1722" on="1"/>
        <pt x="872" y="1722" on="1"/>
        <pt x="678" y="1483" on="1"/>
      </contour>
    </TTGlyph>
    <TTGlyph name="Ydieresis" xMin="25" yMin="0" xMax="1251" yMax="1657">
      <contour>
        <pt x="25" y="1366" on="1"/>
        <pt x="254" y="1366" on="1"/>
        <pt x="637" y="807" on="1"/>
        <pt x="1020" y="1366" on="1"/>
        <pt x="1251" y="1366" on="1"/>
        <pt x="731" y="612" on="1"/>
        <pt x="731" y="0" on="1"/>
        <pt x="543" y="0" on="1"/>
        <pt x="543" y="610" on="1"/>
      </contour>
      <contour>
        <pt x="393" y="1483" on="1"/>
        <pt x="393" y="1657" on="1"/>
        <pt x="580" y="1657" on="1"/>
        <pt x="580" y="1483" on="1"/>
      </contour>
      <contour>
        <pt x="696" y="1483" on="1"/>
        <pt x="696" y="1657" on="1"/>
        <pt x="883" y="1657" on="1"/>
        <pt x="883" y="1483" on="1"/>
      </contour>
    </TTGlyph>
    <TTGlyph name="Z" xMin="131" yMin="0" xMax="1098" yMax="1366">
      <contour>
        <pt x="131" y="0" on="1"/>
        <pt x="131" y="166" on="1"/>
        <pt x="852" y="1176" on="1"/>
        <pt x="152" y="1176" on="1"/>
        <pt x="152" y="1366" on="1"/>
        <pt x="1098" y="1366" on="1"/>
        <pt x="1098" y="1196" on="1"/>
        <pt x="381" y="188" on="1"/>
        <pt x="1098" y="188" on="1"/>
        <pt x="1098" y="0" on="1"/>
      </contour>
    </TTGlyph>
    <TTGlyph name="a" xMin="115" yMin="-16" xMax="971" yMax="1038">
      <contour>
        <pt x="115" y="322" on="1"/>
        <pt x="115" y="474" on="0"/>
        <pt x="371" y="645" on="0"/>
        <pt x="596" y="645" on="1"/>
        <pt x="692" y="645" on="0"/>
        <pt x="782" y="633" on="1"/>
        <pt x="776" y="762" on="0"/>
        <pt x="647" y="874" on="0"/>
        <pt x="500" y="874" on="1"/>
        <pt x="367" y="874" on="0"/>
        <pt x="217" y="823" on="1"/>
        <pt x="217" y="983" on="1"/>
        <pt x="362" y="1038" on="0"/>
        <pt x="526" y="1038" on="1"/>
        <pt x="739" y="1038" on="0"/>
        <pt x="971" y="817" on="0"/>
        <pt x="971" y="610" on="1"/>
        <pt x="971" y="315" on="1"/>
        <pt x="971" y="282" on="0"/>
        <pt x="958" y="217" on="0"/>
        <pt x="909" y="115" on="0"/>
        <pt x="825" y="39" on="0"/>
        <pt x="657" y="-16" on="0"/>
        <pt x="547" y="-16" on="1"/>
        <pt x="434" y="-16" on="0"/>
        <pt x="264" y="41" on="0"/>
        <pt x="178" y="117" on="0"/>
        <pt x="127" y="221" on="0"/>
        <pt x="115" y="289" on="0"/>
      </contour>
      <contour>
        <pt x="301" y="324" on="1"/>
        <pt x="301" y="150" on="0"/>
        <pt x="547" y="150" on="1"/>
        <pt x="548" y="150" on="0"/>
        <pt x="550" y="150" on="1"/>
        <pt x="782" y="150" on="0"/>
        <pt x="782" y="317" on="1"/>
        <pt x="782" y="483" on="1"/>
        <pt x="708" y="495" on="0"/>
        <pt x="604" y="496" on="1"/>
        <pt x="563" y="496" on="0"/>
        <pt x="473" y="481" on="0"/>
        <pt x="369" y="449" on="0"/>
        <pt x="301" y="375" on="0"/>
      </contour>
    </TTGlyph>
    <TTGlyph name="aacute" xMin="115" yMin="-16" xMax="969" yMax="1395">
      <contour>
        <pt x="115" y="322" on="1"/>
        <pt x="115" y="474" on="0"/>
        <pt x="371" y="645" on="0"/>
        <pt x="596" y="645" on="1"/>
        <pt x="692" y="645" on="0"/>
        <pt x="782" y="633" on="1"/>
        <pt x="776" y="762" on="0"/>
        <pt x="647" y="874" on="0"/>
        <pt x="500" y="874" on="1"/>
        <pt x="367" y="874" on="0"/>
        <pt x="217" y="823" on="1"/>
        <pt x="217" y="983" on="1"/>
        <pt x="376" y="1038" on="0"/>
        <pt x="526" y="1038" on="1"/>
        <pt x="739" y="1038" on="0"/>
        <pt x="969" y="817" on="0"/>
        <pt x="969" y="610" on="1"/>
        <pt x="969" y="315" on="1"/>
        <pt x="969" y="282" on="0"/>
        <pt x="958" y="217" on="0"/>
        <pt x="907" y="115" on="0"/>
        <pt x="823" y="39" on="0"/>
        <pt x="657" y="-16" on="0"/>
        <pt x="547" y="-16" on="1"/>
        <pt x="434" y="-16" on="0"/>
        <pt x="264" y="41" on="0"/>
        <pt x="178" y="117" on="0"/>
        <pt x="127" y="221" on="0"/>
        <pt x="115" y="289" on="0"/>
      </contour>
      <contour>
        <pt x="301" y="324" on="1"/>
        <pt x="301" y="150" on="0"/>
        <pt x="547" y="150" on="1"/>
        <pt x="548" y="150" on="0"/>
        <pt x="550" y="150" on="1"/>
        <pt x="782" y="150" on="0"/>
        <pt x="782" y="317" on="1"/>
        <pt x="782" y="483" on="1"/>
        <pt x="708" y="495" on="0"/>
        <pt x="604" y="496" on="1"/>
        <pt x="563" y="496" on="0"/>
        <pt x="473" y="481" on="0"/>
        <pt x="369" y="449" on="0"/>
        <pt x="301" y="375" on="0"/>
      </contour>
      <contour>
        <pt x="461" y="1155" on="1"/>
        <pt x="588" y="1395" on="1"/>
        <pt x="772" y="1395" on="1"/>
        <pt x="578" y="1155" on="1"/>
      </contour>
    </TTGlyph>
    <TTGlyph name="acircumflex" xMin="115" yMin="-16" xMax="969" yMax="1405">
      <contour>
        <pt x="115" y="322" on="1"/>
        <pt x="115" y="474" on="0"/>
        <pt x="371" y="645" on="0"/>
        <pt x="596" y="645" on="1"/>
        <pt x="692" y="645" on="0"/>
        <pt x="782" y="633" on="1"/>
        <pt x="776" y="762" on="0"/>
        <pt x="647" y="874" on="0"/>
        <pt x="500" y="874" on="1"/>
        <pt x="367" y="874" on="0"/>
        <pt x="217" y="823" on="1"/>
        <pt x="217" y="983" on="1"/>
        <pt x="376" y="1038" on="0"/>
        <pt x="526" y="1038" on="1"/>
        <pt x="739" y="1038" on="0"/>
        <pt x="969" y="817" on="0"/>
        <pt x="969" y="610" on="1"/>
        <pt x="969" y="315" on="1"/>
        <pt x="969" y="282" on="0"/>
        <pt x="958" y="217" on="0"/>
        <pt x="907" y="115" on="0"/>
        <pt x="823" y="39" on="0"/>
        <pt x="657" y="-16" on="0"/>
        <pt x="547" y="-16" on="1"/>
        <pt x="434" y="-16" on="0"/>
        <pt x="264" y="41" on="0"/>
        <pt x="178" y="117" on="0"/>
        <pt x="127" y="221" on="0"/>
        <pt x="115" y="289" on="0"/>
      </contour>
      <contour>
        <pt x="301" y="324" on="1"/>
        <pt x="301" y="150" on="0"/>
        <pt x="547" y="150" on="1"/>
        <pt x="548" y="150" on="0"/>
        <pt x="550" y="150" on="1"/>
        <pt x="782" y="150" on="0"/>
        <pt x="782" y="317" on="1"/>
        <pt x="782" y="483" on="1"/>
        <pt x="708" y="495" on="0"/>
        <pt x="604" y="496" on="1"/>
        <pt x="563" y="496" on="0"/>
        <pt x="473" y="481" on="0"/>
        <pt x="369" y="449" on="0"/>
        <pt x="301" y="375" on="0"/>
      </contour>
      <contour>
        <pt x="338" y="1155" on="1"/>
        <pt x="518" y="1405" on="1"/>
        <pt x="616" y="1405" on="1"/>
        <pt x="799" y="1155" on="1"/>
        <pt x="653" y="1155" on="1"/>
        <pt x="567" y="1288" on="1"/>
        <pt x="481" y="1155" on="1"/>
      </contour>
    </TTGlyph>
    <TTGlyph name="acute" xMin="123" yMin="1155" xMax="434" yMax="1395">
      <contour>
        <pt x="123" y="1155" on="1"/>
        <pt x="250" y="1395" on="1"/>
        <pt x="434" y="1395" on="1"/>
        <pt x="240" y="1155" on="1"/>
      </contour>
    </TTGlyph>
    <TTGlyph name="adieresis" xMin="115" yMin="-16" xMax="969" yMax="1329">
      <contour>
        <pt x="115" y="322" on="1"/>
        <pt x="115" y="474" on="0"/>
        <pt x="371" y="645" on="0"/>
        <pt x="596" y="645" on="1"/>
        <pt x="692" y="645" on="0"/>
        <pt x="782" y="633" on="1"/>
        <pt x="776" y="762" on="0"/>
        <pt x="647" y="874" on="0"/>
        <pt x="500" y="874" on="1"/>
        <pt x="367" y="874" on="0"/>
        <pt x="217" y="823" on="1"/>
        <pt x="217" y="983" on="1"/>
        <pt x="376" y="1038" on="0"/>
        <pt x="526" y="1038" on="1"/>
        <pt x="739" y="1038" on="0"/>
        <pt x="969" y="817" on="0"/>
        <pt x="969" y="610" on="1"/>
        <pt x="969" y="315" on="1"/>
        <pt x="969" y="282" on="0"/>
        <pt x="958" y="217" on="0"/>
        <pt x="907" y="115" on="0"/>
        <pt x="823" y="39" on="0"/>
        <pt x="657" y="-16" on="0"/>
        <pt x="547" y="-16" on="1"/>
        <pt x="434" y="-16" on="0"/>
        <pt x="264" y="41" on="0"/>
        <pt x="178" y="117" on="0"/>
        <pt x="127" y="221" on="0"/>
        <pt x="115" y="289" on="0"/>
      </contour>
      <contour>
        <pt x="301" y="324" on="1"/>
        <pt x="301" y="150" on="0"/>
        <pt x="547" y="150" on="1"/>
        <pt x="548" y="150" on="0"/>
        <pt x="550" y="150" on="1"/>
        <pt x="782" y="150" on="0"/>
        <pt x="782" y="317" on="1"/>
        <pt x="782" y="483" on="1"/>
        <pt x="708" y="495" on="0"/>
        <pt x="604" y="496" on="1"/>
        <pt x="563" y="496" on="0"/>
        <pt x="473" y="481" on="0"/>
        <pt x="369" y="449" on="0"/>
        <pt x="301" y="375" on="0"/>
      </contour>
      <contour>
        <pt x="324" y="1155" on="1"/>
        <pt x="324" y="1329" on="1"/>
        <pt x="510" y="1329" on="1"/>
        <pt x="510" y="1155" on="1"/>
      </contour>
      <contour>
        <pt x="627" y="1155" on="1"/>
        <pt x="627" y="1329" on="1"/>
        <pt x="813" y="1329" on="1"/>
        <pt x="813" y="1155" on="1"/>
      </contour>
    </TTGlyph>
    <TTGlyph name="ae" xMin="111" yMin="-18" xMax="1677" yMax="1038">
      <contour>
        <pt x="111" y="322" on="1"/>
        <pt x="111" y="474" on="0"/>
        <pt x="367" y="645" on="0"/>
        <pt x="592" y="645" on="1"/>
        <pt x="688" y="645" on="0"/>
        <pt x="778" y="633" on="1"/>
        <pt x="772" y="762" on="0"/>
        <pt x="643" y="874" on="0"/>
        <pt x="496" y="874" on="1"/>
        <pt x="363" y="874" on="0"/>
        <pt x="213" y="823" on="1"/>
        <pt x="213" y="983" on="1"/>
        <pt x="373" y="1038" on="0"/>
        <pt x="522" y="1038" on="1"/>
        <pt x="766" y="1038" on="0"/>
        <pt x="879" y="895" on="1"/>
        <pt x="992" y="1038" on="0"/>
        <pt x="1227" y="1038" on="1"/>
        <pt x="1432" y="1038" on="0"/>
        <pt x="1677" y="770" on="0"/>
        <pt x="1677" y="545" on="1"/>
        <pt x="1677" y="471" on="0"/>
        <pt x="1671" y="403" on="1"/>
        <pt x="967" y="403" on="1"/>
        <pt x="1002" y="143" on="0"/>
        <pt x="1255" y="143" on="1"/>
        <pt x="1452" y="143" on="0"/>
        <pt x="1608" y="219" on="1"/>
        <pt x="1608" y="49" on="1"/>
        <pt x="1450" y="-18" on="0"/>
        <pt x="1251" y="-18" on="1"/>
        <pt x="1248" y="-18" on="0"/>
        <pt x="1245" y="-18" on="1"/>
        <pt x="1016" y="-18" on="0"/>
        <pt x="895" y="113" on="1"/>
        <pt x="789" y="-16" on="0"/>
        <pt x="543" y="-16" on="1"/>
        <pt x="430" y="-16" on="0"/>
        <pt x="260" y="41" on="0"/>
        <pt x="174" y="117" on="0"/>
        <pt x="123" y="221" on="0"/>
        <pt x="111" y="289" on="0"/>
      </contour>
      <contour>
        <pt x="297" y="324" on="1"/>
        <pt x="297" y="150" on="0"/>
        <pt x="543" y="150" on="1"/>
        <pt x="544" y="150" on="0"/>
        <pt x="546" y="150" on="1"/>
        <pt x="778" y="150" on="0"/>
        <pt x="778" y="317" on="1"/>
        <pt x="778" y="483" on="1"/>
        <pt x="704" y="495" on="0"/>
        <pt x="600" y="496" on="1"/>
        <pt x="559" y="496" on="0"/>
        <pt x="469" y="481" on="0"/>
        <pt x="365" y="449" on="0"/>
        <pt x="297" y="375" on="0"/>
      </contour>
      <contour>
        <pt x="965" y="573" on="1"/>
        <pt x="1489" y="573" on="1"/>
        <pt x="1462" y="870" on="0"/>
        <pt x="1227" y="870" on="1"/>
        <pt x="1098" y="870" on="0"/>
        <pt x="977" y="737" on="0"/>
      </contour>
    </TTGlyph>
    <TTGlyph name="agrave" xMin="115" yMin="-16" xMax="969" yMax="1395">
      <contour>
        <pt x="115" y="322" on="1"/>
        <pt x="115" y="474" on="0"/>
        <pt x="371" y="645" on="0"/>
        <pt x="596" y="645" on="1"/>
        <pt x="692" y="645" on="0"/>
        <pt x="782" y="633" on="1"/>
        <pt x="776" y="762" on="0"/>
        <pt x="647" y="874" on="0"/>
        <pt x="500" y="874" on="1"/>
        <pt x="367" y="874" on="0"/>
        <pt x="217" y="823" on="1"/>
        <pt x="217" y="983" on="1"/>
        <pt x="376" y="1038" on="0"/>
        <pt x="526" y="1038" on="1"/>
        <pt x="739" y="1038" on="0"/>
        <pt x="969" y="817" on="0"/>
        <pt x="969" y="610" on="1"/>
        <pt x="969" y="315" on="1"/>
        <pt x="969" y="282" on="0"/>
        <pt x="958" y="217" on="0"/>
        <pt x="907" y="115" on="0"/>
        <pt x="823" y="39" on="0"/>
        <pt x="657" y="-16" on="0"/>
        <pt x="547" y="-16" on="1"/>
        <pt x="434" y="-16" on="0"/>
        <pt x="264" y="41" on="0"/>
        <pt x="178" y="117" on="0"/>
        <pt x="127" y="221" on="0"/>
        <pt x="115" y="289" on="0"/>
      </contour>
      <contour>
        <pt x="301" y="324" on="1"/>
        <pt x="301" y="150" on="0"/>
        <pt x="547" y="150" on="1"/>
        <pt x="548" y="150" on="0"/>
        <pt x="550" y="150" on="1"/>
        <pt x="782" y="150" on="0"/>
        <pt x="782" y="317" on="1"/>
        <pt x="782" y="483" on="1"/>
        <pt x="708" y="495" on="0"/>
        <pt x="604" y="496" on="1"/>
        <pt x="563" y="496" on="0"/>
        <pt x="473" y="481" on="0"/>
        <pt x="369" y="449" on="0"/>
        <pt x="301" y="375" on="0"/>
      </contour>
      <contour>
        <pt x="315" y="1395" on="1"/>
        <pt x="500" y="1395" on="1"/>
        <pt x="627" y="1155" on="1"/>
        <pt x="510" y="1155" on="1"/>
      </contour>
    </TTGlyph>
    <TTGlyph name="ampersand" xMin="111" yMin="-16" xMax="1266" yMax="1384">
      <contour>
        <pt x="111" y="385" on="1"/>
        <pt x="111" y="500" on="0"/>
        <pt x="219" y="702" on="0"/>
        <pt x="375" y="793" on="1"/>
        <pt x="248" y="951" on="0"/>
        <pt x="248" y="1065" on="1"/>
        <pt x="248" y="1196" on="0"/>
        <pt x="434" y="1384" on="0"/>
        <pt x="567" y="1384" on="1"/>
        <pt x="702" y="1384" on="0"/>
        <pt x="887" y="1204" on="0"/>
        <pt x="887" y="1073" on="1"/>
        <pt x="887" y="964" on="0"/>
        <pt x="774" y="815" on="0"/>
        <pt x="647" y="741" on="1"/>
        <pt x="913" y="422" on="1"/>
        <pt x="950" y="506" on="0"/>
        <pt x="967" y="598" on="1"/>
        <pt x="1143" y="598" on="1"/>
        <pt x="1116" y="430" on="0"/>
        <pt x="1028" y="285" on="1"/>
        <pt x="1266" y="0" on="1"/>
        <pt x="1038" y="0" on="1"/>
        <pt x="922" y="141" on="1"/>
        <pt x="765" y="-16" on="0"/>
        <pt x="548" y="-16" on="1"/>
        <pt x="546" y="-16" on="0"/>
        <pt x="545" y="-16" on="1"/>
        <pt x="432" y="-16" on="0"/>
        <pt x="258" y="63" on="0"/>
        <pt x="160" y="190" on="0"/>
        <pt x="111" y="322" on="0"/>
      </contour>
      <contour>
        <pt x="281" y="379" on="1"/>
        <pt x="281" y="348" on="0"/>
        <pt x="303" y="279" on="0"/>
        <pt x="358" y="197" on="0"/>
        <pt x="471" y="143" on="0"/>
        <pt x="549" y="143" on="1"/>
        <pt x="705" y="143" on="0"/>
        <pt x="819" y="266" on="1"/>
        <pt x="492" y="662" on="1"/>
        <pt x="418" y="623" on="0"/>
        <pt x="324" y="543" on="0"/>
        <pt x="289" y="461" on="0"/>
        <pt x="281" y="414" on="0"/>
      </contour>
      <contour>
        <pt x="416" y="1143" on="0"/>
        <pt x="416" y="1012" on="0"/>
        <pt x="530" y="874" on="1"/>
        <pt x="649" y="942" on="0"/>
        <pt x="721" y="1028" on="0"/>
        <pt x="721" y="1085" on="1"/>
        <pt x="721" y="1148" on="0"/>
        <pt x="635" y="1233" on="0"/>
        <pt x="569" y="1233" on="1"/>
        <pt x="506" y="1233" on="0"/>
      </contour>
    </TTGlyph>
    <TTGlyph name="aring" xMin="115" yMin="-16" xMax="969" yMax="1448">
      <contour>
        <pt x="115" y="322" on="1"/>
        <pt x="115" y="474" on="0"/>
        <pt x="371" y="645" on="0"/>
        <pt x="596" y="645" on="1"/>
        <pt x="692" y="645" on="0"/>
        <pt x="782" y="633" on="1"/>
        <pt x="776" y="762" on="0"/>
        <pt x="647" y="874" on="0"/>
        <pt x="500" y="874" on="1"/>
        <pt x="367" y="874" on="0"/>
        <pt x="217" y="823" on="1"/>
        <pt x="217" y="983" on="1"/>
        <pt x="376" y="1038" on="0"/>
        <pt x="526" y="1038" on="1"/>
        <pt x="739" y="1038" on="0"/>
        <pt x="969" y="817" on="0"/>
        <pt x="969" y="610" on="1"/>
        <pt x="969" y="315" on="1"/>
        <pt x="969" y="282" on="0"/>
        <pt x="958" y="217" on="0"/>
        <pt x="907" y="115" on="0"/>
        <pt x="823" y="39" on="0"/>
        <pt x="657" y="-16" on="0"/>
        <pt x="547" y="-16" on="1"/>
        <pt x="434" y="-16" on="0"/>
        <pt x="264" y="41" on="0"/>
        <pt x="178" y="117" on="0"/>
        <pt x="127" y="221" on="0"/>
        <pt x="115" y="289" on="0"/>
      </contour>
      <contour>
        <pt x="301" y="324" on="1"/>
        <pt x="301" y="150" on="0"/>
        <pt x="547" y="150" on="1"/>
        <pt x="548" y="150" on="0"/>
        <pt x="550" y="150" on="1"/>
        <pt x="782" y="150" on="0"/>
        <pt x="782" y="317" on="1"/>
        <pt x="782" y="483" on="1"/>
        <pt x="708" y="495" on="0"/>
        <pt x="604" y="496" on="1"/>
        <pt x="563" y="496" on="0"/>
        <pt x="473" y="481" on="0"/>
        <pt x="369" y="449" on="0"/>
        <pt x="301" y="375" on="0"/>
      </contour>
      <contour>
        <pt x="379" y="1188" on="0"/>
        <pt x="379" y="1356" on="0"/>
        <pt x="473" y="1448" on="0"/>
        <pt x="557" y="1448" on="1"/>
        <pt x="643" y="1448" on="0"/>
        <pt x="735" y="1356" on="0"/>
        <pt x="735" y="1188" on="0"/>
        <pt x="643" y="1096" on="0"/>
        <pt x="557" y="1096" on="1"/>
        <pt x="473" y="1096" on="0"/>
      </contour>
      <contour>
        <pt x="477" y="1323" on="0"/>
        <pt x="477" y="1221" on="0"/>
        <pt x="512" y="1180" on="0"/>
        <pt x="602" y="1180" on="0"/>
        <pt x="637" y="1221" on="0"/>
        <pt x="637" y="1323" on="0"/>
        <pt x="602" y="1364" on="0"/>
        <pt x="512" y="1364" on="0"/>
      </contour>
    </TTGlyph>
    <TTGlyph name="asciicircum" xMin="272" yMin="969" xMax="817" yMax="1413">
      <contour>
        <pt x="272" y="969" on="1"/>
        <pt x="487" y="1413" on="1"/>
        <pt x="600" y="1413" on="1"/>
        <pt x="817" y="969" on="1"/>
        <pt x="674" y="969" on="1"/>
        <pt x="545" y="1272" on="1"/>
        <pt x="416" y="969" on="1"/>
      </contour>
    </TTGlyph>
    <TTGlyph name="asciitilde" xMin="201" yMin="437" xMax="823" yMax="683">
      <contour>
        <pt x="201" y="473" on="1"/>
        <pt x="201" y="608" on="1"/>
        <pt x="258" y="676" on="0"/>
        <pt x="324" y="682" on="1"/>
        <pt x="335" y="683" on="0"/>
        <pt x="346" y="683" on="1"/>
        <pt x="401" y="683" on="0"/>
        <pt x="452" y="658" on="1"/>
        <pt x="574" y="597" on="1"/>
        <pt x="624" y="572" on="0"/>
        <pt x="677" y="572" on="1"/>
        <pt x="689" y="572" on="0"/>
        <pt x="700" y="574" on="1"/>
        <pt x="766" y="580" on="0"/>
        <pt x="823" y="647" on="1"/>
        <pt x="823" y="512" on="1"/>
        <pt x="766" y="444" on="0"/>
        <pt x="700" y="438" on="1"/>
        <pt x="690" y="437" on="0"/>
        <pt x="679" y="437" on="1"/>
        <pt x="625" y="437" on="0"/>
        <pt x="574" y="462" on="1"/>
        <pt x="452" y="522" on="1"/>
        <pt x="401" y="548" on="0"/>
        <pt x="346" y="548" on="1"/>
        <pt x="335" y="548" on="0"/>
        <pt x="324" y="547" on="1"/>
        <pt x="258" y="541" on="0"/>
      </contour>
    </TTGlyph>
    <TTGlyph name="asterisk" xMin="172" yMin="942" xMax="670" yMax="1436">
      <contour>
        <pt x="172" y="1118" on="1"/>
        <pt x="334" y="1188" on="1"/>
        <pt x="172" y="1260" on="1"/>
        <pt x="236" y="1368" on="1"/>
        <pt x="375" y="1268" on="1"/>
        <pt x="356" y="1436" on="1"/>
        <pt x="481" y="1436" on="1"/>
        <pt x="467" y="1268" on="1"/>
        <pt x="606" y="1368" on="1"/>
        <pt x="670" y="1260" on="1"/>
        <pt x="510" y="1188" on="1"/>
        <pt x="670" y="1118" on="1"/>
        <pt x="606" y="1006" on="1"/>
        <pt x="467" y="1108" on="1"/>
        <pt x="481" y="942" on="1"/>
        <pt x="356" y="942" on="1"/>
        <pt x="375" y="1108" on="1"/>
        <pt x="236" y="1006" on="1"/>
      </contour>
    </TTGlyph>
    <TTGlyph name="at" xMin="170" yMin="-307" xMax="1722" yMax="1231">
      <contour>
        <pt x="170" y="371" on="1"/>
        <pt x="170" y="555" on="0"/>
        <pt x="328" y="883" on="0"/>
        <pt x="578" y="1102" on="0"/>
        <pt x="888" y="1231" on="0"/>
        <pt x="1044" y="1231" on="1"/>
        <pt x="1126" y="1231" on="0"/>
        <pt x="1305" y="1188" on="0"/>
        <pt x="1487" y="1083" on="0"/>
        <pt x="1630" y="936" on="0"/>
        <pt x="1722" y="707" on="0"/>
        <pt x="1722" y="567" on="1"/>
        <pt x="1722" y="438" on="0"/>
        <pt x="1655" y="217" on="0"/>
        <pt x="1495" y="61" on="0"/>
        <pt x="1382" y="61" on="1"/>
        <pt x="1245" y="61" on="0"/>
        <pt x="1196" y="188" on="1"/>
        <pt x="1106" y="61" on="0"/>
        <pt x="903" y="61" on="1"/>
        <pt x="760" y="61" on="0"/>
        <pt x="592" y="190" on="0"/>
        <pt x="592" y="301" on="1"/>
        <pt x="592" y="352" on="0"/>
        <pt x="625" y="442" on="0"/>
        <pt x="711" y="543" on="0"/>
        <pt x="901" y="602" on="0"/>
        <pt x="1038" y="602" on="1"/>
        <pt x="1122" y="602" on="0"/>
        <pt x="1180" y="594" on="1"/>
        <pt x="1180" y="598" on="0"/>
        <pt x="1182" y="621" on="0"/>
        <pt x="1182" y="627" on="1"/>
        <pt x="1182" y="662" on="0"/>
        <pt x="1169" y="711" on="0"/>
        <pt x="1130" y="762" on="0"/>
        <pt x="1044" y="786" on="0"/>
        <pt x="977" y="786" on="1"/>
        <pt x="846" y="786" on="0"/>
        <pt x="725" y="737" on="1"/>
        <pt x="743" y="866" on="1"/>
        <pt x="878" y="911" on="0"/>
        <pt x="995" y="911" on="1"/>
        <pt x="1151" y="911" on="0"/>
        <pt x="1317" y="766" on="0"/>
        <pt x="1317" y="627" on="1"/>
        <pt x="1317" y="574" on="0"/>
        <pt x="1308" y="498" on="1"/>
        <pt x="1292" y="373" on="1"/>
        <pt x="1288" y="336" on="0"/>
        <pt x="1288" y="299" on="1"/>
        <pt x="1288" y="287" on="0"/>
        <pt x="1288" y="274" on="1"/>
        <pt x="1290" y="225" on="0"/>
        <pt x="1339" y="178" on="0"/>
        <pt x="1391" y="178" on="1"/>
        <pt x="1479" y="178" on="0"/>
        <pt x="1606" y="373" on="0"/>
        <pt x="1606" y="563" on="1"/>
        <pt x="1606" y="706" on="0"/>
        <pt x="1493" y="930" on="0"/>
        <pt x="1315" y="1053" on="0"/>
        <pt x="1126" y="1114" on="0"/>
        <pt x="1036" y="1114" on="1"/>
        <pt x="852" y="1114" on="0"/>
        <pt x="506" y="918" on="0"/>
        <pt x="283" y="567" on="0"/>
        <pt x="283" y="365" on="1"/>
        <pt x="283" y="238" on="0"/>
        <pt x="373" y="33" on="0"/>
        <pt x="502" y="-86" on="0"/>
        <pt x="664" y="-166" on="0"/>
        <pt x="791" y="-195" on="0"/>
        <pt x="842" y="-195" on="1"/>
        <pt x="1092" y="-195" on="0"/>
        <pt x="1284" y="-92" on="1"/>
        <pt x="1266" y="-225" on="1"/>
        <pt x="1082" y="-307" on="0"/>
        <pt x="838" y="-307" on="1"/>
        <pt x="756" y="-307" on="0"/>
        <pt x="582" y="-262" on="0"/>
        <pt x="401" y="-158" on="0"/>
        <pt x="260" y="-6" on="0"/>
        <pt x="170" y="229" on="0"/>
      </contour>
      <contour>
        <pt x="725" y="305" on="1"/>
        <pt x="725" y="197" on="0"/>
        <pt x="900" y="197" on="1"/>
        <pt x="901" y="197" on="0"/>
        <pt x="903" y="197" on="1"/>
        <pt x="1044" y="197" on="0"/>
        <pt x="1139" y="299" on="0"/>
        <pt x="1153" y="401" on="1"/>
        <pt x="1157" y="450" on="0"/>
        <pt x="1161" y="475" on="1"/>
        <pt x="1106" y="481" on="0"/>
        <pt x="1038" y="481" on="1"/>
        <pt x="725" y="481" on="0"/>
      </contour>
    </TTGlyph>
    <TTGlyph name="atilde" xMin="115" yMin="-16" xMax="969" yMax="1363">
      <contour>
        <pt x="115" y="322" on="1"/>
        <pt x="115" y="474" on="0"/>
        <pt x="371" y="645" on="0"/>
        <pt x="596" y="645" on="1"/>
        <pt x="692" y="645" on="0"/>
        <pt x="782" y="633" on="1"/>
        <pt x="776" y="762" on="0"/>
        <pt x="647" y="874" on="0"/>
        <pt x="500" y="874" on="1"/>
        <pt x="367" y="874" on="0"/>
        <pt x="217" y="823" on="1"/>
        <pt x="217" y="983" on="1"/>
        <pt x="376" y="1038" on="0"/>
        <pt x="526" y="1038" on="1"/>
        <pt x="739" y="1038" on="0"/>
        <pt x="969" y="817" on="0"/>
        <pt x="969" y="610" on="1"/>
        <pt x="969" y="315" on="1"/>
        <pt x="969" y="282" on="0"/>
        <pt x="958" y="217" on="0"/>
        <pt x="907" y="115" on="0"/>
        <pt x="823" y="39" on="0"/>
        <pt x="657" y="-16" on="0"/>
        <pt x="547" y="-16" on="1"/>
        <pt x="434" y="-16" on="0"/>
        <pt x="264" y="41" on="0"/>
        <pt x="178" y="117" on="0"/>
        <pt x="127" y="221" on="0"/>
        <pt x="115" y="289" on="0"/>
      </contour>
      <contour>
        <pt x="250" y="1153" on="1"/>
        <pt x="250" y="1288" on="1"/>
        <pt x="307" y="1356" on="0"/>
        <pt x="374" y="1362" on="1"/>
        <pt x="384" y="1363" on="0"/>
        <pt x="395" y="1363" on="1"/>
        <pt x="450" y="1363" on="0"/>
        <pt x="500" y="1338" on="1"/>
        <pt x="622" y="1277" on="1"/>
        <pt x="673" y="1252" on="0"/>
        <pt x="726" y="1252" on="1"/>
        <pt x="738" y="1252" on="0"/>
        <pt x="750" y="1254" on="1"/>
        <pt x="815" y="1260" on="0"/>
        <pt x="872" y="1327" on="1"/>
        <pt x="872" y="1192" on="1"/>
        <pt x="815" y="1124" on="0"/>
        <pt x="750" y="1118" on="1"/>
        <pt x="738" y="1117" on="0"/>
        <pt x="727" y="1117" on="1"/>
        <pt x="674" y="1117" on="0"/>
        <pt x="622" y="1142" on="1"/>
        <pt x="500" y="1202" on="1"/>
        <pt x="450" y="1228" on="0"/>
        <pt x="395" y="1228" on="1"/>
        <pt x="384" y="1228" on="0"/>
        <pt x="374" y="1227" on="1"/>
        <pt x="307" y="1221" on="0"/>
      </contour>
      <contour>
        <pt x="301" y="324" on="1"/>
        <pt x="301" y="150" on="0"/>
        <pt x="547" y="150" on="1"/>
        <pt x="548" y="150" on="0"/>
        <pt x="550" y="150" on="1"/>
        <pt x="782" y="150" on="0"/>
        <pt x="782" y="317" on="1"/>
        <pt x="782" y="483" on="1"/>
        <pt x="708" y="495" on="0"/>
        <pt x="604" y="496" on="1"/>
        <pt x="563" y="496" on="0"/>
        <pt x="473" y="481" on="0"/>
        <pt x="369" y="449" on="0"/>
        <pt x="301" y="375" on="0"/>
      </contour>
    </TTGlyph>
    <TTGlyph name="b" xMin="170" yMin="-16" xMax="1044" yMax="1411">
      <contour>
        <pt x="170" y="315" on="1"/>
        <pt x="170" y="1411" on="1"/>
        <pt x="356" y="1411" on="1"/>
        <pt x="356" y="1008" on="1"/>
        <pt x="462" y="1038" on="0"/>
        <pt x="575" y="1038" on="1"/>
        <pt x="663" y="1038" on="0"/>
        <pt x="815" y="995" on="0"/>
        <pt x="961" y="889" on="0"/>
        <pt x="1044" y="676" on="0"/>
        <pt x="1044" y="524" on="1"/>
        <pt x="1044" y="389" on="0"/>
        <pt x="981" y="186" on="0"/>
        <pt x="889" y="74" on="0"/>
        <pt x="760" y="4" on="0"/>
        <pt x="651" y="-16" on="0"/>
        <pt x="592" y="-16" on="1"/>
        <pt x="481" y="-16" on="0"/>
        <pt x="315" y="39" on="0"/>
        <pt x="231" y="115" on="0"/>
        <pt x="182" y="217" on="0"/>
        <pt x="170" y="283" on="0"/>
      </contour>
      <contour>
        <pt x="356" y="303" on="1"/>
        <pt x="356" y="150" on="0"/>
        <pt x="592" y="150" on="1"/>
        <pt x="645" y="150" on="0"/>
        <pt x="727" y="176" on="0"/>
        <pt x="811" y="248" on="0"/>
        <pt x="856" y="406" on="0"/>
        <pt x="856" y="524" on="1"/>
        <pt x="856" y="635" on="0"/>
        <pt x="811" y="780" on="0"/>
        <pt x="727" y="848" on="0"/>
        <pt x="637" y="872" on="0"/>
        <pt x="575" y="872" on="1"/>
        <pt x="460" y="872" on="0"/>
        <pt x="356" y="829" on="1"/>
      </contour>
    </TTGlyph>
    <TTGlyph name="backslash" xMin="-76" yMin="-201" xMax="854" yMax="1548">
      <contour>
        <pt x="-76" y="1548" on="1"/>
        <pt x="102" y="1548" on="1"/>
        <pt x="854" y="-201" on="1"/>
        <pt x="678" y="-201" on="1"/>
      </contour>
    </TTGlyph>
    <TTGlyph name="bar" xMin="379" yMin="-203" xMax="567" yMax="1366">
      <contour>
        <pt x="379" y="-203" on="1"/>
        <pt x="379" y="1366" on="1"/>
        <pt x="567" y="1366" on="1"/>
        <pt x="567" y="-203" on="1"/>
      </contour>
    </TTGlyph>
    <TTGlyph name="braceleft" xMin="186" yMin="-225" xMax="631" yMax="1432">
      <contour>
        <pt x="186" y="535" on="1"/>
        <pt x="186" y="672" on="1"/>
        <pt x="295" y="703" on="0"/>
        <pt x="295" y="799" on="1"/>
        <pt x="295" y="1112" on="1"/>
        <pt x="295" y="1268" on="0"/>
        <pt x="459" y="1432" on="0"/>
        <pt x="614" y="1432" on="1"/>
        <pt x="631" y="1432" on="1"/>
        <pt x="631" y="1274" on="1"/>
        <pt x="547" y="1274" on="0"/>
        <pt x="475" y="1210" on="0"/>
        <pt x="475" y="1118" on="1"/>
        <pt x="475" y="811" on="1"/>
        <pt x="475" y="688" on="0"/>
        <pt x="356" y="604" on="1"/>
        <pt x="475" y="516" on="0"/>
        <pt x="475" y="395" on="1"/>
        <pt x="475" y="88" on="1"/>
        <pt x="475" y="-4" on="0"/>
        <pt x="547" y="-66" on="0"/>
        <pt x="631" y="-68" on="1"/>
        <pt x="631" y="-225" on="1"/>
        <pt x="614" y="-225" on="1"/>
        <pt x="458" y="-225" on="0"/>
        <pt x="295" y="-59" on="0"/>
        <pt x="295" y="96" on="1"/>
        <pt x="295" y="408" on="1"/>
        <pt x="295" y="504" on="0"/>
      </contour>
    </TTGlyph>
    <TTGlyph name="braceright" xMin="156" yMin="-225" xMax="600" yMax="1432">
      <contour>
        <pt x="156" y="-68" on="1"/>
        <pt x="240" y="-66" on="0"/>
        <pt x="311" y="-4" on="0"/>
        <pt x="311" y="88" on="1"/>
        <pt x="311" y="395" on="1"/>
        <pt x="311" y="516" on="0"/>
        <pt x="430" y="604" on="1"/>
        <pt x="311" y="688" on="0"/>
        <pt x="311" y="811" on="1"/>
        <pt x="311" y="1118" on="1"/>
        <pt x="311" y="1212" on="0"/>
        <pt x="240" y="1274" on="0"/>
        <pt x="156" y="1274" on="1"/>
        <pt x="156" y="1432" on="1"/>
        <pt x="174" y="1432" on="1"/>
        <pt x="328" y="1432" on="0"/>
        <pt x="494" y="1268" on="0"/>
        <pt x="494" y="1112" on="1"/>
        <pt x="494" y="799" on="1"/>
        <pt x="494" y="705" on="0"/>
        <pt x="600" y="672" on="1"/>
        <pt x="600" y="535" on="1"/>
        <pt x="494" y="502" on="0"/>
        <pt x="494" y="408" on="1"/>
        <pt x="494" y="96" on="1"/>
        <pt x="494" y="-60" on="0"/>
        <pt x="328" y="-225" on="0"/>
        <pt x="174" y="-225" on="1"/>
        <pt x="156" y="-225" on="1"/>
      </contour>
    </TTGlyph>
    <TTGlyph name="bracketleft" xMin="244" yMin="-238" xMax="614" yMax="1425">
      <contour>
        <pt x="244" y="-238" on="1"/>
        <pt x="244" y="1425" on="1"/>
        <pt x="614" y="1425" on="1"/>
        <pt x="614" y="1274" on="1"/>
        <pt x="401" y="1274" on="1"/>
        <pt x="401" y="-86" on="1"/>
        <pt x="614" y="-86" on="1"/>
        <pt x="614" y="-238" on="1"/>
      </contour>
    </TTGlyph>
    <TTGlyph name="bracketright" xMin="172" yMin="-238" xMax="541" yMax="1425">
      <contour>
        <pt x="172" y="-86" on="1"/>
        <pt x="383" y="-86" on="1"/>
        <pt x="383" y="1274" on="1"/>
        <pt x="172" y="1274" on="1"/>
        <pt x="172" y="1425" on="1"/>
        <pt x="541" y="1425" on="1"/>
        <pt x="541" y="-238" on="1"/>
        <pt x="172" y="-238" on="1"/>
      </contour>
    </TTGlyph>
    <TTGlyph name="bullet" xMin="170" yMin="432" xMax="672" yMax="934">
      <contour>
        <pt x="170" y="580" on="0"/>
        <pt x="170" y="788" on="0"/>
        <pt x="317" y="934" on="0"/>
        <pt x="422" y="934" on="1"/>
        <pt x="524" y="934" on="0"/>
        <pt x="672" y="788" on="0"/>
        <pt x="672" y="580" on="0"/>
        <pt x="524" y="432" on="0"/>
        <pt x="422" y="432" on="1"/>
        <pt x="318" y="432" on="0"/>
      </contour>
    </TTGlyph>
    <TTGlyph name="c" xMin="119" yMin="-16" xMax="901" yMax="1038">
      <contour>
        <pt x="119" y="256" on="0"/>
        <pt x="119" y="768" on="0"/>
        <pt x="367" y="1038" on="0"/>
        <pt x="600" y="1038" on="1"/>
        <pt x="756" y="1038" on="0"/>
        <pt x="901" y="981" on="1"/>
        <pt x="901" y="803" on="1"/>
        <pt x="762" y="870" on="0"/>
        <pt x="620" y="870" on="1"/>
        <pt x="618" y="870" on="0"/>
        <pt x="616" y="870" on="1"/>
        <pt x="475" y="870" on="0"/>
        <pt x="315" y="725" on="0"/>
        <pt x="315" y="512" on="1"/>
        <pt x="315" y="399" on="0"/>
        <pt x="362" y="250" on="0"/>
        <pt x="455" y="178" on="0"/>
        <pt x="550" y="154" on="0"/>
        <pt x="616" y="154" on="1"/>
        <pt x="763" y="154" on="0"/>
        <pt x="901" y="219" on="1"/>
        <pt x="901" y="41" on="1"/>
        <pt x="756" y="-16" on="0"/>
        <pt x="600" y="-16" on="1"/>
        <pt x="367" y="-16" on="0"/>
      </contour>
    </TTGlyph>
    <TTGlyph name="ccedilla" xMin="119" yMin="-266" xMax="901" yMax="1038">
      <contour>
        <pt x="119" y="512" on="1"/>
        <pt x="119" y="768" on="0"/>
        <pt x="367" y="1038" on="0"/>
        <pt x="600" y="1038" on="1"/>
        <pt x="756" y="1038" on="0"/>
        <pt x="901" y="981" on="1"/>
        <pt x="901" y="803" on="1"/>
        <pt x="759" y="870" on="0"/>
        <pt x="616" y="870" on="1"/>
        <pt x="475" y="870" on="0"/>
        <pt x="315" y="725" on="0"/>
        <pt x="315" y="512" on="1"/>
        <pt x="315" y="399" on="0"/>
        <pt x="362" y="250" on="0"/>
        <pt x="455" y="178" on="0"/>
        <pt x="551" y="154" on="0"/>
        <pt x="616" y="154" on="1"/>
        <pt x="763" y="154" on="0"/>
        <pt x="901" y="219" on="1"/>
        <pt x="901" y="41" on="1"/>
        <pt x="797" y="0" on="0"/>
        <pt x="678" y="-12" on="1"/>
        <pt x="539" y="-266" on="1"/>
        <pt x="350" y="-266" on="1"/>
        <pt x="532" y="-12" on="1"/>
        <pt x="331" y="6" on="0"/>
        <pt x="119" y="274" on="0"/>
      </contour>
    </TTGlyph>
    <TTGlyph name="cedilla" xMin="115" yMin="-262" xMax="442" yMax="-10">
      <contour>
        <pt x="115" y="-262" on="1"/>
        <pt x="297" y="-10" on="1"/>
        <pt x="442" y="-10" on="1"/>
        <pt x="301" y="-262" on="1"/>
      </contour>
    </TTGlyph>
    <TTGlyph name="cent" xMin="117" yMin="0" xMax="899" yMax="1366">
      <contour>
        <pt x="117" y="446" on="0"/>
        <pt x="117" y="922" on="0"/>
        <pt x="334" y="1192" on="0"/>
        <pt x="539" y="1208" on="1"/>
        <pt x="539" y="1366" on="1"/>
        <pt x="662" y="1366" on="1"/>
        <pt x="662" y="1208" on="1"/>
        <pt x="793" y="1196" on="0"/>
        <pt x="899" y="1153" on="1"/>
        <pt x="899" y="975" on="1"/>
        <pt x="776" y="1032" on="0"/>
        <pt x="662" y="1040" on="1"/>
        <pt x="662" y="328" on="1"/>
        <pt x="783" y="336" on="0"/>
        <pt x="899" y="391" on="1"/>
        <pt x="899" y="213" on="1"/>
        <pt x="782" y="166" on="0"/>
        <pt x="662" y="158" on="1"/>
        <pt x="662" y="0" on="1"/>
        <pt x="539" y="0" on="1"/>
        <pt x="539" y="158" on="1"/>
        <pt x="334" y="174" on="0"/>
      </contour>
      <contour>
        <pt x="313" y="866" on="0"/>
        <pt x="313" y="502" on="0"/>
        <pt x="432" y="346" on="0"/>
        <pt x="539" y="330" on="1"/>
        <pt x="539" y="1038" on="1"/>
        <pt x="433" y="1022" on="0"/>
      </contour>
    </TTGlyph>
    <TTGlyph name="circumflex" xMin="207" yMin="1155" xMax="668" yMax="1405">
      <contour>
        <pt x="207" y="1155" on="1"/>
        <pt x="387" y="1405" on="1"/>
        <pt x="485" y="1405" on="1"/>
        <pt x="668" y="1155" on="1"/>
        <pt x="522" y="1155" on="1"/>
        <pt x="436" y="1288" on="1"/>
        <pt x="350" y="1155" on="1"/>
      </contour>
    </TTGlyph>
    <TTGlyph name="colon" xMin="313" yMin="94" xMax="506" yMax="922">
      <contour>
        <pt x="313" y="94" on="1"/>
        <pt x="313" y="274" on="1"/>
        <pt x="506" y="274" on="1"/>
        <pt x="506" y="94" on="1"/>
      </contour>
      <contour>
        <pt x="313" y="741" on="1"/>
        <pt x="313" y="922" on="1"/>
        <pt x="506" y="922" on="1"/>
        <pt x="506" y="741" on="1"/>
      </contour>
    </TTGlyph>
    <TTGlyph name="comma" xMin="152" yMin="-229" xMax="496" yMax="172">
      <contour>
        <pt x="152" y="-229" on="1"/>
        <pt x="303" y="172" on="1"/>
        <pt x="496" y="172" on="1"/>
        <pt x="324" y="-229" on="1"/>
      </contour>
    </TTGlyph>
    <TTGlyph name="copyright" xMin="98" yMin="-16" xMax="1493" yMax="1378">
      <contour>
        <pt x="98" y="391" on="0"/>
        <pt x="98" y="969" on="0"/>
        <pt x="506" y="1378" on="0"/>
        <pt x="1083" y="1378" on="0"/>
        <pt x="1493" y="969" on="0"/>
        <pt x="1493" y="391" on="0"/>
        <pt x="1083" y="-16" on="0"/>
        <pt x="506" y="-16" on="0"/>
      </contour>
      <contour>
        <pt x="188" y="680" on="1"/>
        <pt x="188" y="430" on="0"/>
        <pt x="545" y="74" on="0"/>
        <pt x="795" y="74" on="1"/>
        <pt x="1047" y="74" on="0"/>
        <pt x="1403" y="430" on="0"/>
        <pt x="1403" y="680" on="1"/>
        <pt x="1403" y="932" on="0"/>
        <pt x="1047" y="1288" on="0"/>
        <pt x="795" y="1288" on="1"/>
        <pt x="545" y="1288" on="0"/>
        <pt x="188" y="932" on="0"/>
      </contour>
      <contour>
        <pt x="432" y="680" on="1"/>
        <pt x="432" y="801" on="0"/>
        <pt x="498" y="971" on="0"/>
        <pt x="612" y="1055" on="0"/>
        <pt x="733" y="1090" on="0"/>
        <pt x="803" y="1090" on="1"/>
        <pt x="930" y="1090" on="0"/>
        <pt x="1047" y="1042" on="1"/>
        <pt x="1047" y="938" on="1"/>
        <pt x="934" y="989" on="0"/>
        <pt x="815" y="989" on="1"/>
        <pt x="674" y="989" on="0"/>
        <pt x="547" y="844" on="0"/>
        <pt x="547" y="680" on="1"/>
        <pt x="547" y="518" on="0"/>
        <pt x="674" y="373" on="0"/>
        <pt x="815" y="373" on="1"/>
        <pt x="930" y="373" on="0"/>
        <pt x="1047" y="422" on="1"/>
        <pt x="1047" y="319" on="1"/>
        <pt x="930" y="272" on="0"/>
        <pt x="803" y="272" on="1"/>
        <pt x="748" y="272" on="0"/>
        <pt x="651" y="291" on="0"/>
        <pt x="549" y="346" on="0"/>
        <pt x="477" y="434" on="0"/>
        <pt x="432" y="582" on="0"/>
      </contour>
    </TTGlyph>
    <TTGlyph name="d" xMin="129" yMin="-16" xMax="1004" yMax="1411">
      <contour>
        <pt x="129" y="524" on="1"/>
        <pt x="129" y="676" on="0"/>
        <pt x="213" y="889" on="0"/>
        <pt x="358" y="995" on="0"/>
        <pt x="510" y="1038" on="0"/>
        <pt x="598" y="1038" on="1"/>
        <pt x="709" y="1038" on="0"/>
        <pt x="817" y="1008" on="1"/>
        <pt x="817" y="1411" on="1"/>
        <pt x="1004" y="1411" on="1"/>
        <pt x="1004" y="315" on="1"/>
        <pt x="1004" y="282" on="0"/>
        <pt x="991" y="217" on="0"/>
        <pt x="942" y="115" on="0"/>
        <pt x="858" y="39" on="0"/>
        <pt x="692" y="-16" on="0"/>
        <pt x="582" y="-16" on="1"/>
        <pt x="523" y="-16" on="0"/>
        <pt x="414" y="4" on="0"/>
        <pt x="285" y="74" on="0"/>
        <pt x="193" y="186" on="0"/>
        <pt x="129" y="389" on="0"/>
      </contour>
      <contour>
        <pt x="315" y="524" on="1"/>
        <pt x="315" y="405" on="0"/>
        <pt x="360" y="248" on="0"/>
        <pt x="444" y="176" on="0"/>
        <pt x="526" y="150" on="0"/>
        <pt x="582" y="150" on="1"/>
        <pt x="818" y="150" on="0"/>
        <pt x="817" y="303" on="1"/>
        <pt x="817" y="829" on="1"/>
        <pt x="713" y="872" on="0"/>
        <pt x="598" y="872" on="1"/>
        <pt x="537" y="872" on="0"/>
        <pt x="446" y="848" on="0"/>
        <pt x="360" y="780" on="0"/>
        <pt x="315" y="635" on="0"/>
      </contour>
    </TTGlyph>
    <TTGlyph name="degree" xMin="168" yMin="918" xMax="614" yMax="1370">
      <contour>
        <pt x="168" y="1143" on="1"/>
        <pt x="168" y="1254" on="0"/>
        <pt x="283" y="1370" on="0"/>
        <pt x="500" y="1370" on="0"/>
        <pt x="614" y="1253" on="0"/>
        <pt x="614" y="1143" on="1"/>
        <pt x="614" y="1034" on="0"/>
        <pt x="500" y="918" on="0"/>
        <pt x="283" y="918" on="0"/>
        <pt x="168" y="1034" on="0"/>
      </contour>
      <contour>
        <pt x="260" y="1219" on="0"/>
        <pt x="260" y="1067" on="0"/>
        <pt x="322" y="1001" on="0"/>
        <pt x="461" y="1001" on="0"/>
        <pt x="520" y="1067" on="0"/>
        <pt x="520" y="1219" on="0"/>
        <pt x="461" y="1284" on="0"/>
        <pt x="322" y="1284" on="0"/>
      </contour>
    </TTGlyph>
    <TTGlyph name="dieresis" xMin="162" yMin="1155" xMax="651" yMax="1329">
      <contour>
        <pt x="162" y="1155" on="1"/>
        <pt x="162" y="1329" on="1"/>
        <pt x="348" y="1329" on="1"/>
        <pt x="348" y="1155" on="1"/>
      </contour>
      <contour>
        <pt x="465" y="1155" on="1"/>
        <pt x="465" y="1329" on="1"/>
        <pt x="651" y="1329" on="1"/>
        <pt x="651" y="1155" on="1"/>
      </contour>
    </TTGlyph>
    <TTGlyph name="divide" xMin="227" yMin="143" xMax="1059" yMax="913">
      <contour>
        <pt x="227" y="453" on="1"/>
        <pt x="227" y="604" on="1"/>
        <pt x="1059" y="604" on="1"/>
        <pt x="1059" y="453" on="1"/>
      </contour>
      <contour>
        <pt x="549" y="143" on="1"/>
        <pt x="549" y="317" on="1"/>
        <pt x="735" y="317" on="1"/>
        <pt x="735" y="143" on="1"/>
      </contour>
      <contour>
        <pt x="549" y="739" on="1"/>
        <pt x="549" y="913" on="1"/>
        <pt x="735" y="913" on="1"/>
        <pt x="735" y="739" on="1"/>
      </contour>
    </TTGlyph>
    <TTGlyph name="dollar" xMin="158" yMin="-221" xMax="1075" yMax="1589">
      <contour>
        <pt x="158" y="993" on="1"/>
        <pt x="158" y="1138" on="0"/>
        <pt x="350" y="1360" on="0"/>
        <pt x="553" y="1380" on="1"/>
        <pt x="553" y="1589" on="1"/>
        <pt x="680" y="1589" on="1"/>
        <pt x="680" y="1382" on="1"/>
        <pt x="840" y="1372" on="0"/>
        <pt x="987" y="1296" on="1"/>
        <pt x="987" y="1108" on="1"/>
        <pt x="846" y="1194" on="0"/>
        <pt x="680" y="1198" on="1"/>
        <pt x="680" y="780" on="1"/>
        <pt x="766" y="749" on="0"/>
        <pt x="885" y="690" on="0"/>
        <pt x="1010" y="592" on="0"/>
        <pt x="1075" y="450" on="0"/>
        <pt x="1075" y="358" on="1"/>
        <pt x="1075" y="202" on="0"/>
        <pt x="868" y="10" on="0"/>
        <pt x="680" y="-10" on="1"/>
        <pt x="680" y="-221" on="1"/>
        <pt x="553" y="-221" on="1"/>
        <pt x="553" y="-14" on="1"/>
        <pt x="360" y="-8" on="0"/>
        <pt x="176" y="84" on="1"/>
        <pt x="176" y="281" on="1"/>
        <pt x="356" y="172" on="0"/>
        <pt x="553" y="166" on="1"/>
        <pt x="553" y="633" on="1"/>
        <pt x="477" y="656" on="0"/>
        <pt x="393" y="686" on="0"/>
        <pt x="272" y="748" on="0"/>
        <pt x="207" y="815" on="0"/>
        <pt x="158" y="926" on="0"/>
      </contour>
      <contour>
        <pt x="348" y="993" on="1"/>
        <pt x="348" y="936" on="0"/>
        <pt x="451" y="862" on="0"/>
        <pt x="553" y="825" on="1"/>
        <pt x="553" y="1192" on="1"/>
        <pt x="348" y="1157" on="0"/>
      </contour>
      <contour>
        <pt x="680" y="174" on="1"/>
        <pt x="885" y="209" on="0"/>
        <pt x="885" y="358" on="1"/>
        <pt x="885" y="444" on="0"/>
        <pt x="778" y="549" on="0"/>
        <pt x="680" y="588" on="1"/>
      </contour>
    </TTGlyph>
    <TTGlyph name="e" xMin="129" yMin="-18" xMax="1032" yMax="1038">
      <contour>
        <pt x="129" y="498" on="1"/>
        <pt x="129" y="1038" on="0"/>
        <pt x="580" y="1038" on="1"/>
        <pt x="581" y="1038" on="0"/>
        <pt x="582" y="1038" on="1"/>
        <pt x="787" y="1038" on="0"/>
        <pt x="1032" y="770" on="0"/>
        <pt x="1032" y="545" on="1"/>
        <pt x="1032" y="471" on="0"/>
        <pt x="1026" y="403" on="1"/>
        <pt x="322" y="403" on="1"/>
        <pt x="356" y="143" on="0"/>
        <pt x="610" y="143" on="1"/>
        <pt x="817" y="143" on="0"/>
        <pt x="963" y="219" on="1"/>
        <pt x="963" y="49" on="1"/>
        <pt x="805" y="-18" on="0"/>
        <pt x="606" y="-18" on="1"/>
        <pt x="603" y="-18" on="0"/>
        <pt x="600" y="-18" on="1"/>
        <pt x="510" y="-18" on="0"/>
        <pt x="358" y="27" on="0"/>
        <pt x="213" y="131" on="0"/>
        <pt x="129" y="346" on="0"/>
      </contour>
      <contour>
        <pt x="319" y="573" on="1"/>
        <pt x="844" y="573" on="1"/>
        <pt x="840" y="624" on="0"/>
        <pt x="813" y="717" on="0"/>
        <pt x="758" y="813" on="0"/>
        <pt x="654" y="870" on="0"/>
        <pt x="582" y="870" on="1"/>
        <pt x="453" y="870" on="0"/>
        <pt x="332" y="737" on="0"/>
      </contour>
    </TTGlyph>
    <TTGlyph name="eacute" xMin="129" yMin="-16" xMax="1032" yMax="1395">
      <contour>
        <pt x="129" y="500" on="1"/>
        <pt x="129" y="1040" on="0"/>
        <pt x="580" y="1040" on="1"/>
        <pt x="581" y="1040" on="0"/>
        <pt x="582" y="1040" on="1"/>
        <pt x="787" y="1040" on="0"/>
        <pt x="1032" y="772" on="0"/>
        <pt x="1032" y="547" on="1"/>
        <pt x="1032" y="473" on="0"/>
        <pt x="1026" y="406" on="1"/>
        <pt x="322" y="406" on="1"/>
        <pt x="357" y="146" on="0"/>
        <pt x="610" y="145" on="1"/>
        <pt x="811" y="145" on="0"/>
        <pt x="963" y="219" on="1"/>
        <pt x="963" y="51" on="1"/>
        <pt x="805" y="-16" on="0"/>
        <pt x="606" y="-16" on="1"/>
        <pt x="603" y="-16" on="0"/>
        <pt x="600" y="-16" on="1"/>
        <pt x="510" y="-16" on="0"/>
        <pt x="358" y="29" on="0"/>
        <pt x="213" y="133" on="0"/>
        <pt x="129" y="348" on="0"/>
      </contour>
      <contour>
        <pt x="319" y="575" on="1"/>
        <pt x="844" y="575" on="1"/>
        <pt x="840" y="626" on="0"/>
        <pt x="813" y="719" on="0"/>
        <pt x="758" y="815" on="0"/>
        <pt x="653" y="872" on="0"/>
        <pt x="582" y="872" on="1"/>
        <pt x="453" y="872" on="0"/>
        <pt x="331" y="739" on="0"/>
      </contour>
      <contour>
        <pt x="506" y="1155" on="1"/>
        <pt x="633" y="1395" on="1"/>
        <pt x="817" y="1395" on="1"/>
        <pt x="623" y="1155" on="1"/>
      </contour>
    </TTGlyph>
    <TTGlyph name="ecircumflex" xMin="129" yMin="-16" xMax="1032" yMax="1405">
      <contour>
        <pt x="129" y="500" on="1"/>
        <pt x="129" y="1040" on="0"/>
        <pt x="580" y="1040" on="1"/>
        <pt x="581" y="1040" on="0"/>
        <pt x="582" y="1040" on="1"/>
        <pt x="787" y="1040" on="0"/>
        <pt x="1032" y="772" on="0"/>
        <pt x="1032" y="547" on="1"/>
        <pt x="1032" y="473" on="0"/>
        <pt x="1026" y="406" on="1"/>
        <pt x="322" y="406" on="1"/>
        <pt x="357" y="146" on="0"/>
        <pt x="610" y="145" on="1"/>
        <pt x="811" y="145" on="0"/>
        <pt x="963" y="219" on="1"/>
        <pt x="963" y="51" on="1"/>
        <pt x="805" y="-16" on="0"/>
        <pt x="606" y="-16" on="1"/>
        <pt x="603" y="-16" on="0"/>
        <pt x="600" y="-16" on="1"/>
        <pt x="510" y="-16" on="0"/>
        <pt x="358" y="29" on="0"/>
        <pt x="213" y="133" on="0"/>
        <pt x="129" y="348" on="0"/>
      </contour>
      <contour>
        <pt x="319" y="575" on="1"/>
        <pt x="844" y="575" on="1"/>
        <pt x="840" y="626" on="0"/>
        <pt x="813" y="719" on="0"/>
        <pt x="758" y="815" on="0"/>
        <pt x="653" y="872" on="0"/>
        <pt x="582" y="872" on="1"/>
        <pt x="453" y="872" on="0"/>
        <pt x="331" y="739" on="0"/>
      </contour>
      <contour>
        <pt x="350" y="1155" on="1"/>
        <pt x="530" y="1405" on="1"/>
        <pt x="629" y="1405" on="1"/>
        <pt x="811" y="1155" on="1"/>
        <pt x="666" y="1155" on="1"/>
        <pt x="580" y="1288" on="1"/>
        <pt x="494" y="1155" on="1"/>
      </contour>
    </TTGlyph>
    <TTGlyph name="edieresis" xMin="129" yMin="-16" xMax="1032" yMax="1329">
      <contour>
        <pt x="129" y="500" on="1"/>
        <pt x="129" y="1040" on="0"/>
        <pt x="580" y="1040" on="1"/>
        <pt x="581" y="1040" on="0"/>
        <pt x="582" y="1040" on="1"/>
        <pt x="787" y="1040" on="0"/>
        <pt x="1032" y="772" on="0"/>
        <pt x="1032" y="547" on="1"/>
        <pt x="1032" y="473" on="0"/>
        <pt x="1026" y="406" on="1"/>
        <pt x="322" y="406" on="1"/>
        <pt x="357" y="146" on="0"/>
        <pt x="610" y="145" on="1"/>
        <pt x="811" y="145" on="0"/>
        <pt x="963" y="219" on="1"/>
        <pt x="963" y="51" on="1"/>
        <pt x="805" y="-16" on="0"/>
        <pt x="606" y="-16" on="1"/>
        <pt x="603" y="-16" on="0"/>
        <pt x="600" y="-16" on="1"/>
        <pt x="510" y="-16" on="0"/>
        <pt x="358" y="29" on="0"/>
        <pt x="213" y="133" on="0"/>
        <pt x="129" y="348" on="0"/>
      </contour>
      <contour>
        <pt x="319" y="575" on="1"/>
        <pt x="844" y="575" on="1"/>
        <pt x="840" y="626" on="0"/>
        <pt x="813" y="719" on="0"/>
        <pt x="758" y="815" on="0"/>
        <pt x="653" y="872" on="0"/>
        <pt x="582" y="872" on="1"/>
        <pt x="453" y="872" on="0"/>
        <pt x="331" y="739" on="0"/>
      </contour>
      <contour>
        <pt x="336" y="1155" on="1"/>
        <pt x="336" y="1329" on="1"/>
        <pt x="522" y="1329" on="1"/>
        <pt x="522" y="1155" on="1"/>
      </contour>
      <contour>
        <pt x="639" y="1155" on="1"/>
        <pt x="639" y="1329" on="1"/>
        <pt x="825" y="1329" on="1"/>
        <pt x="825" y="1155" on="1"/>
      </contour>
    </TTGlyph>
    <TTGlyph name="egrave" xMin="129" yMin="-16" xMax="1032" yMax="1395">
      <contour>
        <pt x="129" y="500" on="1"/>
        <pt x="129" y="1040" on="0"/>
        <pt x="580" y="1040" on="1"/>
        <pt x="581" y="1040" on="0"/>
        <pt x="582" y="1040" on="1"/>
        <pt x="787" y="1040" on="0"/>
        <pt x="1032" y="772" on="0"/>
        <pt x="1032" y="547" on="1"/>
        <pt x="1032" y="473" on="0"/>
        <pt x="1026" y="406" on="1"/>
        <pt x="322" y="406" on="1"/>
        <pt x="357" y="146" on="0"/>
        <pt x="610" y="145" on="1"/>
        <pt x="811" y="145" on="0"/>
        <pt x="963" y="219" on="1"/>
        <pt x="963" y="51" on="1"/>
        <pt x="805" y="-16" on="0"/>
        <pt x="606" y="-16" on="1"/>
        <pt x="603" y="-16" on="0"/>
        <pt x="600" y="-16" on="1"/>
        <pt x="510" y="-16" on="0"/>
        <pt x="358" y="29" on="0"/>
        <pt x="213" y="133" on="0"/>
        <pt x="129" y="348" on="0"/>
      </contour>
      <contour>
        <pt x="319" y="575" on="1"/>
        <pt x="844" y="575" on="1"/>
        <pt x="840" y="626" on="0"/>
        <pt x="813" y="719" on="0"/>
        <pt x="758" y="815" on="0"/>
        <pt x="653" y="872" on="0"/>
        <pt x="582" y="872" on="1"/>
        <pt x="453" y="872" on="0"/>
        <pt x="331" y="739" on="0"/>
      </contour>
      <contour>
        <pt x="346" y="1395" on="1"/>
        <pt x="530" y="1395" on="1"/>
        <pt x="657" y="1155" on="1"/>
        <pt x="541" y="1155" on="1"/>
      </contour>
    </TTGlyph>
    <TTGlyph name="eight" xMin="125" yMin="-16" xMax="1085" yMax="1382">
      <contour>
        <pt x="125" y="416" on="1"/>
        <pt x="125" y="520" on="0"/>
        <pt x="240" y="688" on="0"/>
        <pt x="330" y="735" on="1"/>
        <pt x="176" y="833" on="0"/>
        <pt x="176" y="1018" on="1"/>
        <pt x="176" y="1168" on="0"/>
        <pt x="387" y="1382" on="0"/>
        <pt x="825" y="1382" on="0"/>
        <pt x="1036" y="1167" on="0"/>
        <pt x="1036" y="1016" on="1"/>
        <pt x="1036" y="830" on="0"/>
        <pt x="885" y="737" on="1"/>
        <pt x="1085" y="632" on="0"/>
        <pt x="1085" y="418" on="1"/>
        <pt x="1085" y="238" on="0"/>
        <pt x="840" y="-16" on="0"/>
        <pt x="373" y="-16" on="0"/>
        <pt x="125" y="240" on="0"/>
      </contour>
      <contour>
        <pt x="315" y="414" on="1"/>
        <pt x="315" y="377" on="0"/>
        <pt x="334" y="303" on="0"/>
        <pt x="389" y="213" on="0"/>
        <pt x="514" y="158" on="0"/>
        <pt x="698" y="158" on="0"/>
        <pt x="823" y="213" on="0"/>
        <pt x="879" y="303" on="0"/>
        <pt x="897" y="377" on="0"/>
        <pt x="897" y="414" on="1"/>
        <pt x="897" y="639" on="0"/>
        <pt x="315" y="639" on="0"/>
      </contour>
      <contour>
        <pt x="365" y="1022" on="1"/>
        <pt x="365" y="991" on="0"/>
        <pt x="381" y="932" on="0"/>
        <pt x="426" y="856" on="0"/>
        <pt x="530" y="811" on="0"/>
        <pt x="682" y="811" on="0"/>
        <pt x="786" y="856" on="0"/>
        <pt x="829" y="932" on="0"/>
        <pt x="846" y="991" on="0"/>
        <pt x="846" y="1022" on="1"/>
        <pt x="846" y="1208" on="0"/>
        <pt x="606" y="1208" on="1"/>
        <pt x="365" y="1208" on="0"/>
      </contour>
    </TTGlyph>
    <TTGlyph name="ellipsis" xMin="219" yMin="0" xMax="1386" yMax="174">
      <contour>
        <pt x="219" y="0" on="1"/>
        <pt x="219" y="174" on="1"/>
        <pt x="406" y="174" on="1"/>
        <pt x="406" y="0" on="1"/>
      </contour>
      <contour>
        <pt x="711" y="0" on="1"/>
        <pt x="711" y="174" on="1"/>
        <pt x="897" y="174" on="1"/>
        <pt x="897" y="0" on="1"/>
      </contour>
      <contour>
        <pt x="1200" y="0" on="1"/>
        <pt x="1200" y="174" on="1"/>
        <pt x="1386" y="174" on="1"/>
        <pt x="1386" y="0" on="1"/>
      </contour>
    </TTGlyph>
    <TTGlyph name="emdash" xMin="162" yMin="516" xMax="1663" yMax="676">
      <contour>
        <pt x="162" y="516" on="1"/>
        <pt x="162" y="676" on="1"/>
        <pt x="1663" y="676" on="1"/>
        <pt x="1663" y="516" on="1"/>
      </contour>
    </TTGlyph>
    <TTGlyph name="endash" xMin="141" yMin="516" xMax="1001" yMax="676">
      <contour>
        <pt x="141" y="516" on="1"/>
        <pt x="141" y="676" on="1"/>
        <pt x="1001" y="676" on="1"/>
        <pt x="1001" y="516" on="1"/>
      </contour>
    </TTGlyph>
    <TTGlyph name="equal" xMin="260" yMin="365" xMax="1049" yMax="858">
      <contour>
        <pt x="260" y="365" on="1"/>
        <pt x="260" y="524" on="1"/>
        <pt x="1049" y="524" on="1"/>
        <pt x="1049" y="365" on="1"/>
      </contour>
      <contour>
        <pt x="260" y="698" on="1"/>
        <pt x="260" y="858" on="1"/>
        <pt x="1049" y="858" on="1"/>
        <pt x="1049" y="698" on="1"/>
      </contour>
    </TTGlyph>
    <TTGlyph name="eth" xMin="119" yMin="-16" xMax="1063" yMax="1411">
      <contour>
        <pt x="119" y="453" on="1"/>
        <pt x="119" y="635" on="0"/>
        <pt x="336" y="891" on="0"/>
        <pt x="575" y="891" on="1"/>
        <pt x="745" y="891" on="0"/>
        <pt x="860" y="819" on="1"/>
        <pt x="819" y="1012" on="0"/>
        <pt x="698" y="1112" on="1"/>
        <pt x="481" y="981" on="1"/>
        <pt x="414" y="1094" on="1"/>
        <pt x="565" y="1184" on="1"/>
        <pt x="502" y="1206" on="0"/>
        <pt x="416" y="1206" on="1"/>
        <pt x="412" y="1206" on="0"/>
        <pt x="408" y="1206" on="1"/>
        <pt x="334" y="1206" on="0"/>
        <pt x="252" y="1188" on="1"/>
        <pt x="252" y="1360" on="1"/>
        <pt x="333" y="1382" on="0"/>
        <pt x="430" y="1382" on="1"/>
        <pt x="434" y="1382" on="0"/>
        <pt x="438" y="1382" on="1"/>
        <pt x="622" y="1382" on="0"/>
        <pt x="760" y="1303" on="1"/>
        <pt x="938" y="1411" on="1"/>
        <pt x="1006" y="1298" on="1"/>
        <pt x="870" y="1217" on="1"/>
        <pt x="1063" y="1020" on="0"/>
        <pt x="1063" y="627" on="1"/>
        <pt x="1063" y="-16" on="0"/>
        <pt x="590" y="-16" on="1"/>
        <pt x="361" y="-16" on="0"/>
        <pt x="119" y="260" on="0"/>
      </contour>
      <contour>
        <pt x="309" y="453" on="1"/>
        <pt x="309" y="410" on="0"/>
        <pt x="328" y="326" on="0"/>
        <pt x="379" y="221" on="0"/>
        <pt x="502" y="156" on="0"/>
        <pt x="590" y="156" on="1"/>
        <pt x="629" y="156" on="0"/>
        <pt x="680" y="162" on="0"/>
        <pt x="770" y="209" on="0"/>
        <pt x="825" y="299" on="0"/>
        <pt x="870" y="485" on="0"/>
        <pt x="872" y="616" on="1"/>
        <pt x="766" y="716" on="0"/>
        <pt x="590" y="717" on="1"/>
        <pt x="309" y="717" on="0"/>
      </contour>
    </TTGlyph>
    <TTGlyph name="exclam" xMin="299" yMin="0" xMax="494" yMax="1366">
      <contour>
        <pt x="299" y="1366" on="1"/>
        <pt x="494" y="1366" on="1"/>
        <pt x="477" y="334" on="1"/>
        <pt x="315" y="334" on="1"/>
      </contour>
      <contour>
        <pt x="303" y="0" on="1"/>
        <pt x="303" y="174" on="1"/>
        <pt x="489" y="174" on="1"/>
        <pt x="489" y="0" on="1"/>
      </contour>
    </TTGlyph>
    <TTGlyph name="exclamdown" xMin="299" yMin="-344" xMax="494" yMax="1022">
      <contour>
        <pt x="299" y="-344" on="1"/>
        <pt x="315" y="686" on="1"/>
        <pt x="477" y="686" on="1"/>
        <pt x="494" y="-344" on="1"/>
      </contour>
      <contour>
        <pt x="303" y="848" on="1"/>
        <pt x="303" y="1022" on="1"/>
        <pt x="489" y="1022" on="1"/>
        <pt x="489" y="848" on="1"/>
      </contour>
    </TTGlyph>
    <TTGlyph name="f" xMin="82" yMin="0" xMax="676" yMax="1452">
      <contour>
        <pt x="82" y="858" on="1"/>
        <pt x="82" y="1022" on="1"/>
        <pt x="225" y="1022" on="1"/>
        <pt x="225" y="1071" on="1"/>
        <pt x="225" y="1452" on="0"/>
        <pt x="565" y="1452" on="1"/>
        <pt x="622" y="1452" on="0"/>
        <pt x="676" y="1438" on="1"/>
        <pt x="676" y="1276" on="1"/>
        <pt x="635" y="1284" on="0"/>
        <pt x="600" y="1284" on="1"/>
        <pt x="553" y="1284" on="0"/>
        <pt x="504" y="1276" on="0"/>
        <pt x="440" y="1239" on="0"/>
        <pt x="412" y="1147" on="0"/>
        <pt x="412" y="1071" on="1"/>
        <pt x="412" y="1022" on="1"/>
        <pt x="676" y="1022" on="1"/>
        <pt x="676" y="858" on="1"/>
        <pt x="412" y="858" on="1"/>
        <pt x="412" y="0" on="1"/>
        <pt x="225" y="0" on="1"/>
        <pt x="225" y="858" on="1"/>
      </contour>
    </TTGlyph>
    <TTGlyph name="five" xMin="178" yMin="-16" xMax="1073" yMax="1366">
      <contour>
        <pt x="178" y="739" on="1"/>
        <pt x="248" y="1366" on="1"/>
        <pt x="1004" y="1366" on="1"/>
        <pt x="1004" y="1190" on="1"/>
        <pt x="414" y="1190" on="1"/>
        <pt x="381" y="842" on="1"/>
        <pt x="477" y="868" on="0"/>
        <pt x="580" y="868" on="1"/>
        <pt x="584" y="868" on="0"/>
        <pt x="588" y="868" on="1"/>
        <pt x="826" y="868" on="0"/>
        <pt x="1073" y="643" on="0"/>
        <pt x="1073" y="209" on="0"/>
        <pt x="825" y="-16" on="0"/>
        <pt x="350" y="-16" on="0"/>
        <pt x="186" y="86" on="1"/>
        <pt x="186" y="291" on="1"/>
        <pt x="319" y="166" on="0"/>
        <pt x="571" y="166" on="1"/>
        <pt x="751" y="166" on="0"/>
        <pt x="883" y="297" on="0"/>
        <pt x="883" y="426" on="1"/>
        <pt x="883" y="557" on="0"/>
        <pt x="745" y="688" on="0"/>
        <pt x="551" y="688" on="1"/>
        <pt x="401" y="688" on="0"/>
        <pt x="274" y="639" on="1"/>
      </contour>
    </TTGlyph>
    <TTGlyph name="four" xMin="78" yMin="0" xMax="1085" yMax="1366">
      <contour>
        <pt x="78" y="430" on="1"/>
        <pt x="78" y="600" on="1"/>
        <pt x="678" y="1366" on="1"/>
        <pt x="891" y="1366" on="1"/>
        <pt x="891" y="600" on="1"/>
        <pt x="1085" y="600" on="1"/>
        <pt x="1085" y="430" on="1"/>
        <pt x="891" y="430" on="1"/>
        <pt x="891" y="0" on="1"/>
        <pt x="700" y="0" on="1"/>
        <pt x="700" y="430" on="1"/>
      </contour>
      <contour>
        <pt x="303" y="600" on="1"/>
        <pt x="700" y="600" on="1"/>
        <pt x="700" y="1094" on="1"/>
      </contour>
    </TTGlyph>
    <TTGlyph name="g" xMin="123" yMin="-401" xMax="971" yMax="1040">
      <contour>
        <pt x="123" y="518" on="1"/>
        <pt x="123" y="756" on="0"/>
        <pt x="338" y="1040" on="0"/>
        <pt x="561" y="1040" on="1"/>
        <pt x="747" y="1040" on="0"/>
        <pt x="971" y="872" on="0"/>
        <pt x="971" y="717" on="1"/>
        <pt x="971" y="-43" on="1"/>
        <pt x="971" y="-111" on="0"/>
        <pt x="932" y="-227" on="0"/>
        <pt x="840" y="-338" on="0"/>
        <pt x="655" y="-401" on="0"/>
        <pt x="522" y="-401" on="1"/>
        <pt x="368" y="-401" on="0"/>
        <pt x="219" y="-358" on="1"/>
        <pt x="219" y="-180" on="1"/>
        <pt x="364" y="-225" on="0"/>
        <pt x="506" y="-225" on="1"/>
        <pt x="604" y="-225" on="0"/>
        <pt x="727" y="-190" on="0"/>
        <pt x="774" y="-125" on="0"/>
        <pt x="784" y="-80" on="0"/>
        <pt x="784" y="-43" on="1"/>
        <pt x="784" y="47" on="1"/>
        <pt x="680" y="18" on="0"/>
        <pt x="578" y="18" on="1"/>
        <pt x="359" y="18" on="0"/>
        <pt x="123" y="276" on="0"/>
      </contour>
      <contour>
        <pt x="311" y="518" on="1"/>
        <pt x="311" y="319" on="0"/>
        <pt x="453" y="188" on="0"/>
        <pt x="578" y="188" on="1"/>
        <pt x="688" y="188" on="0"/>
        <pt x="784" y="227" on="1"/>
        <pt x="784" y="729" on="1"/>
        <pt x="784" y="752" on="0"/>
        <pt x="776" y="784" on="0"/>
        <pt x="739" y="842" on="0"/>
        <pt x="639" y="872" on="0"/>
        <pt x="561" y="872" on="1"/>
        <pt x="510" y="872" on="0"/>
        <pt x="434" y="848" on="0"/>
        <pt x="354" y="780" on="0"/>
        <pt x="311" y="631" on="0"/>
      </contour>
    </TTGlyph>
    <TTGlyph name="germandbls" xMin="180" yMin="0" xMax="1141" yMax="1384">
      <contour>
        <pt x="180" y="0" on="1"/>
        <pt x="180" y="862" on="1"/>
        <pt x="180" y="1016" on="0"/>
        <pt x="258" y="1233" on="0"/>
        <pt x="393" y="1339" on="0"/>
        <pt x="532" y="1384" on="0"/>
        <pt x="616" y="1384" on="1"/>
        <pt x="852" y="1384" on="0"/>
        <pt x="1075" y="1155" on="0"/>
        <pt x="1075" y="993" on="1"/>
        <pt x="1075" y="805" on="0"/>
        <pt x="887" y="713" on="1"/>
        <pt x="1141" y="639" on="0"/>
        <pt x="1141" y="397" on="1"/>
        <pt x="1141" y="211" on="0"/>
        <pt x="840" y="0" on="0"/>
        <pt x="590" y="0" on="1"/>
        <pt x="590" y="174" on="1"/>
        <pt x="651" y="174" on="0"/>
        <pt x="760" y="195" on="0"/>
        <pt x="877" y="240" on="0"/>
        <pt x="946" y="336" on="0"/>
        <pt x="946" y="406" on="1"/>
        <pt x="946" y="623" on="0"/>
        <pt x="590" y="637" on="1"/>
        <pt x="590" y="780" on="1"/>
        <pt x="883" y="784" on="0"/>
        <pt x="883" y="999" on="1"/>
        <pt x="883" y="1218" on="0"/>
        <pt x="616" y="1219" on="1"/>
        <pt x="563" y="1219" on="0"/>
        <pt x="485" y="1192" on="0"/>
        <pt x="412" y="1120" on="0"/>
        <pt x="373" y="969" on="0"/>
        <pt x="373" y="854" on="1"/>
        <pt x="373" y="0" on="1"/>
      </contour>
    </TTGlyph>
    <TTGlyph name="grave" xMin="90" yMin="1155" xMax="401" yMax="1395">
      <contour>
        <pt x="90" y="1395" on="1"/>
        <pt x="274" y="1395" on="1"/>
        <pt x="401" y="1155" on="1"/>
        <pt x="285" y="1155" on="1"/>
      </contour>
    </TTGlyph>
    <TTGlyph name="greater" xMin="270" yMin="98" xMax="1118" yMax="1004">
      <contour>
        <pt x="270" y="98" on="1"/>
        <pt x="270" y="279" on="1"/>
        <pt x="911" y="551" on="1"/>
        <pt x="270" y="823" on="1"/>
        <pt x="270" y="1004" on="1"/>
        <pt x="1118" y="625" on="1"/>
        <pt x="1118" y="477" on="1"/>
      </contour>
    </TTGlyph>
    <TTGlyph name="guillemotleft" xMin="63" yMin="131" xMax="1067" yMax="911">
      <contour>
        <pt x="63" y="522" on="1"/>
        <pt x="410" y="911" on="1"/>
        <pt x="633" y="911" on="1"/>
        <pt x="268" y="522" on="1"/>
        <pt x="633" y="131" on="1"/>
        <pt x="410" y="131" on="1"/>
      </contour>
      <contour>
        <pt x="498" y="522" on="1"/>
        <pt x="844" y="911" on="1"/>
        <pt x="1067" y="911" on="1"/>
        <pt x="702" y="522" on="1"/>
        <pt x="1067" y="131" on="1"/>
        <pt x="844" y="131" on="1"/>
      </contour>
    </TTGlyph>
    <TTGlyph name="guillemotright" xMin="137" yMin="131" xMax="1141" yMax="911">
      <contour>
        <pt x="137" y="131" on="1"/>
        <pt x="502" y="522" on="1"/>
        <pt x="137" y="911" on="1"/>
        <pt x="360" y="911" on="1"/>
        <pt x="707" y="522" on="1"/>
        <pt x="360" y="131" on="1"/>
      </contour>
      <contour>
        <pt x="571" y="131" on="1"/>
        <pt x="936" y="522" on="1"/>
        <pt x="571" y="911" on="1"/>
        <pt x="795" y="911" on="1"/>
        <pt x="1141" y="522" on="1"/>
        <pt x="795" y="131" on="1"/>
      </contour>
    </TTGlyph>
    <TTGlyph name="guilsinglleft" xMin="63" yMin="131" xMax="633" yMax="911">
      <contour>
        <pt x="63" y="522" on="1"/>
        <pt x="410" y="911" on="1"/>
        <pt x="633" y="911" on="1"/>
        <pt x="268" y="522" on="1"/>
        <pt x="633" y="131" on="1"/>
        <pt x="410" y="131" on="1"/>
      </contour>
    </TTGlyph>
    <TTGlyph name="guilsinglright" xMin="137" yMin="131" xMax="707" yMax="911">
      <contour>
        <pt x="137" y="131" on="1"/>
        <pt x="502" y="522" on="1"/>
        <pt x="137" y="911" on="1"/>
        <pt x="360" y="911" on="1"/>
        <pt x="707" y="522" on="1"/>
        <pt x="360" y="131" on="1"/>
      </contour>
    </TTGlyph>
    <TTGlyph name="h" xMin="193" yMin="0" xMax="1051" yMax="1411">
      <contour>
        <pt x="193" y="0" on="1"/>
        <pt x="193" y="1411" on="1"/>
        <pt x="381" y="1411" on="1"/>
        <pt x="381" y="987" on="1"/>
        <pt x="512" y="1038" on="0"/>
        <pt x="651" y="1038" on="1"/>
        <pt x="841" y="1038" on="0"/>
        <pt x="1051" y="811" on="0"/>
        <pt x="1051" y="602" on="1"/>
        <pt x="1051" y="0" on="1"/>
        <pt x="862" y="0" on="1"/>
        <pt x="862" y="608" on="1"/>
        <pt x="862" y="758" on="0"/>
        <pt x="735" y="858" on="0"/>
        <pt x="633" y="858" on="1"/>
        <pt x="508" y="858" on="0"/>
        <pt x="381" y="809" on="1"/>
        <pt x="381" y="0" on="1"/>
      </contour>
    </TTGlyph>
    <TTGlyph name="hyphen" xMin="162" yMin="530" xMax="786" yMax="690">
      <contour>
        <pt x="162" y="530" on="1"/>
        <pt x="162" y="690" on="1"/>
        <pt x="786" y="690" on="1"/>
        <pt x="786" y="530" on="1"/>
      </contour>
    </TTGlyph>
    <TTGlyph name="i" xMin="195" yMin="0" xMax="395" yMax="1378">
      <contour>
        <pt x="195" y="1180" on="1"/>
        <pt x="195" y="1378" on="1"/>
        <pt x="395" y="1378" on="1"/>
        <pt x="395" y="1180" on="1"/>
      </contour>
      <contour>
        <pt x="201" y="0" on="1"/>
        <pt x="201" y="1022" on="1"/>
        <pt x="389" y="1022" on="1"/>
        <pt x="389" y="0" on="1"/>
      </contour>
    </TTGlyph>
    <TTGlyph name="iacute" xMin="201" yMin="0" xMax="547" yMax="1395">
      <contour>
        <pt x="201" y="0" on="1"/>
        <pt x="201" y="1022" on="1"/>
        <pt x="389" y="1022" on="1"/>
        <pt x="389" y="0" on="1"/>
      </contour>
      <contour>
        <pt x="236" y="1155" on="1"/>
        <pt x="362" y="1395" on="1"/>
        <pt x="547" y="1395" on="1"/>
        <pt x="352" y="1155" on="1"/>
      </contour>
    </TTGlyph>
    <TTGlyph name="icircumflex" xMin="63" yMin="0" xMax="524" yMax="1405">
      <contour>
        <pt x="63" y="1155" on="1"/>
        <pt x="244" y="1405" on="1"/>
        <pt x="342" y="1405" on="1"/>
        <pt x="524" y="1155" on="1"/>
        <pt x="379" y="1155" on="1"/>
        <pt x="293" y="1288" on="1"/>
        <pt x="207" y="1155" on="1"/>
      </contour>
      <contour>
        <pt x="201" y="0" on="1"/>
        <pt x="389" y="0" on="1"/>
        <pt x="389" y="1022" on="1"/>
        <pt x="201" y="1022" on="1"/>
      </contour>
    </TTGlyph>
    <TTGlyph name="idieresis" xMin="49" yMin="0" xMax="539" yMax="1329">
      <contour>
        <pt x="49" y="1155" on="1"/>
        <pt x="49" y="1329" on="1"/>
        <pt x="236" y="1329" on="1"/>
        <pt x="236" y="1155" on="1"/>
      </contour>
      <contour>
        <pt x="201" y="0" on="1"/>
        <pt x="389" y="0" on="1"/>
        <pt x="389" y="1022" on="1"/>
        <pt x="201" y="1022" on="1"/>
      </contour>
      <contour>
        <pt x="352" y="1155" on="1"/>
        <pt x="352" y="1329" on="1"/>
        <pt x="539" y="1329" on="1"/>
        <pt x="539" y="1155" on="1"/>
      </contour>
    </TTGlyph>
    <TTGlyph name="igrave" xMin="41" yMin="0" xMax="389" yMax="1395">
      <contour>
        <pt x="41" y="1395" on="1"/>
        <pt x="225" y="1395" on="1"/>
        <pt x="352" y="1155" on="1"/>
        <pt x="236" y="1155" on="1"/>
      </contour>
      <contour>
        <pt x="201" y="0" on="1"/>
        <pt x="389" y="0" on="1"/>
        <pt x="389" y="1022" on="1"/>
        <pt x="201" y="1022" on="1"/>
      </contour>
    </TTGlyph>
    <TTGlyph name="j" xMin="6" yMin="-401" xMax="375" yMax="1378">
      <contour>
        <pt x="6" y="-242" on="1"/>
        <pt x="115" y="-242" on="0"/>
        <pt x="182" y="-147" on="0"/>
        <pt x="182" y="-59" on="1"/>
        <pt x="182" y="1022" on="1"/>
        <pt x="369" y="1022" on="1"/>
        <pt x="369" y="-59" on="1"/>
        <pt x="369" y="-401" on="0"/>
        <pt x="6" y="-401" on="1"/>
      </contour>
      <contour>
        <pt x="176" y="1180" on="1"/>
        <pt x="176" y="1378" on="1"/>
        <pt x="375" y="1378" on="1"/>
        <pt x="375" y="1180" on="1"/>
      </contour>
    </TTGlyph>
    <TTGlyph name="k" xMin="188" yMin="0" xMax="1130" yMax="1411">
      <contour>
        <pt x="188" y="0" on="1"/>
        <pt x="188" y="1411" on="1"/>
        <pt x="375" y="1411" on="1"/>
        <pt x="375" y="594" on="1"/>
        <pt x="817" y="1022" on="1"/>
        <pt x="1071" y="1022" on="1"/>
        <pt x="627" y="596" on="1"/>
        <pt x="1130" y="0" on="1"/>
        <pt x="881" y="0" on="1"/>
        <pt x="502" y="475" on="1"/>
        <pt x="375" y="352" on="1"/>
        <pt x="375" y="0" on="1"/>
      </contour>
    </TTGlyph>
    <TTGlyph name="l" xMin="207" yMin="0" xMax="395" yMax="1411">
      <contour>
        <pt x="207" y="0" on="1"/>
        <pt x="207" y="1411" on="1"/>
        <pt x="395" y="1411" on="1"/>
        <pt x="395" y="0" on="1"/>
      </contour>
    </TTGlyph>
    <TTGlyph name="less" xMin="246" yMin="98" xMax="1096" yMax="1004">
      <contour>
        <pt x="246" y="477" on="1"/>
        <pt x="246" y="625" on="1"/>
        <pt x="1096" y="1004" on="1"/>
        <pt x="1096" y="823" on="1"/>
        <pt x="453" y="551" on="1"/>
        <pt x="1096" y="279" on="1"/>
        <pt x="1096" y="98" on="1"/>
      </contour>
    </TTGlyph>
    <TTGlyph name="logicalnot" xMin="199" yMin="324" xMax="1075" yMax="684">
      <contour>
        <pt x="199" y="528" on="1"/>
        <pt x="199" y="684" on="1"/>
        <pt x="1075" y="684" on="1"/>
        <pt x="1075" y="324" on="1"/>
        <pt x="924" y="324" on="1"/>
        <pt x="924" y="528" on="1"/>
      </contour>
    </TTGlyph>
    <TTGlyph name="m" xMin="193" yMin="0" xMax="1675" yMax="1040">
      <contour>
        <pt x="193" y="0" on="1"/>
        <pt x="193" y="938" on="1"/>
        <pt x="398" y="1040" on="0"/>
        <pt x="618" y="1040" on="1"/>
        <pt x="784" y="1040" on="0"/>
        <pt x="891" y="963" on="1"/>
        <pt x="1084" y="1040" on="0"/>
        <pt x="1266" y="1040" on="1"/>
        <pt x="1459" y="1040" on="0"/>
        <pt x="1675" y="838" on="0"/>
        <pt x="1675" y="657" on="1"/>
        <pt x="1675" y="0" on="1"/>
        <pt x="1489" y="0" on="1"/>
        <pt x="1489" y="670" on="1"/>
        <pt x="1489" y="758" on="0"/>
        <pt x="1403" y="866" on="0"/>
        <pt x="1278" y="866" on="1"/>
        <pt x="1143" y="866" on="0"/>
        <pt x="1004" y="809" on="1"/>
        <pt x="1028" y="744" on="0"/>
        <pt x="1028" y="663" on="1"/>
        <pt x="1028" y="660" on="0"/>
        <pt x="1028" y="657" on="1"/>
        <pt x="1028" y="0" on="1"/>
        <pt x="840" y="0" on="1"/>
        <pt x="840" y="668" on="1"/>
        <pt x="840" y="758" on="0"/>
        <pt x="745" y="862" on="0"/>
        <pt x="604" y="862" on="1"/>
        <pt x="495" y="862" on="0"/>
        <pt x="381" y="831" on="1"/>
        <pt x="381" y="0" on="1"/>
      </contour>
    </TTGlyph>
    <TTGlyph name="macron" xMin="176" yMin="1180" xMax="653" yMax="1303">
      <contour>
        <pt x="176" y="1180" on="1"/>
        <pt x="176" y="1303" on="1"/>
        <pt x="653" y="1303" on="1"/>
        <pt x="653" y="1180" on="1"/>
      </contour>
    </TTGlyph>
    <TTGlyph name="multiply" xMin="158" yMin="160" xMax="887" yMax="889">
      <contour>
        <pt x="158" y="160" on="1"/>
        <pt x="440" y="524" on="1"/>
        <pt x="158" y="889" on="1"/>
        <pt x="322" y="889" on="1"/>
        <pt x="522" y="631" on="1"/>
        <pt x="725" y="889" on="1"/>
        <pt x="887" y="889" on="1"/>
        <pt x="606" y="524" on="1"/>
        <pt x="887" y="160" on="1"/>
        <pt x="725" y="160" on="1"/>
        <pt x="522" y="418" on="1"/>
        <pt x="322" y="160" on="1"/>
      </contour>
    </TTGlyph>
    <TTGlyph name="n" xMin="168" yMin="0" xMax="1016" yMax="1040">
      <contour>
        <pt x="168" y="0" on="1"/>
        <pt x="168" y="934" on="1"/>
        <pt x="381" y="1040" on="0"/>
        <pt x="604" y="1040" on="1"/>
        <pt x="797" y="1040" on="0"/>
        <pt x="1016" y="838" on="0"/>
        <pt x="1016" y="659" on="1"/>
        <pt x="1016" y="0" on="1"/>
        <pt x="827" y="0" on="1"/>
        <pt x="827" y="672" on="1"/>
        <pt x="827" y="762" on="0"/>
        <pt x="735" y="866" on="0"/>
        <pt x="596" y="866" on="1"/>
        <pt x="471" y="866" on="0"/>
        <pt x="356" y="829" on="1"/>
        <pt x="356" y="0" on="1"/>
      </contour>
    </TTGlyph>
    <TTGlyph name="nine" xMin="119" yMin="-16" xMax="1063" yMax="1382">
      <contour>
        <pt x="119" y="913" on="1"/>
        <pt x="119" y="1106" on="0"/>
        <pt x="360" y="1382" on="0"/>
        <pt x="592" y="1382" on="1"/>
        <pt x="1063" y="1382" on="0"/>
        <pt x="1063" y="739" on="1"/>
        <pt x="1063" y="598" on="0"/>
        <pt x="1012" y="367" on="0"/>
        <pt x="932" y="215" on="0"/>
        <pt x="819" y="98" on="0"/>
        <pt x="709" y="35" on="0"/>
        <pt x="580" y="-4" on="0"/>
        <pt x="485" y="-16" on="0"/>
        <pt x="438" y="-16" on="1"/>
        <pt x="332" y="-16" on="0"/>
        <pt x="227" y="12" on="1"/>
        <pt x="227" y="184" on="1"/>
        <pt x="312" y="160" on="0"/>
        <pt x="403" y="160" on="1"/>
        <pt x="406" y="160" on="0"/>
        <pt x="410" y="160" on="1"/>
        <pt x="590" y="160" on="0"/>
        <pt x="821" y="360" on="0"/>
        <pt x="860" y="547" on="1"/>
        <pt x="749" y="475" on="0"/>
        <pt x="575" y="475" on="1"/>
        <pt x="335" y="475" on="0"/>
        <pt x="119" y="731" on="0"/>
      </contour>
      <contour>
        <pt x="309" y="913" on="1"/>
        <pt x="309" y="649" on="0"/>
        <pt x="592" y="649" on="1"/>
        <pt x="768" y="649" on="0"/>
        <pt x="874" y="750" on="1"/>
        <pt x="872" y="881" on="0"/>
        <pt x="827" y="1067" on="0"/>
        <pt x="772" y="1157" on="0"/>
        <pt x="682" y="1204" on="0"/>
        <pt x="631" y="1210" on="0"/>
        <pt x="592" y="1210" on="1"/>
        <pt x="502" y="1210" on="0"/>
        <pt x="379" y="1145" on="0"/>
        <pt x="328" y="1040" on="0"/>
        <pt x="309" y="956" on="0"/>
      </contour>
    </TTGlyph>
    <TTGlyph name="ntilde" xMin="168" yMin="0" xMax="1016" yMax="1363">
      <contour>
        <pt x="168" y="0" on="1"/>
        <pt x="168" y="934" on="1"/>
        <pt x="381" y="1040" on="0"/>
        <pt x="604" y="1040" on="1"/>
        <pt x="797" y="1040" on="0"/>
        <pt x="1016" y="838" on="0"/>
        <pt x="1016" y="659" on="1"/>
        <pt x="1016" y="0" on="1"/>
        <pt x="827" y="0" on="1"/>
        <pt x="827" y="672" on="1"/>
        <pt x="827" y="762" on="0"/>
        <pt x="735" y="866" on="0"/>
        <pt x="596" y="866" on="1"/>
        <pt x="471" y="866" on="0"/>
        <pt x="356" y="829" on="1"/>
        <pt x="356" y="0" on="1"/>
      </contour>
      <contour>
        <pt x="281" y="1153" on="1"/>
        <pt x="281" y="1288" on="1"/>
        <pt x="338" y="1356" on="0"/>
        <pt x="404" y="1362" on="1"/>
        <pt x="415" y="1363" on="0"/>
        <pt x="426" y="1363" on="1"/>
        <pt x="481" y="1363" on="0"/>
        <pt x="532" y="1338" on="1"/>
        <pt x="654" y="1277" on="1"/>
        <pt x="704" y="1252" on="0"/>
        <pt x="757" y="1252" on="1"/>
        <pt x="769" y="1252" on="0"/>
        <pt x="780" y="1254" on="1"/>
        <pt x="846" y="1260" on="0"/>
        <pt x="903" y="1327" on="1"/>
        <pt x="903" y="1192" on="1"/>
        <pt x="846" y="1124" on="0"/>
        <pt x="780" y="1118" on="1"/>
        <pt x="769" y="1117" on="0"/>
        <pt x="758" y="1117" on="1"/>
        <pt x="705" y="1117" on="0"/>
        <pt x="654" y="1142" on="1"/>
        <pt x="532" y="1202" on="1"/>
        <pt x="481" y="1228" on="0"/>
        <pt x="426" y="1228" on="1"/>
        <pt x="415" y="1228" on="0"/>
        <pt x="404" y="1227" on="1"/>
        <pt x="338" y="1221" on="0"/>
      </contour>
    </TTGlyph>
    <TTGlyph name="numbersign" xMin="145" yMin="39" xMax="1085" yMax="1069">
      <contour>
        <pt x="145" y="260" on="1"/>
        <pt x="145" y="395" on="1"/>
        <pt x="328" y="395" on="1"/>
        <pt x="383" y="713" on="1"/>
        <pt x="203" y="713" on="1"/>
        <pt x="203" y="848" on="1"/>
        <pt x="406" y="848" on="1"/>
        <pt x="444" y="1069" on="1"/>
        <pt x="588" y="1069" on="1"/>
        <pt x="549" y="848" on="1"/>
        <pt x="805" y="848" on="1"/>
        <pt x="844" y="1069" on="1"/>
        <pt x="987" y="1069" on="1"/>
        <pt x="948" y="848" on="1"/>
        <pt x="1085" y="848" on="1"/>
        <pt x="1085" y="713" on="1"/>
        <pt x="926" y="713" on="1"/>
        <pt x="870" y="395" on="1"/>
        <pt x="1028" y="395" on="1"/>
        <pt x="1028" y="260" on="1"/>
        <pt x="848" y="260" on="1"/>
        <pt x="809" y="39" on="1"/>
        <pt x="666" y="39" on="1"/>
        <pt x="705" y="260" on="1"/>
        <pt x="446" y="260" on="1"/>
        <pt x="410" y="39" on="1"/>
        <pt x="266" y="39" on="1"/>
        <pt x="305" y="260" on="1"/>
      </contour>
      <contour>
        <pt x="471" y="395" on="1"/>
        <pt x="727" y="395" on="1"/>
        <pt x="782" y="713" on="1"/>
        <pt x="526" y="713" on="1"/>
      </contour>
    </TTGlyph>
    <TTGlyph name="o" xMin="100" yMin="-16" xMax="1063" yMax="1036">
      <contour>
        <pt x="100" y="354" on="0"/>
        <pt x="100" y="666" on="0"/>
        <pt x="186" y="883" on="0"/>
        <pt x="334" y="991" on="0"/>
        <pt x="489" y="1036" on="0"/>
        <pt x="674" y="1036" on="0"/>
        <pt x="829" y="991" on="0"/>
        <pt x="977" y="883" on="0"/>
        <pt x="1063" y="666" on="0"/>
        <pt x="1063" y="354" on="0"/>
        <pt x="977" y="137" on="0"/>
        <pt x="829" y="29" on="0"/>
        <pt x="674" y="-16" on="0"/>
        <pt x="489" y="-16" on="0"/>
        <pt x="334" y="29" on="0"/>
        <pt x="186" y="137" on="0"/>
      </contour>
      <contour>
        <pt x="289" y="625" on="0"/>
        <pt x="289" y="395" on="0"/>
        <pt x="334" y="246" on="0"/>
        <pt x="424" y="174" on="0"/>
        <pt x="516" y="150" on="0"/>
        <pt x="647" y="150" on="0"/>
        <pt x="739" y="174" on="0"/>
        <pt x="829" y="246" on="0"/>
        <pt x="874" y="395" on="0"/>
        <pt x="874" y="625" on="0"/>
        <pt x="829" y="774" on="0"/>
        <pt x="739" y="846" on="0"/>
        <pt x="647" y="870" on="0"/>
        <pt x="516" y="870" on="0"/>
        <pt x="424" y="846" on="0"/>
        <pt x="334" y="774" on="0"/>
      </contour>
    </TTGlyph>
    <TTGlyph name="oacute" xMin="100" yMin="-16" xMax="1063" yMax="1395">
      <contour>
        <pt x="100" y="354" on="0"/>
        <pt x="100" y="666" on="0"/>
        <pt x="186" y="883" on="0"/>
        <pt x="334" y="991" on="0"/>
        <pt x="489" y="1036" on="0"/>
        <pt x="674" y="1036" on="0"/>
        <pt x="829" y="991" on="0"/>
        <pt x="977" y="883" on="0"/>
        <pt x="1063" y="666" on="0"/>
        <pt x="1063" y="354" on="0"/>
        <pt x="977" y="137" on="0"/>
        <pt x="829" y="29" on="0"/>
        <pt x="674" y="-16" on="0"/>
        <pt x="489" y="-16" on="0"/>
        <pt x="334" y="29" on="0"/>
        <pt x="186" y="137" on="0"/>
      </contour>
      <contour>
        <pt x="289" y="625" on="0"/>
        <pt x="289" y="395" on="0"/>
        <pt x="334" y="246" on="0"/>
        <pt x="424" y="174" on="0"/>
        <pt x="516" y="150" on="0"/>
        <pt x="647" y="150" on="0"/>
        <pt x="739" y="174" on="0"/>
        <pt x="829" y="246" on="0"/>
        <pt x="874" y="395" on="0"/>
        <pt x="874" y="625" on="0"/>
        <pt x="829" y="774" on="0"/>
        <pt x="739" y="846" on="0"/>
        <pt x="647" y="870" on="0"/>
        <pt x="516" y="870" on="0"/>
        <pt x="424" y="846" on="0"/>
        <pt x="334" y="774" on="0"/>
      </contour>
      <contour>
        <pt x="532" y="1155" on="1"/>
        <pt x="659" y="1395" on="1"/>
        <pt x="844" y="1395" on="1"/>
        <pt x="649" y="1155" on="1"/>
      </contour>
    </TTGlyph>
    <TTGlyph name="ocircumflex" xMin="100" yMin="-16" xMax="1063" yMax="1405">
      <contour>
        <pt x="100" y="354" on="0"/>
        <pt x="100" y="666" on="0"/>
        <pt x="186" y="883" on="0"/>
        <pt x="334" y="991" on="0"/>
        <pt x="489" y="1036" on="0"/>
        <pt x="674" y="1036" on="0"/>
        <pt x="829" y="991" on="0"/>
        <pt x="977" y="883" on="0"/>
        <pt x="1063" y="666" on="0"/>
        <pt x="1063" y="354" on="0"/>
        <pt x="977" y="137" on="0"/>
        <pt x="829" y="29" on="0"/>
        <pt x="674" y="-16" on="0"/>
        <pt x="489" y="-16" on="0"/>
        <pt x="334" y="29" on="0"/>
        <pt x="186" y="137" on="0"/>
      </contour>
      <contour>
        <pt x="289" y="625" on="0"/>
        <pt x="289" y="395" on="0"/>
        <pt x="334" y="246" on="0"/>
        <pt x="424" y="174" on="0"/>
        <pt x="516" y="150" on="0"/>
        <pt x="647" y="150" on="0"/>
        <pt x="739" y="174" on="0"/>
        <pt x="829" y="246" on="0"/>
        <pt x="874" y="395" on="0"/>
        <pt x="874" y="625" on="0"/>
        <pt x="829" y="774" on="0"/>
        <pt x="739" y="846" on="0"/>
        <pt x="647" y="870" on="0"/>
        <pt x="516" y="870" on="0"/>
        <pt x="424" y="846" on="0"/>
        <pt x="334" y="774" on="0"/>
      </contour>
      <contour>
        <pt x="350" y="1155" on="1"/>
        <pt x="530" y="1405" on="1"/>
        <pt x="629" y="1405" on="1"/>
        <pt x="811" y="1155" on="1"/>
        <pt x="666" y="1155" on="1"/>
        <pt x="580" y="1288" on="1"/>
        <pt x="494" y="1155" on="1"/>
      </contour>
    </TTGlyph>
    <TTGlyph name="odieresis" xMin="100" yMin="-16" xMax="1063" yMax="1329">
      <contour>
        <pt x="100" y="354" on="0"/>
        <pt x="100" y="666" on="0"/>
        <pt x="186" y="883" on="0"/>
        <pt x="334" y="991" on="0"/>
        <pt x="489" y="1036" on="0"/>
        <pt x="674" y="1036" on="0"/>
        <pt x="829" y="991" on="0"/>
        <pt x="977" y="883" on="0"/>
        <pt x="1063" y="666" on="0"/>
        <pt x="1063" y="354" on="0"/>
        <pt x="977" y="137" on="0"/>
        <pt x="829" y="29" on="0"/>
        <pt x="674" y="-16" on="0"/>
        <pt x="489" y="-16" on="0"/>
        <pt x="334" y="29" on="0"/>
        <pt x="186" y="137" on="0"/>
      </contour>
      <contour>
        <pt x="289" y="625" on="0"/>
        <pt x="289" y="395" on="0"/>
        <pt x="334" y="246" on="0"/>
        <pt x="424" y="174" on="0"/>
        <pt x="516" y="150" on="0"/>
        <pt x="647" y="150" on="0"/>
        <pt x="739" y="174" on="0"/>
        <pt x="829" y="246" on="0"/>
        <pt x="874" y="395" on="0"/>
        <pt x="874" y="625" on="0"/>
        <pt x="829" y="774" on="0"/>
        <pt x="739" y="846" on="0"/>
        <pt x="647" y="870" on="0"/>
        <pt x="516" y="870" on="0"/>
        <pt x="424" y="846" on="0"/>
        <pt x="334" y="774" on="0"/>
      </contour>
      <contour>
        <pt x="336" y="1155" on="1"/>
        <pt x="336" y="1329" on="1"/>
        <pt x="522" y="1329" on="1"/>
        <pt x="522" y="1155" on="1"/>
      </contour>
      <contour>
        <pt x="639" y="1155" on="1"/>
        <pt x="639" y="1329" on="1"/>
        <pt x="825" y="1329" on="1"/>
        <pt x="825" y="1155" on="1"/>
      </contour>
    </TTGlyph>
    <TTGlyph name="oe" xMin="100" yMin="-16" xMax="1776" yMax="1040">
      <contour>
        <pt x="100" y="354" on="0"/>
        <pt x="100" y="666" on="0"/>
        <pt x="186" y="883" on="0"/>
        <pt x="334" y="991" on="0"/>
        <pt x="489" y="1036" on="0"/>
        <pt x="582" y="1036" on="1"/>
        <pt x="838" y="1036" on="0"/>
        <pt x="963" y="877" on="1"/>
        <pt x="1075" y="1040" on="0"/>
        <pt x="1322" y="1040" on="1"/>
        <pt x="1323" y="1040" on="0"/>
        <pt x="1325" y="1040" on="1"/>
        <pt x="1530" y="1040" on="0"/>
        <pt x="1776" y="772" on="0"/>
        <pt x="1776" y="547" on="1"/>
        <pt x="1776" y="473" on="0"/>
        <pt x="1769" y="406" on="1"/>
        <pt x="1065" y="406" on="1"/>
        <pt x="1100" y="146" on="0"/>
        <pt x="1354" y="145" on="1"/>
        <pt x="1555" y="145" on="0"/>
        <pt x="1706" y="219" on="1"/>
        <pt x="1706" y="51" on="1"/>
        <pt x="1548" y="-16" on="0"/>
        <pt x="1349" y="-16" on="1"/>
        <pt x="1346" y="-16" on="0"/>
        <pt x="1343" y="-16" on="1"/>
        <pt x="1083" y="-16" on="0"/>
        <pt x="965" y="150" on="1"/>
        <pt x="844" y="-16" on="0"/>
        <pt x="582" y="-16" on="1"/>
        <pt x="490" y="-16" on="0"/>
        <pt x="334" y="29" on="0"/>
        <pt x="186" y="137" on="0"/>
      </contour>
      <contour>
        <pt x="289" y="625" on="0"/>
        <pt x="289" y="395" on="0"/>
        <pt x="334" y="246" on="0"/>
        <pt x="424" y="174" on="0"/>
        <pt x="516" y="150" on="0"/>
        <pt x="647" y="150" on="0"/>
        <pt x="739" y="174" on="0"/>
        <pt x="829" y="246" on="0"/>
        <pt x="874" y="395" on="0"/>
        <pt x="874" y="625" on="0"/>
        <pt x="829" y="774" on="0"/>
        <pt x="739" y="846" on="0"/>
        <pt x="647" y="870" on="0"/>
        <pt x="516" y="870" on="0"/>
        <pt x="424" y="846" on="0"/>
        <pt x="334" y="774" on="0"/>
      </contour>
      <contour>
        <pt x="1063" y="575" on="1"/>
        <pt x="1587" y="575" on="1"/>
        <pt x="1560" y="872" on="0"/>
        <pt x="1325" y="872" on="1"/>
        <pt x="1196" y="872" on="0"/>
        <pt x="1075" y="739" on="0"/>
      </contour>
    </TTGlyph>
    <TTGlyph name="ograve" xMin="100" yMin="-16" xMax="1063" yMax="1395">
      <contour>
        <pt x="100" y="354" on="0"/>
        <pt x="100" y="666" on="0"/>
        <pt x="186" y="883" on="0"/>
        <pt x="334" y="991" on="0"/>
        <pt x="489" y="1036" on="0"/>
        <pt x="674" y="1036" on="0"/>
        <pt x="829" y="991" on="0"/>
        <pt x="977" y="883" on="0"/>
        <pt x="1063" y="666" on="0"/>
        <pt x="1063" y="354" on="0"/>
        <pt x="977" y="137" on="0"/>
        <pt x="829" y="29" on="0"/>
        <pt x="674" y="-16" on="0"/>
        <pt x="489" y="-16" on="0"/>
        <pt x="334" y="29" on="0"/>
        <pt x="186" y="137" on="0"/>
      </contour>
      <contour>
        <pt x="289" y="625" on="0"/>
        <pt x="289" y="395" on="0"/>
        <pt x="334" y="246" on="0"/>
        <pt x="424" y="174" on="0"/>
        <pt x="516" y="150" on="0"/>
        <pt x="647" y="150" on="0"/>
        <pt x="739" y="174" on="0"/>
        <pt x="829" y="246" on="0"/>
        <pt x="874" y="395" on="0"/>
        <pt x="874" y="625" on="0"/>
        <pt x="829" y="774" on="0"/>
        <pt x="739" y="846" on="0"/>
        <pt x="647" y="870" on="0"/>
        <pt x="516" y="870" on="0"/>
        <pt x="424" y="846" on="0"/>
        <pt x="334" y="774" on="0"/>
      </contour>
      <contour>
        <pt x="319" y="1395" on="1"/>
        <pt x="504" y="1395" on="1"/>
        <pt x="631" y="1155" on="1"/>
        <pt x="514" y="1155" on="1"/>
      </contour>
    </TTGlyph>
    <TTGlyph name="one" xMin="211" yMin="0" xMax="641" yMax="1366">
      <contour>
        <pt x="211" y="1040" on="1"/>
        <pt x="211" y="1239" on="1"/>
        <pt x="434" y="1366" on="1"/>
        <pt x="641" y="1366" on="1"/>
        <pt x="641" y="0" on="1"/>
        <pt x="451" y="0" on="1"/>
        <pt x="451" y="1180" on="1"/>
      </contour>
    </TTGlyph>
    <TTGlyph name="onehalf" xMin="106" yMin="-45" xMax="1350" yMax="1403">
      <contour>
        <pt x="106" y="1206" on="1"/>
        <pt x="106" y="1313" on="1"/>
        <pt x="225" y="1380" on="1"/>
        <pt x="336" y="1380" on="1"/>
        <pt x="336" y="645" on="1"/>
        <pt x="233" y="645" on="1"/>
        <pt x="233" y="1280" on="1"/>
      </contour>
      <contour>
        <pt x="145" y="-45" on="1"/>
        <pt x="1038" y="1403" on="1"/>
        <pt x="1169" y="1403" on="1"/>
        <pt x="274" y="-45" on="1"/>
      </contour>
      <contour>
        <pt x="895" y="2" on="1"/>
        <pt x="895" y="84" on="1"/>
        <pt x="1030" y="186" on="0"/>
        <pt x="1249" y="434" on="0"/>
        <pt x="1249" y="532" on="1"/>
        <pt x="1249" y="651" on="0"/>
        <pt x="1085" y="651" on="1"/>
        <pt x="993" y="651" on="0"/>
        <pt x="905" y="596" on="1"/>
        <pt x="905" y="692" on="1"/>
        <pt x="993" y="745" on="0"/>
        <pt x="1100" y="745" on="1"/>
        <pt x="1227" y="745" on="0"/>
        <pt x="1350" y="623" on="0"/>
        <pt x="1350" y="535" on="1"/>
        <pt x="1350" y="347" on="0"/>
        <pt x="1071" y="104" on="1"/>
        <pt x="1348" y="104" on="1"/>
        <pt x="1348" y="2" on="1"/>
      </contour>
    </TTGlyph>
    <TTGlyph name="onequarter" xMin="106" yMin="-45" xMax="1341" yMax="1403">
      <contour>
        <pt x="106" y="1206" on="1"/>
        <pt x="106" y="1313" on="1"/>
        <pt x="225" y="1380" on="1"/>
        <pt x="336" y="1380" on="1"/>
        <pt x="336" y="645" on="1"/>
        <pt x="233" y="645" on="1"/>
        <pt x="233" y="1280" on="1"/>
      </contour>
      <contour>
        <pt x="145" y="-45" on="1"/>
        <pt x="1038" y="1403" on="1"/>
        <pt x="1169" y="1403" on="1"/>
        <pt x="274" y="-45" on="1"/>
      </contour>
      <contour>
        <pt x="799" y="231" on="1"/>
        <pt x="799" y="324" on="1"/>
        <pt x="1122" y="737" on="1"/>
        <pt x="1237" y="737" on="1"/>
        <pt x="1237" y="324" on="1"/>
        <pt x="1341" y="324" on="1"/>
        <pt x="1341" y="231" on="1"/>
        <pt x="1237" y="231" on="1"/>
        <pt x="1237" y="2" on="1"/>
        <pt x="1135" y="2" on="1"/>
        <pt x="1135" y="231" on="1"/>
      </contour>
      <contour>
        <pt x="920" y="324" on="1"/>
        <pt x="1135" y="324" on="1"/>
        <pt x="1135" y="590" on="1"/>
      </contour>
    </TTGlyph>
    <TTGlyph name="ordfeminine" xMin="156" yMin="799" xMax="631" yMax="1384">
      <contour>
        <pt x="156" y="985" on="1"/>
        <pt x="156" y="1069" on="0"/>
        <pt x="299" y="1165" on="0"/>
        <pt x="424" y="1165" on="1"/>
        <pt x="477" y="1165" on="0"/>
        <pt x="526" y="1159" on="1"/>
        <pt x="522" y="1231" on="0"/>
        <pt x="451" y="1294" on="0"/>
        <pt x="369" y="1294" on="1"/>
        <pt x="299" y="1294" on="0"/>
        <pt x="213" y="1266" on="1"/>
        <pt x="213" y="1354" on="1"/>
        <pt x="299" y="1384" on="0"/>
        <pt x="385" y="1384" on="1"/>
        <pt x="504" y="1384" on="0"/>
        <pt x="631" y="1262" on="0"/>
        <pt x="631" y="1147" on="1"/>
        <pt x="631" y="983" on="1"/>
        <pt x="631" y="958" on="0"/>
        <pt x="616" y="909" on="0"/>
        <pt x="575" y="842" on="0"/>
        <pt x="471" y="799" on="0"/>
        <pt x="395" y="799" on="1"/>
        <pt x="332" y="799" on="0"/>
        <pt x="238" y="829" on="0"/>
        <pt x="190" y="872" on="0"/>
        <pt x="162" y="930" on="0"/>
        <pt x="156" y="967" on="0"/>
      </contour>
      <contour>
        <pt x="260" y="987" on="1"/>
        <pt x="260" y="891" on="0"/>
        <pt x="395" y="891" on="1"/>
        <pt x="526" y="891" on="0"/>
        <pt x="526" y="983" on="1"/>
        <pt x="526" y="1075" on="1"/>
        <pt x="491" y="1083" on="0"/>
        <pt x="428" y="1083" on="1"/>
        <pt x="395" y="1083" on="0"/>
        <pt x="328" y="1071" on="0"/>
        <pt x="260" y="1024" on="0"/>
      </contour>
    </TTGlyph>
    <TTGlyph name="ordmasculine" xMin="156" yMin="795" xMax="694" yMax="1384">
      <contour>
        <pt x="156" y="1090" on="1"/>
        <pt x="156" y="1205" on="0"/>
        <pt x="244" y="1343" on="0"/>
        <pt x="354" y="1384" on="0"/>
        <pt x="424" y="1384" on="1"/>
        <pt x="537" y="1384" on="0"/>
        <pt x="694" y="1255" on="0"/>
        <pt x="694" y="1090" on="1"/>
        <pt x="694" y="926" on="0"/>
        <pt x="537" y="795" on="0"/>
        <pt x="424" y="795" on="1"/>
        <pt x="313" y="795" on="0"/>
        <pt x="156" y="926" on="0"/>
      </contour>
      <contour>
        <pt x="260" y="1210" on="0"/>
        <pt x="260" y="969" on="0"/>
        <pt x="346" y="889" on="0"/>
        <pt x="502" y="889" on="0"/>
        <pt x="588" y="969" on="0"/>
        <pt x="588" y="1210" on="0"/>
        <pt x="502" y="1292" on="0"/>
        <pt x="346" y="1292" on="0"/>
      </contour>
    </TTGlyph>
    <TTGlyph name="oslash" xMin="55" yMin="-16" xMax="1108" yMax="1036">
      <contour>
        <pt x="55" y="0" on="1"/>
        <pt x="190" y="160" on="1"/>
        <pt x="100" y="291" on="0"/>
        <pt x="100" y="510" on="1"/>
        <pt x="100" y="666" on="0"/>
        <pt x="186" y="883" on="0"/>
        <pt x="334" y="991" on="0"/>
        <pt x="489" y="1036" on="0"/>
        <pt x="582" y="1036" on="1"/>
        <pt x="752" y="1036" on="0"/>
        <pt x="866" y="963" on="1"/>
        <pt x="918" y="1022" on="1"/>
        <pt x="1108" y="1022" on="1"/>
        <pt x="973" y="860" on="1"/>
        <pt x="1063" y="729" on="0"/>
        <pt x="1063" y="510" on="1"/>
        <pt x="1063" y="354" on="0"/>
        <pt x="977" y="137" on="0"/>
        <pt x="829" y="29" on="0"/>
        <pt x="674" y="-16" on="0"/>
        <pt x="582" y="-16" on="1"/>
        <pt x="410" y="-16" on="0"/>
        <pt x="295" y="57" on="1"/>
        <pt x="246" y="0" on="1"/>
      </contour>
      <contour>
        <pt x="289" y="510" on="1"/>
        <pt x="289" y="391" on="0"/>
        <pt x="315" y="311" on="1"/>
        <pt x="756" y="831" on="1"/>
        <pt x="695" y="870" on="0"/>
        <pt x="582" y="870" on="1"/>
        <pt x="516" y="870" on="0"/>
        <pt x="424" y="846" on="0"/>
        <pt x="334" y="774" on="0"/>
        <pt x="289" y="625" on="0"/>
      </contour>
      <contour>
        <pt x="406" y="188" on="1"/>
        <pt x="465" y="150" on="0"/>
        <pt x="576" y="150" on="1"/>
        <pt x="579" y="150" on="0"/>
        <pt x="582" y="150" on="1"/>
        <pt x="648" y="150" on="0"/>
        <pt x="739" y="174" on="0"/>
        <pt x="829" y="246" on="0"/>
        <pt x="874" y="395" on="0"/>
        <pt x="874" y="510" on="1"/>
        <pt x="874" y="635" on="0"/>
        <pt x="846" y="711" on="1"/>
      </contour>
    </TTGlyph>
    <TTGlyph name="otilde" xMin="100" yMin="-16" xMax="1063" yMax="1363">
      <contour>
        <pt x="100" y="354" on="0"/>
        <pt x="100" y="666" on="0"/>
        <pt x="186" y="883" on="0"/>
        <pt x="334" y="991" on="0"/>
        <pt x="489" y="1036" on="0"/>
        <pt x="674" y="1036" on="0"/>
        <pt x="829" y="991" on="0"/>
        <pt x="977" y="883" on="0"/>
        <pt x="1063" y="666" on="0"/>
        <pt x="1063" y="354" on="0"/>
        <pt x="977" y="137" on="0"/>
        <pt x="829" y="29" on="0"/>
        <pt x="674" y="-16" on="0"/>
        <pt x="489" y="-16" on="0"/>
        <pt x="334" y="29" on="0"/>
        <pt x="186" y="137" on="0"/>
      </contour>
      <contour>
        <pt x="270" y="1153" on="1"/>
        <pt x="270" y="1288" on="1"/>
        <pt x="327" y="1356" on="0"/>
        <pt x="394" y="1362" on="1"/>
        <pt x="405" y="1363" on="0"/>
        <pt x="416" y="1363" on="1"/>
        <pt x="471" y="1363" on="0"/>
        <pt x="522" y="1338" on="1"/>
        <pt x="644" y="1277" on="1"/>
        <pt x="694" y="1252" on="0"/>
        <pt x="747" y="1252" on="1"/>
        <pt x="759" y="1252" on="0"/>
        <pt x="770" y="1254" on="1"/>
        <pt x="836" y="1260" on="0"/>
        <pt x="893" y="1327" on="1"/>
        <pt x="893" y="1192" on="1"/>
        <pt x="836" y="1124" on="0"/>
        <pt x="770" y="1118" on="1"/>
        <pt x="759" y="1117" on="0"/>
        <pt x="748" y="1117" on="1"/>
        <pt x="695" y="1117" on="0"/>
        <pt x="644" y="1142" on="1"/>
        <pt x="522" y="1202" on="1"/>
        <pt x="471" y="1228" on="0"/>
        <pt x="416" y="1228" on="1"/>
        <pt x="405" y="1228" on="0"/>
        <pt x="394" y="1227" on="1"/>
        <pt x="328" y="1221" on="0"/>
      </contour>
      <contour>
        <pt x="289" y="625" on="0"/>
        <pt x="289" y="395" on="0"/>
        <pt x="334" y="246" on="0"/>
        <pt x="424" y="174" on="0"/>
        <pt x="516" y="150" on="0"/>
        <pt x="647" y="150" on="0"/>
        <pt x="739" y="174" on="0"/>
        <pt x="829" y="246" on="0"/>
        <pt x="874" y="395" on="0"/>
        <pt x="874" y="625" on="0"/>
        <pt x="829" y="774" on="0"/>
        <pt x="739" y="846" on="0"/>
        <pt x="647" y="870" on="0"/>
        <pt x="516" y="870" on="0"/>
        <pt x="424" y="846" on="0"/>
        <pt x="334" y="774" on="0"/>
      </contour>
    </TTGlyph>
    <TTGlyph name="p" xMin="168" yMin="-389" xMax="1044" yMax="1038">
      <contour>
        <pt x="168" y="-389" on="1"/>
        <pt x="168" y="709" on="1"/>
        <pt x="168" y="742" on="0"/>
        <pt x="180" y="807" on="0"/>
        <pt x="229" y="907" on="0"/>
        <pt x="313" y="983" on="0"/>
        <pt x="481" y="1038" on="0"/>
        <pt x="592" y="1038" on="1"/>
        <pt x="649" y="1038" on="0"/>
        <pt x="758" y="1018" on="0"/>
        <pt x="887" y="948" on="0"/>
        <pt x="981" y="836" on="0"/>
        <pt x="1044" y="633" on="0"/>
        <pt x="1044" y="500" on="1"/>
        <pt x="1044" y="348" on="0"/>
        <pt x="961" y="133" on="0"/>
        <pt x="815" y="29" on="0"/>
        <pt x="664" y="-16" on="0"/>
        <pt x="573" y="-16" on="1"/>
        <pt x="460" y="-16" on="0"/>
        <pt x="356" y="14" on="1"/>
        <pt x="356" y="-389" on="1"/>
      </contour>
      <contour>
        <pt x="356" y="193" on="1"/>
        <pt x="462" y="152" on="0"/>
        <pt x="573" y="152" on="1"/>
        <pt x="636" y="152" on="0"/>
        <pt x="725" y="176" on="0"/>
        <pt x="811" y="244" on="0"/>
        <pt x="856" y="389" on="0"/>
        <pt x="856" y="500" on="1"/>
        <pt x="856" y="619" on="0"/>
        <pt x="811" y="776" on="0"/>
        <pt x="727" y="848" on="0"/>
        <pt x="645" y="874" on="0"/>
        <pt x="592" y="874" on="1"/>
        <pt x="356" y="874" on="0"/>
        <pt x="356" y="721" on="1"/>
      </contour>
    </TTGlyph>
    <TTGlyph name="paragraph" xMin="78" yMin="0" xMax="799" yMax="1366">
      <contour>
        <pt x="78" y="936" on="1"/>
        <pt x="78" y="1143" on="0"/>
        <pt x="325" y="1366" on="0"/>
        <pt x="561" y="1366" on="1"/>
        <pt x="799" y="1366" on="1"/>
        <pt x="799" y="0" on="1"/>
        <pt x="629" y="0" on="1"/>
        <pt x="629" y="504" on="1"/>
        <pt x="561" y="504" on="1"/>
        <pt x="325" y="504" on="0"/>
        <pt x="78" y="727" on="0"/>
      </contour>
    </TTGlyph>
    <TTGlyph name="parenleft" xMin="190" yMin="-231" xMax="586" yMax="1483">
      <contour>
        <pt x="190" y="627" on="1"/>
        <pt x="190" y="1067" on="0"/>
        <pt x="401" y="1483" on="1"/>
        <pt x="586" y="1483" on="1"/>
        <pt x="375" y="1067" on="0"/>
        <pt x="375" y="627" on="1"/>
        <pt x="375" y="191" on="0"/>
        <pt x="586" y="-231" on="1"/>
        <pt x="401" y="-231" on="1"/>
        <pt x="190" y="191" on="0"/>
      </contour>
    </TTGlyph>
    <TTGlyph name="parenright" xMin="133" yMin="-231" xMax="528" yMax="1483">
      <contour>
        <pt x="133" y="-231" on="1"/>
        <pt x="344" y="181" on="0"/>
        <pt x="344" y="627" on="1"/>
        <pt x="344" y="1076" on="0"/>
        <pt x="133" y="1483" on="1"/>
        <pt x="317" y="1483" on="1"/>
        <pt x="528" y="1067" on="0"/>
        <pt x="528" y="627" on="1"/>
        <pt x="528" y="191" on="0"/>
        <pt x="317" y="-231" on="1"/>
      </contour>
    </TTGlyph>
    <TTGlyph name="percent" xMin="145" yMin="0" xMax="1681" yMax="1366">
      <contour>
        <pt x="145" y="803" on="0"/>
        <pt x="145" y="1159" on="0"/>
        <pt x="295" y="1360" on="0"/>
        <pt x="590" y="1360" on="0"/>
        <pt x="739" y="1159" on="0"/>
        <pt x="739" y="803" on="0"/>
        <pt x="590" y="604" on="0"/>
        <pt x="295" y="604" on="0"/>
      </contour>
      <contour>
        <pt x="276" y="981" on="1"/>
        <pt x="276" y="848" on="0"/>
        <pt x="352" y="719" on="0"/>
        <pt x="532" y="719" on="0"/>
        <pt x="608" y="848" on="0"/>
        <pt x="608" y="981" on="1"/>
        <pt x="608" y="1116" on="0"/>
        <pt x="532" y="1243" on="0"/>
        <pt x="352" y="1243" on="0"/>
        <pt x="276" y="1116" on="0"/>
      </contour>
      <contour>
        <pt x="410" y="0" on="1"/>
        <pt x="1268" y="1366" on="1"/>
        <pt x="1419" y="1366" on="1"/>
        <pt x="561" y="0" on="1"/>
      </contour>
      <contour>
        <pt x="1087" y="385" on="1"/>
        <pt x="1087" y="561" on="0"/>
        <pt x="1237" y="762" on="0"/>
        <pt x="1532" y="762" on="0"/>
        <pt x="1681" y="561" on="0"/>
        <pt x="1681" y="385" on="1"/>
        <pt x="1681" y="207" on="0"/>
        <pt x="1532" y="6" on="0"/>
        <pt x="1237" y="6" on="0"/>
        <pt x="1087" y="207" on="0"/>
      </contour>
      <contour>
        <pt x="1219" y="385" on="1"/>
        <pt x="1219" y="250" on="0"/>
        <pt x="1294" y="123" on="0"/>
        <pt x="1475" y="123" on="0"/>
        <pt x="1550" y="250" on="0"/>
        <pt x="1550" y="385" on="1"/>
        <pt x="1550" y="518" on="0"/>
        <pt x="1475" y="647" on="0"/>
        <pt x="1294" y="647" on="0"/>
        <pt x="1219" y="518" on="0"/>
      </contour>
    </TTGlyph>
    <TTGlyph name="period" xMin="260" yMin="0" xMax="455" yMax="182">
      <contour>
        <pt x="260" y="0" on="1"/>
        <pt x="260" y="182" on="1"/>
        <pt x="455" y="182" on="1"/>
        <pt x="455" y="0" on="1"/>
      </contour>
    </TTGlyph>
    <TTGlyph name="periodcentered" xMin="238" yMin="471" xMax="424" yMax="645">
      <contour>
        <pt x="238" y="471" on="1"/>
        <pt x="238" y="645" on="1"/>
        <pt x="424" y="645" on="1"/>
        <pt x="424" y="471" on="1"/>
      </contour>
    </TTGlyph>
    <TTGlyph name="plus" xMin="199" yMin="250" xMax="932" yMax="983">
      <contour>
        <pt x="199" y="545" on="1"/>
        <pt x="199" y="686" on="1"/>
        <pt x="496" y="686" on="1"/>
        <pt x="496" y="983" on="1"/>
        <pt x="637" y="983" on="1"/>
        <pt x="637" y="686" on="1"/>
        <pt x="932" y="686" on="1"/>
        <pt x="932" y="545" on="1"/>
        <pt x="637" y="545" on="1"/>
        <pt x="637" y="250" on="1"/>
        <pt x="496" y="250" on="1"/>
        <pt x="496" y="545" on="1"/>
      </contour>
    </TTGlyph>
    <TTGlyph name="plusminus" xMin="231" yMin="55" xMax="985" yMax="1063">
      <contour>
        <pt x="231" y="55" on="1"/>
        <pt x="231" y="205" on="1"/>
        <pt x="985" y="205" on="1"/>
        <pt x="985" y="55" on="1"/>
      </contour>
      <contour>
        <pt x="231" y="612" on="1"/>
        <pt x="231" y="762" on="1"/>
        <pt x="535" y="762" on="1"/>
        <pt x="535" y="1063" on="1"/>
        <pt x="684" y="1063" on="1"/>
        <pt x="684" y="762" on="1"/>
        <pt x="985" y="762" on="1"/>
        <pt x="985" y="612" on="1"/>
        <pt x="684" y="612" on="1"/>
        <pt x="684" y="309" on="1"/>
        <pt x="535" y="309" on="1"/>
        <pt x="535" y="612" on="1"/>
      </contour>
    </TTGlyph>
    <TTGlyph name="q" xMin="115" yMin="-389" xMax="989" yMax="1038">
      <contour>
        <pt x="115" y="500" on="1"/>
        <pt x="115" y="633" on="0"/>
        <pt x="178" y="836" on="0"/>
        <pt x="270" y="948" on="0"/>
        <pt x="399" y="1018" on="0"/>
        <pt x="508" y="1038" on="0"/>
        <pt x="565" y="1038" on="1"/>
        <pt x="676" y="1038" on="0"/>
        <pt x="844" y="983" on="0"/>
        <pt x="928" y="907" on="0"/>
        <pt x="977" y="807" on="0"/>
        <pt x="989" y="741" on="0"/>
        <pt x="989" y="709" on="1"/>
        <pt x="989" y="-389" on="1"/>
        <pt x="801" y="-389" on="1"/>
        <pt x="801" y="14" on="1"/>
        <pt x="697" y="-16" on="0"/>
        <pt x="584" y="-16" on="1"/>
        <pt x="494" y="-16" on="0"/>
        <pt x="342" y="27" on="0"/>
        <pt x="199" y="133" on="0"/>
        <pt x="115" y="348" on="0"/>
      </contour>
      <contour>
        <pt x="301" y="500" on="1"/>
        <pt x="301" y="389" on="0"/>
        <pt x="346" y="244" on="0"/>
        <pt x="432" y="176" on="0"/>
        <pt x="520" y="152" on="0"/>
        <pt x="584" y="152" on="1"/>
        <pt x="697" y="152" on="0"/>
        <pt x="801" y="193" on="1"/>
        <pt x="801" y="721" on="1"/>
        <pt x="801" y="874" on="0"/>
        <pt x="565" y="874" on="1"/>
        <pt x="512" y="874" on="0"/>
        <pt x="430" y="848" on="0"/>
        <pt x="346" y="776" on="0"/>
        <pt x="301" y="618" on="0"/>
      </contour>
    </TTGlyph>
    <TTGlyph name="question" xMin="164" yMin="0" xMax="909" yMax="1382">
      <contour>
        <pt x="164" y="1083" on="1"/>
        <pt x="164" y="1286" on="1"/>
        <pt x="314" y="1382" on="0"/>
        <pt x="485" y="1382" on="1"/>
        <pt x="600" y="1382" on="0"/>
        <pt x="770" y="1315" on="0"/>
        <pt x="864" y="1198" on="0"/>
        <pt x="909" y="1063" on="0"/>
        <pt x="909" y="985" on="1"/>
        <pt x="909" y="903" on="0"/>
        <pt x="848" y="774" on="0"/>
        <pt x="803" y="732" on="1"/>
        <pt x="713" y="649" on="1"/>
        <pt x="668" y="608" on="0"/>
        <pt x="606" y="489" on="0"/>
        <pt x="606" y="414" on="1"/>
        <pt x="606" y="344" on="1"/>
        <pt x="426" y="344" on="1"/>
        <pt x="426" y="420" on="1"/>
        <pt x="426" y="524" on="0"/>
        <pt x="487" y="684" on="0"/>
        <pt x="578" y="778" on="0"/>
        <pt x="666" y="856" on="0"/>
        <pt x="727" y="940" on="0"/>
        <pt x="727" y="987" on="1"/>
        <pt x="727" y="1206" on="0"/>
        <pt x="469" y="1206" on="1"/>
        <pt x="303" y="1206" on="0"/>
      </contour>
      <contour>
        <pt x="416" y="0" on="1"/>
        <pt x="416" y="186" on="1"/>
        <pt x="616" y="186" on="1"/>
        <pt x="616" y="0" on="1"/>
      </contour>
    </TTGlyph>
    <TTGlyph name="questiondown" xMin="174" yMin="-360" xMax="920" yMax="1022">
      <contour>
        <pt x="174" y="37" on="1"/>
        <pt x="174" y="119" on="0"/>
        <pt x="236" y="248" on="0"/>
        <pt x="281" y="290" on="1"/>
        <pt x="371" y="373" on="1"/>
        <pt x="416" y="414" on="0"/>
        <pt x="477" y="532" on="0"/>
        <pt x="477" y="608" on="1"/>
        <pt x="477" y="678" on="1"/>
        <pt x="657" y="678" on="1"/>
        <pt x="657" y="602" on="1"/>
        <pt x="657" y="498" on="0"/>
        <pt x="596" y="338" on="0"/>
        <pt x="506" y="244" on="0"/>
        <pt x="418" y="166" on="0"/>
        <pt x="356" y="82" on="0"/>
        <pt x="356" y="35" on="1"/>
        <pt x="356" y="-184" on="0"/>
        <pt x="614" y="-184" on="1"/>
        <pt x="780" y="-184" on="0"/>
        <pt x="920" y="-61" on="1"/>
        <pt x="920" y="-264" on="1"/>
        <pt x="770" y="-360" on="0"/>
        <pt x="598" y="-360" on="1"/>
        <pt x="483" y="-360" on="0"/>
        <pt x="313" y="-293" on="0"/>
        <pt x="219" y="-176" on="0"/>
        <pt x="174" y="-41" on="0"/>
      </contour>
      <contour>
        <pt x="467" y="836" on="1"/>
        <pt x="467" y="1022" on="1"/>
        <pt x="668" y="1022" on="1"/>
        <pt x="668" y="836" on="1"/>
      </contour>
    </TTGlyph>
    <TTGlyph name="quotedbl" xMin="166" yMin="973" xMax="651" yMax="1384">
      <contour>
        <pt x="166" y="1384" on="1"/>
        <pt x="356" y="1384" on="1"/>
        <pt x="322" y="973" on="1"/>
        <pt x="203" y="973" on="1"/>
      </contour>
      <contour>
        <pt x="461" y="1384" on="1"/>
        <pt x="651" y="1384" on="1"/>
        <pt x="614" y="973" on="1"/>
        <pt x="496" y="973" on="1"/>
      </contour>
    </TTGlyph>
    <TTGlyph name="quotedblbase" xMin="147" yMin="-229" xMax="797" yMax="172">
      <contour>
        <pt x="147" y="-229" on="1"/>
        <pt x="299" y="172" on="1"/>
        <pt x="492" y="172" on="1"/>
        <pt x="319" y="-229" on="1"/>
      </contour>
      <contour>
        <pt x="453" y="-229" on="1"/>
        <pt x="604" y="172" on="1"/>
        <pt x="797" y="172" on="1"/>
        <pt x="625" y="-229" on="1"/>
      </contour>
    </TTGlyph>
    <TTGlyph name="quotedblleft" xMin="96" yMin="983" xMax="745" yMax="1384">
      <contour>
        <pt x="96" y="1384" on="1"/>
        <pt x="289" y="1384" on="1"/>
        <pt x="440" y="983" on="1"/>
        <pt x="268" y="983" on="1"/>
      </contour>
      <contour>
        <pt x="401" y="1384" on="1"/>
        <pt x="594" y="1384" on="1"/>
        <pt x="745" y="983" on="1"/>
        <pt x="573" y="983" on="1"/>
      </contour>
    </TTGlyph>
    <TTGlyph name="quotedblright" xMin="96" yMin="983" xMax="745" yMax="1384">
      <contour>
        <pt x="96" y="983" on="1"/>
        <pt x="248" y="1384" on="1"/>
        <pt x="440" y="1384" on="1"/>
        <pt x="268" y="983" on="1"/>
      </contour>
      <contour>
        <pt x="401" y="983" on="1"/>
        <pt x="553" y="1384" on="1"/>
        <pt x="745" y="1384" on="1"/>
        <pt x="573" y="983" on="1"/>
      </contour>
    </TTGlyph>
    <TTGlyph name="quoteleft" xMin="96" yMin="983" xMax="440" yMax="1384">
      <contour>
        <pt x="96" y="1384" on="1"/>
        <pt x="289" y="1384" on="1"/>
        <pt x="440" y="983" on="1"/>
        <pt x="268" y="983" on="1"/>
      </contour>
    </TTGlyph>
    <TTGlyph name="quoteright" xMin="96" yMin="983" xMax="440" yMax="1384">
      <contour>
        <pt x="96" y="983" on="1"/>
        <pt x="248" y="1384" on="1"/>
        <pt x="440" y="1384" on="1"/>
        <pt x="268" y="983" on="1"/>
      </contour>
    </TTGlyph>
    <TTGlyph name="quotesinglbase" xMin="147" yMin="-229" xMax="492" yMax="172">
      <contour>
        <pt x="147" y="-229" on="1"/>
        <pt x="299" y="172" on="1"/>
        <pt x="492" y="172" on="1"/>
        <pt x="319" y="-229" on="1"/>
      </contour>
    </TTGlyph>
    <TTGlyph name="quotesingle" xMin="166" yMin="973" xMax="356" yMax="1384">
      <contour>
        <pt x="166" y="1384" on="1"/>
        <pt x="356" y="1384" on="1"/>
        <pt x="322" y="973" on="1"/>
        <pt x="203" y="973" on="1"/>
      </contour>
    </TTGlyph>
    <TTGlyph name="r" xMin="166" yMin="0" xMax="664" yMax="1038">
      <contour>
        <pt x="166" y="0" on="1"/>
        <pt x="166" y="936" on="1"/>
        <pt x="422" y="1038" on="0"/>
        <pt x="664" y="1038" on="1"/>
        <pt x="664" y="866" on="1"/>
        <pt x="512" y="864" on="0"/>
        <pt x="354" y="823" on="1"/>
        <pt x="354" y="0" on="1"/>
      </contour>
    </TTGlyph>
    <TTGlyph name="registered" xMin="98" yMin="-16" xMax="1499" yMax="1384">
      <contour>
        <pt x="98" y="684" on="1"/>
        <pt x="98" y="973" on="0"/>
        <pt x="508" y="1384" on="0"/>
        <pt x="1090" y="1384" on="0"/>
        <pt x="1499" y="973" on="0"/>
        <pt x="1499" y="684" on="1"/>
        <pt x="1499" y="393" on="0"/>
        <pt x="1090" y="-16" on="0"/>
        <pt x="508" y="-16" on="0"/>
        <pt x="98" y="393" on="0"/>
      </contour>
      <contour>
        <pt x="188" y="684" on="1"/>
        <pt x="188" y="430" on="0"/>
        <pt x="545" y="74" on="0"/>
        <pt x="799" y="74" on="1"/>
        <pt x="1051" y="74" on="0"/>
        <pt x="1407" y="430" on="0"/>
        <pt x="1407" y="684" on="1"/>
        <pt x="1407" y="936" on="0"/>
        <pt x="1051" y="1292" on="0"/>
        <pt x="799" y="1292" on="1"/>
        <pt x="545" y="1292" on="0"/>
        <pt x="188" y="936" on="0"/>
      </contour>
      <contour>
        <pt x="528" y="285" on="1"/>
        <pt x="528" y="1081" on="1"/>
        <pt x="823" y="1081" on="1"/>
        <pt x="956" y="1081" on="0"/>
        <pt x="1110" y="956" on="0"/>
        <pt x="1110" y="840" on="1"/>
        <pt x="1110" y="742" on="0"/>
        <pt x="1008" y="626" on="0"/>
        <pt x="932" y="606" on="1"/>
        <pt x="1143" y="285" on="1"/>
        <pt x="1012" y="285" on="1"/>
        <pt x="819" y="588" on="1"/>
        <pt x="639" y="588" on="1"/>
        <pt x="639" y="285" on="1"/>
      </contour>
      <contour>
        <pt x="639" y="692" on="1"/>
        <pt x="817" y="692" on="1"/>
        <pt x="997" y="692" on="0"/>
        <pt x="997" y="983" on="0"/>
        <pt x="813" y="983" on="1"/>
        <pt x="639" y="983" on="1"/>
      </contour>
    </TTGlyph>
    <TTGlyph name="s" xMin="102" yMin="-16" xMax="811" yMax="1038">
      <contour>
        <pt x="102" y="733" on="1"/>
        <pt x="102" y="860" on="0"/>
        <pt x="283" y="1038" on="0"/>
        <pt x="469" y="1038" on="1"/>
        <pt x="608" y="1038" on="0"/>
        <pt x="743" y="971" on="1"/>
        <pt x="743" y="809" on="1"/>
        <pt x="610" y="870" on="0"/>
        <pt x="492" y="870" on="1"/>
        <pt x="289" y="870" on="0"/>
        <pt x="289" y="739" on="1"/>
        <pt x="289" y="696" on="0"/>
        <pt x="397" y="639" on="0"/>
        <pt x="549" y="596" on="0"/>
        <pt x="702" y="535" on="0"/>
        <pt x="811" y="391" on="0"/>
        <pt x="811" y="285" on="1"/>
        <pt x="811" y="162" on="0"/>
        <pt x="625" y="-16" on="0"/>
        <pt x="430" y="-16" on="1"/>
        <pt x="266" y="-16" on="0"/>
        <pt x="135" y="55" on="1"/>
        <pt x="135" y="225" on="1"/>
        <pt x="268" y="150" on="0"/>
        <pt x="418" y="150" on="1"/>
        <pt x="420" y="150" on="0"/>
        <pt x="422" y="150" on="1"/>
        <pt x="520" y="150" on="0"/>
        <pt x="623" y="221" on="0"/>
        <pt x="623" y="276" on="1"/>
        <pt x="623" y="339" on="0"/>
        <pt x="516" y="416" on="0"/>
        <pt x="362" y="459" on="0"/>
        <pt x="209" y="512" on="0"/>
        <pt x="102" y="635" on="0"/>
      </contour>
    </TTGlyph>
    <TTGlyph name="section" xMin="131" yMin="-16" xMax="1083" yMax="1384">
      <contour>
        <pt x="131" y="725" on="1"/>
        <pt x="131" y="885" on="0"/>
        <pt x="356" y="950" on="1"/>
        <pt x="284" y="1005" on="0"/>
        <pt x="285" y="1090" on="1"/>
        <pt x="285" y="1215" on="0"/>
        <pt x="485" y="1384" on="0"/>
        <pt x="698" y="1384" on="1"/>
        <pt x="864" y="1384" on="0"/>
        <pt x="1020" y="1307" on="1"/>
        <pt x="1020" y="1126" on="1"/>
        <pt x="875" y="1206" on="0"/>
        <pt x="729" y="1206" on="1"/>
        <pt x="481" y="1206" on="0"/>
        <pt x="481" y="1081" on="1"/>
        <pt x="481" y="1050" on="0"/>
        <pt x="571" y="1004" on="0"/>
        <pt x="705" y="971" on="0"/>
        <pt x="860" y="918" on="0"/>
        <pt x="993" y="850" on="0"/>
        <pt x="1083" y="725" on="0"/>
        <pt x="1083" y="643" on="1"/>
        <pt x="1083" y="553" on="0"/>
        <pt x="954" y="442" on="0"/>
        <pt x="858" y="418" on="1"/>
        <pt x="930" y="365" on="0"/>
        <pt x="930" y="287" on="1"/>
        <pt x="930" y="162" on="0"/>
        <pt x="727" y="-16" on="0"/>
        <pt x="514" y="-16" on="1"/>
        <pt x="324" y="-16" on="0"/>
        <pt x="139" y="90" on="1"/>
        <pt x="139" y="281" on="1"/>
        <pt x="313" y="164" on="0"/>
        <pt x="487" y="164" on="1"/>
        <pt x="733" y="164" on="0"/>
        <pt x="733" y="287" on="1"/>
        <pt x="733" y="318" on="0"/>
        <pt x="643" y="365" on="0"/>
        <pt x="510" y="397" on="0"/>
        <pt x="354" y="451" on="0"/>
        <pt x="221" y="518" on="0"/>
        <pt x="131" y="643" on="0"/>
      </contour>
      <contour>
        <pt x="328" y="723" on="1"/>
        <pt x="328" y="690" on="0"/>
        <pt x="367" y="637" on="0"/>
        <pt x="451" y="598" on="0"/>
        <pt x="526" y="569" on="0"/>
        <pt x="653" y="530" on="0"/>
        <pt x="690" y="516" on="1"/>
        <pt x="780" y="524" on="0"/>
        <pt x="887" y="588" on="0"/>
        <pt x="887" y="637" on="1"/>
        <pt x="887" y="670" on="0"/>
        <pt x="848" y="721" on="0"/>
        <pt x="764" y="762" on="0"/>
        <pt x="688" y="791" on="0"/>
        <pt x="561" y="829" on="0"/>
        <pt x="524" y="844" on="1"/>
        <pt x="434" y="836" on="0"/>
        <pt x="328" y="770" on="0"/>
      </contour>
    </TTGlyph>
    <TTGlyph name="semicolon" xMin="184" yMin="-229" xMax="532" yMax="922">
      <contour>
        <pt x="184" y="-229" on="1"/>
        <pt x="336" y="172" on="1"/>
        <pt x="528" y="172" on="1"/>
        <pt x="356" y="-229" on="1"/>
      </contour>
      <contour>
        <pt x="340" y="741" on="1"/>
        <pt x="340" y="922" on="1"/>
        <pt x="532" y="922" on="1"/>
        <pt x="532" y="741" on="1"/>
      </contour>
    </TTGlyph>
    <TTGlyph name="seven" xMin="143" yMin="0" xMax="1094" yMax="1366">
      <contour>
        <pt x="143" y="1178" on="1"/>
        <pt x="143" y="1366" on="1"/>
        <pt x="1094" y="1366" on="1"/>
        <pt x="1094" y="1186" on="1"/>
        <pt x="522" y="0" on="1"/>
        <pt x="311" y="0" on="1"/>
        <pt x="891" y="1178" on="1"/>
      </contour>
    </TTGlyph>
    <TTGlyph name="six" xMin="133" yMin="-16" xMax="1077" yMax="1382">
      <contour>
        <pt x="133" y="627" on="1"/>
        <pt x="133" y="768" on="0"/>
        <pt x="184" y="999" on="0"/>
        <pt x="264" y="1151" on="0"/>
        <pt x="377" y="1268" on="0"/>
        <pt x="487" y="1331" on="0"/>
        <pt x="616" y="1370" on="0"/>
        <pt x="711" y="1382" on="0"/>
        <pt x="758" y="1382" on="1"/>
        <pt x="864" y="1382" on="0"/>
        <pt x="969" y="1354" on="1"/>
        <pt x="969" y="1182" on="1"/>
        <pt x="888" y="1206" on="0"/>
        <pt x="794" y="1206" on="1"/>
        <pt x="790" y="1206" on="0"/>
        <pt x="786" y="1206" on="1"/>
        <pt x="606" y="1206" on="0"/>
        <pt x="375" y="1006" on="0"/>
        <pt x="336" y="819" on="1"/>
        <pt x="447" y="891" on="0"/>
        <pt x="621" y="891" on="1"/>
        <pt x="861" y="891" on="0"/>
        <pt x="1077" y="635" on="0"/>
        <pt x="1077" y="453" on="1"/>
        <pt x="1077" y="260" on="0"/>
        <pt x="836" y="-16" on="0"/>
        <pt x="606" y="-16" on="1"/>
        <pt x="133" y="-16" on="0"/>
      </contour>
      <contour>
        <pt x="324" y="616" on="1"/>
        <pt x="326" y="485" on="0"/>
        <pt x="371" y="299" on="0"/>
        <pt x="426" y="209" on="0"/>
        <pt x="516" y="162" on="0"/>
        <pt x="567" y="156" on="0"/>
        <pt x="606" y="156" on="1"/>
        <pt x="694" y="156" on="0"/>
        <pt x="817" y="221" on="0"/>
        <pt x="868" y="326" on="0"/>
        <pt x="887" y="410" on="0"/>
        <pt x="887" y="453" on="1"/>
        <pt x="887" y="717" on="0"/>
        <pt x="606" y="717" on="1"/>
        <pt x="430" y="717" on="0"/>
      </contour>
    </TTGlyph>
    <TTGlyph name="slash" xMin="-29" yMin="-201" xMax="901" yMax="1548">
      <contour>
        <pt x="-29" y="-201" on="1"/>
        <pt x="723" y="1548" on="1"/>
        <pt x="901" y="1548" on="1"/>
        <pt x="147" y="-201" on="1"/>
      </contour>
    </TTGlyph>
    <TTGlyph name="sterling" xMin="104" yMin="-53" xMax="1040" yMax="1380">
      <contour>
        <pt x="104" y="-53" on="1"/>
        <pt x="104" y="129" on="1"/>
        <pt x="186" y="195" on="0"/>
        <pt x="285" y="211" on="1"/>
        <pt x="285" y="571" on="1"/>
        <pt x="104" y="571" on="1"/>
        <pt x="104" y="739" on="1"/>
        <pt x="285" y="739" on="1"/>
        <pt x="285" y="997" on="1"/>
        <pt x="285" y="1071" on="0"/>
        <pt x="332" y="1202" on="0"/>
        <pt x="428" y="1315" on="0"/>
        <pt x="600" y="1380" on="0"/>
        <pt x="715" y="1380" on="1"/>
        <pt x="887" y="1380" on="0"/>
        <pt x="1040" y="1290" on="1"/>
        <pt x="1040" y="1098" on="1"/>
        <pt x="897" y="1206" on="0"/>
        <pt x="733" y="1206" on="1"/>
        <pt x="469" y="1206" on="0"/>
        <pt x="469" y="997" on="1"/>
        <pt x="469" y="739" on="1"/>
        <pt x="858" y="739" on="1"/>
        <pt x="858" y="571" on="1"/>
        <pt x="469" y="571" on="1"/>
        <pt x="469" y="205" on="1"/>
        <pt x="514" y="197" on="0"/>
        <pt x="702" y="147" on="0"/>
        <pt x="758" y="137" on="1"/>
        <pt x="792" y="131" on="0"/>
        <pt x="833" y="131" on="1"/>
        <pt x="861" y="131" on="0"/>
        <pt x="894" y="134" on="1"/>
        <pt x="973" y="141" on="0"/>
        <pt x="1040" y="178" on="1"/>
        <pt x="1040" y="-4" on="1"/>
        <pt x="954" y="-51" on="0"/>
        <pt x="754" y="-51" on="0"/>
        <pt x="571" y="0" on="0"/>
        <pt x="479" y="22" on="1"/>
        <pt x="423" y="36" on="0"/>
        <pt x="365" y="36" on="1"/>
        <pt x="327" y="36" on="0"/>
        <pt x="288" y="30" on="1"/>
        <pt x="190" y="16" on="0"/>
      </contour>
    </TTGlyph>
    <TTGlyph name="t" xMin="49" yMin="-16" xMax="686" yMax="1327">
      <contour>
        <pt x="49" y="864" on="1"/>
        <pt x="49" y="1022" on="1"/>
        <pt x="227" y="1022" on="1"/>
        <pt x="227" y="1327" on="1"/>
        <pt x="414" y="1327" on="1"/>
        <pt x="414" y="1022" on="1"/>
        <pt x="686" y="1022" on="1"/>
        <pt x="686" y="864" on="1"/>
        <pt x="414" y="864" on="1"/>
        <pt x="414" y="270" on="1"/>
        <pt x="414" y="150" on="0"/>
        <pt x="565" y="150" on="1"/>
        <pt x="566" y="150" on="0"/>
        <pt x="567" y="150" on="1"/>
        <pt x="637" y="150" on="0"/>
        <pt x="686" y="180" on="1"/>
        <pt x="686" y="12" on="1"/>
        <pt x="616" y="-16" on="0"/>
        <pt x="546" y="-16" on="1"/>
        <pt x="544" y="-16" on="0"/>
        <pt x="541" y="-16" on="1"/>
        <pt x="504" y="-16" on="0"/>
        <pt x="420" y="2" on="0"/>
        <pt x="303" y="55" on="0"/>
        <pt x="227" y="186" on="0"/>
        <pt x="227" y="283" on="1"/>
        <pt x="227" y="864" on="1"/>
      </contour>
    </TTGlyph>
    <TTGlyph name="thorn" xMin="170" yMin="-377" xMax="1044" yMax="1397">
      <contour>
        <pt x="170" y="-377" on="1"/>
        <pt x="170" y="1397" on="1"/>
        <pt x="356" y="1397" on="1"/>
        <pt x="356" y="993" on="1"/>
        <pt x="462" y="1024" on="0"/>
        <pt x="575" y="1024" on="1"/>
        <pt x="663" y="1024" on="0"/>
        <pt x="815" y="981" on="0"/>
        <pt x="961" y="874" on="0"/>
        <pt x="1044" y="662" on="0"/>
        <pt x="1044" y="358" on="0"/>
        <pt x="961" y="145" on="0"/>
        <pt x="815" y="39" on="0"/>
        <pt x="664" y="-4" on="0"/>
        <pt x="575" y="-4" on="1"/>
        <pt x="462" y="-4" on="0"/>
        <pt x="356" y="27" on="1"/>
        <pt x="356" y="-377" on="1"/>
      </contour>
      <contour>
        <pt x="356" y="205" on="1"/>
        <pt x="460" y="162" on="0"/>
        <pt x="575" y="162" on="1"/>
        <pt x="636" y="162" on="0"/>
        <pt x="727" y="186" on="0"/>
        <pt x="813" y="254" on="0"/>
        <pt x="858" y="399" on="0"/>
        <pt x="858" y="621" on="0"/>
        <pt x="813" y="766" on="0"/>
        <pt x="727" y="834" on="0"/>
        <pt x="637" y="858" on="0"/>
        <pt x="575" y="858" on="1"/>
        <pt x="460" y="858" on="0"/>
        <pt x="356" y="815" on="1"/>
      </contour>
    </TTGlyph>
    <TTGlyph name="three" xMin="166" yMin="-16" xMax="1028" yMax="1382">
      <contour>
        <pt x="166" y="63" on="1"/>
        <pt x="166" y="250" on="1"/>
        <pt x="326" y="158" on="0"/>
        <pt x="500" y="158" on="1"/>
        <pt x="838" y="158" on="0"/>
        <pt x="838" y="637" on="0"/>
        <pt x="479" y="637" on="1"/>
        <pt x="360" y="637" on="1"/>
        <pt x="360" y="805" on="1"/>
        <pt x="475" y="805" on="1"/>
        <pt x="770" y="805" on="0"/>
        <pt x="770" y="1004" on="1"/>
        <pt x="770" y="1204" on="0"/>
        <pt x="478" y="1204" on="1"/>
        <pt x="476" y="1204" on="0"/>
        <pt x="475" y="1204" on="1"/>
        <pt x="323" y="1204" on="0"/>
        <pt x="197" y="1135" on="1"/>
        <pt x="197" y="1317" on="1"/>
        <pt x="336" y="1382" on="0"/>
        <pt x="493" y="1382" on="1"/>
        <pt x="496" y="1382" on="0"/>
        <pt x="498" y="1382" on="1"/>
        <pt x="736" y="1382" on="0"/>
        <pt x="961" y="1161" on="0"/>
        <pt x="961" y="1004" on="1"/>
        <pt x="961" y="827" on="0"/>
        <pt x="799" y="731" on="1"/>
        <pt x="1028" y="629" on="0"/>
        <pt x="1028" y="399" on="1"/>
        <pt x="1028" y="319" on="0"/>
        <pt x="973" y="178" on="0"/>
        <pt x="856" y="55" on="0"/>
        <pt x="651" y="-16" on="0"/>
        <pt x="516" y="-16" on="1"/>
        <pt x="338" y="-16" on="0"/>
      </contour>
    </TTGlyph>
    <TTGlyph name="threequarters" xMin="135" yMin="-45" xMax="1567" yMax="1403">
      <contour>
        <pt x="135" y="680" on="1"/>
        <pt x="135" y="780" on="1"/>
        <pt x="221" y="731" on="0"/>
        <pt x="315" y="731" on="1"/>
        <pt x="497" y="731" on="0"/>
        <pt x="498" y="858" on="1"/>
        <pt x="498" y="987" on="0"/>
        <pt x="305" y="987" on="1"/>
        <pt x="244" y="987" on="1"/>
        <pt x="244" y="1079" on="1"/>
        <pt x="303" y="1079" on="1"/>
        <pt x="463" y="1079" on="0"/>
        <pt x="463" y="1292" on="0"/>
        <pt x="303" y="1292" on="1"/>
        <pt x="217" y="1292" on="0"/>
        <pt x="143" y="1251" on="1"/>
        <pt x="143" y="1350" on="1"/>
        <pt x="225" y="1391" on="0"/>
        <pt x="315" y="1391" on="1"/>
        <pt x="442" y="1391" on="0"/>
        <pt x="563" y="1270" on="0"/>
        <pt x="563" y="1186" on="1"/>
        <pt x="563" y="1091" on="0"/>
        <pt x="477" y="1038" on="1"/>
        <pt x="600" y="985" on="0"/>
        <pt x="600" y="860" on="1"/>
        <pt x="600" y="768" on="0"/>
        <pt x="467" y="637" on="0"/>
        <pt x="326" y="637" on="1"/>
        <pt x="226" y="637" on="0"/>
      </contour>
      <contour>
        <pt x="369" y="-45" on="1"/>
        <pt x="1264" y="1403" on="1"/>
        <pt x="1393" y="1403" on="1"/>
        <pt x="500" y="-45" on="1"/>
      </contour>
      <contour>
        <pt x="1024" y="231" on="1"/>
        <pt x="1024" y="324" on="1"/>
        <pt x="1346" y="737" on="1"/>
        <pt x="1462" y="737" on="1"/>
        <pt x="1462" y="324" on="1"/>
        <pt x="1567" y="324" on="1"/>
        <pt x="1567" y="231" on="1"/>
        <pt x="1462" y="231" on="1"/>
        <pt x="1462" y="2" on="1"/>
        <pt x="1360" y="2" on="1"/>
        <pt x="1360" y="231" on="1"/>
      </contour>
      <contour>
        <pt x="1145" y="324" on="1"/>
        <pt x="1360" y="324" on="1"/>
        <pt x="1360" y="590" on="1"/>
      </contour>
    </TTGlyph>
    <TTGlyph name="tilde" xMin="215" yMin="1117" xMax="838" yMax="1363">
      <contour>
        <pt x="215" y="1153" on="1"/>
        <pt x="215" y="1288" on="1"/>
        <pt x="272" y="1356" on="0"/>
        <pt x="339" y="1362" on="1"/>
        <pt x="350" y="1363" on="0"/>
        <pt x="361" y="1363" on="1"/>
        <pt x="416" y="1363" on="0"/>
        <pt x="466" y="1338" on="1"/>
        <pt x="588" y="1277" on="1"/>
        <pt x="638" y="1252" on="0"/>
        <pt x="691" y="1252" on="1"/>
        <pt x="703" y="1252" on="0"/>
        <pt x="714" y="1254" on="1"/>
        <pt x="780" y="1260" on="0"/>
        <pt x="838" y="1327" on="1"/>
        <pt x="838" y="1192" on="1"/>
        <pt x="781" y="1124" on="0"/>
        <pt x="715" y="1118" on="1"/>
        <pt x="704" y="1117" on="0"/>
        <pt x="693" y="1117" on="1"/>
        <pt x="639" y="1117" on="0"/>
        <pt x="588" y="1142" on="1"/>
        <pt x="466" y="1202" on="1"/>
        <pt x="416" y="1228" on="0"/>
        <pt x="361" y="1228" on="1"/>
        <pt x="350" y="1228" on="0"/>
        <pt x="339" y="1227" on="1"/>
        <pt x="272" y="1221" on="0"/>
      </contour>
    </TTGlyph>
    <TTGlyph name="trademark" xMin="100" yMin="684" xMax="1415" yMax="1366">
      <contour>
        <pt x="100" y="1278" on="1"/>
        <pt x="100" y="1366" on="1"/>
        <pt x="655" y="1366" on="1"/>
        <pt x="655" y="1278" on="1"/>
        <pt x="424" y="1278" on="1"/>
        <pt x="424" y="684" on="1"/>
        <pt x="330" y="684" on="1"/>
        <pt x="330" y="1278" on="1"/>
      </contour>
      <contour>
        <pt x="762" y="684" on="1"/>
        <pt x="762" y="1366" on="1"/>
        <pt x="864" y="1366" on="1"/>
        <pt x="1087" y="1071" on="1"/>
        <pt x="1313" y="1366" on="1"/>
        <pt x="1415" y="1366" on="1"/>
        <pt x="1415" y="684" on="1"/>
        <pt x="1321" y="684" on="1"/>
        <pt x="1321" y="1223" on="1"/>
        <pt x="1087" y="915" on="1"/>
        <pt x="856" y="1223" on="1"/>
        <pt x="856" y="684" on="1"/>
      </contour>
    </TTGlyph>
    <TTGlyph name="two" xMin="158" yMin="0" xMax="1020" yMax="1382">
      <contour>
        <pt x="158" y="0" on="1"/>
        <pt x="158" y="152" on="1"/>
        <pt x="269" y="236" on="0"/>
        <pt x="475" y="422" on="0"/>
        <pt x="690" y="653" on="0"/>
        <pt x="819" y="891" on="0"/>
        <pt x="819" y="987" on="1"/>
        <pt x="819" y="1206" on="0"/>
        <pt x="516" y="1206" on="1"/>
        <pt x="332" y="1206" on="0"/>
        <pt x="180" y="1104" on="1"/>
        <pt x="180" y="1284" on="1"/>
        <pt x="350" y="1382" on="0"/>
        <pt x="541" y="1382" on="1"/>
        <pt x="779" y="1382" on="0"/>
        <pt x="1006" y="1151" on="0"/>
        <pt x="1006" y="989" on="1"/>
        <pt x="1006" y="643" on="0"/>
        <pt x="487" y="190" on="1"/>
        <pt x="1020" y="190" on="1"/>
        <pt x="1020" y="0" on="1"/>
      </contour>
    </TTGlyph>
    <TTGlyph name="u" xMin="168" yMin="-18" xMax="1032" yMax="1022">
      <contour>
        <pt x="168" y="430" on="1"/>
        <pt x="168" y="1022" on="1"/>
        <pt x="354" y="1022" on="1"/>
        <pt x="354" y="416" on="1"/>
        <pt x="354" y="277" on="0"/>
        <pt x="473" y="147" on="0"/>
        <pt x="727" y="147" on="0"/>
        <pt x="844" y="276" on="0"/>
        <pt x="844" y="416" on="1"/>
        <pt x="844" y="1022" on="1"/>
        <pt x="1032" y="1022" on="1"/>
        <pt x="1032" y="430" on="1"/>
        <pt x="1032" y="217" on="0"/>
        <pt x="805" y="-18" on="0"/>
        <pt x="395" y="-18" on="0"/>
        <pt x="168" y="217" on="0"/>
      </contour>
    </TTGlyph>
    <TTGlyph name="uacute" xMin="168" yMin="-18" xMax="1032" yMax="1395">
      <contour>
        <pt x="168" y="430" on="1"/>
        <pt x="168" y="1022" on="1"/>
        <pt x="354" y="1022" on="1"/>
        <pt x="354" y="416" on="1"/>
        <pt x="354" y="277" on="0"/>
        <pt x="473" y="147" on="0"/>
        <pt x="727" y="147" on="0"/>
        <pt x="844" y="276" on="0"/>
        <pt x="844" y="416" on="1"/>
        <pt x="844" y="1022" on="1"/>
        <pt x="1032" y="1022" on="1"/>
        <pt x="1032" y="430" on="1"/>
        <pt x="1032" y="217" on="0"/>
        <pt x="805" y="-18" on="0"/>
        <pt x="395" y="-18" on="0"/>
        <pt x="168" y="217" on="0"/>
      </contour>
      <contour>
        <pt x="528" y="1155" on="1"/>
        <pt x="655" y="1395" on="1"/>
        <pt x="840" y="1395" on="1"/>
        <pt x="645" y="1155" on="1"/>
      </contour>
    </TTGlyph>
    <TTGlyph name="ucircumflex" xMin="168" yMin="-18" xMax="1032" yMax="1405">
      <contour>
        <pt x="168" y="430" on="1"/>
        <pt x="168" y="1022" on="1"/>
        <pt x="354" y="1022" on="1"/>
        <pt x="354" y="416" on="1"/>
        <pt x="354" y="277" on="0"/>
        <pt x="473" y="147" on="0"/>
        <pt x="727" y="147" on="0"/>
        <pt x="844" y="276" on="0"/>
        <pt x="844" y="416" on="1"/>
        <pt x="844" y="1022" on="1"/>
        <pt x="1032" y="1022" on="1"/>
        <pt x="1032" y="430" on="1"/>
        <pt x="1032" y="217" on="0"/>
        <pt x="805" y="-18" on="0"/>
        <pt x="395" y="-18" on="0"/>
        <pt x="168" y="217" on="0"/>
      </contour>
      <contour>
        <pt x="369" y="1155" on="1"/>
        <pt x="549" y="1405" on="1"/>
        <pt x="647" y="1405" on="1"/>
        <pt x="829" y="1155" on="1"/>
        <pt x="684" y="1155" on="1"/>
        <pt x="598" y="1288" on="1"/>
        <pt x="512" y="1155" on="1"/>
      </contour>
    </TTGlyph>
    <TTGlyph name="udieresis" xMin="168" yMin="-18" xMax="1032" yMax="1329">
      <contour>
        <pt x="168" y="430" on="1"/>
        <pt x="168" y="1022" on="1"/>
        <pt x="354" y="1022" on="1"/>
        <pt x="354" y="416" on="1"/>
        <pt x="354" y="277" on="0"/>
        <pt x="473" y="147" on="0"/>
        <pt x="727" y="147" on="0"/>
        <pt x="844" y="276" on="0"/>
        <pt x="844" y="416" on="1"/>
        <pt x="844" y="1022" on="1"/>
        <pt x="1032" y="1022" on="1"/>
        <pt x="1032" y="430" on="1"/>
        <pt x="1032" y="217" on="0"/>
        <pt x="805" y="-18" on="0"/>
        <pt x="395" y="-18" on="0"/>
        <pt x="168" y="217" on="0"/>
      </contour>
      <contour>
        <pt x="354" y="1155" on="1"/>
        <pt x="354" y="1329" on="1"/>
        <pt x="541" y="1329" on="1"/>
        <pt x="541" y="1155" on="1"/>
      </contour>
      <contour>
        <pt x="657" y="1155" on="1"/>
        <pt x="657" y="1329" on="1"/>
        <pt x="844" y="1329" on="1"/>
        <pt x="844" y="1155" on="1"/>
      </contour>
    </TTGlyph>
    <TTGlyph name="ugrave" xMin="168" yMin="-18" xMax="1032" yMax="1395">
      <contour>
        <pt x="168" y="430" on="1"/>
        <pt x="168" y="1022" on="1"/>
        <pt x="356" y="1022" on="1"/>
        <pt x="356" y="416" on="1"/>
        <pt x="356" y="277" on="0"/>
        <pt x="473" y="147" on="0"/>
        <pt x="727" y="147" on="0"/>
        <pt x="846" y="276" on="0"/>
        <pt x="846" y="416" on="1"/>
        <pt x="846" y="1022" on="1"/>
        <pt x="1032" y="1022" on="1"/>
        <pt x="1032" y="430" on="1"/>
        <pt x="1032" y="217" on="0"/>
        <pt x="805" y="-18" on="0"/>
        <pt x="395" y="-18" on="0"/>
        <pt x="168" y="217" on="0"/>
      </contour>
      <contour>
        <pt x="358" y="1395" on="1"/>
        <pt x="543" y="1395" on="1"/>
        <pt x="670" y="1155" on="1"/>
        <pt x="553" y="1155" on="1"/>
      </contour>
    </TTGlyph>
    <TTGlyph name="underscore" xMin="0" yMin="-164" xMax="1118" yMax="-49">
      <contour>
        <pt x="0" y="-49" on="1"/>
        <pt x="1118" y="-49" on="1"/>
        <pt x="1118" y="-164" on="1"/>
        <pt x="0" y="-164" on="1"/>
      </contour>
    </TTGlyph>
    <TTGlyph name="uni00B2" xMin="109" yMin="948" xMax="565" yMax="1692">
      <contour>
        <pt x="109" y="948" on="1"/>
        <pt x="109" y="1030" on="1"/>
        <pt x="246" y="1132" on="0"/>
        <pt x="465" y="1380" on="0"/>
        <pt x="465" y="1479" on="1"/>
        <pt x="465" y="1597" on="0"/>
        <pt x="304" y="1597" on="1"/>
        <pt x="302" y="1597" on="0"/>
        <pt x="301" y="1597" on="1"/>
        <pt x="197" y="1597" on="0"/>
        <pt x="121" y="1542" on="1"/>
        <pt x="121" y="1638" on="1"/>
        <pt x="209" y="1691" on="0"/>
        <pt x="315" y="1692" on="1"/>
        <pt x="442" y="1692" on="0"/>
        <pt x="565" y="1567" on="0"/>
        <pt x="565" y="1481" on="1"/>
        <pt x="565" y="1297" on="0"/>
        <pt x="287" y="1051" on="1"/>
        <pt x="561" y="1051" on="1"/>
        <pt x="561" y="948" on="1"/>
      </contour>
    </TTGlyph>
</ttFont>
